<svg width="1920" height="775" viewBox="0 0 1920 775" fill="none" xmlns="http://www.w3.org/2000/svg">
<g clip-path="url(#clip0_414_1555)">
<path d="M1509.55 431.779C1509.55 432.957 1510.51 433.912 1511.68 433.912C1512.86 433.912 1513.82 432.957 1513.82 431.779C1513.82 430.601 1512.86 429.646 1511.68 429.646C1510.51 429.646 1509.55 430.601 1509.55 431.779ZM1626.69 522.664L1626.94 522.353L1626.94 522.35L1626.69 522.664ZM1661.35 550.742L1661.09 551.053L1661.75 551.581V550.742H1661.35ZM1659.21 324.638C1659.21 325.817 1660.17 326.772 1661.35 326.772C1662.52 326.772 1663.48 325.817 1663.48 324.638C1663.48 323.46 1662.52 322.505 1661.35 322.505C1660.17 322.505 1659.21 323.46 1659.21 324.638ZM1511.44 432.093L1626.44 522.978L1626.94 522.35L1511.93 431.465L1511.44 432.093ZM1626.44 522.975L1661.09 551.053L1661.6 550.431L1626.94 522.353L1626.44 522.975ZM1661.75 550.742V324.638H1660.95V550.742H1661.75Z" fill="url(#paint0_linear_414_1555)"/>
<path d="M1211.02 398.529C1211.02 399.707 1211.97 400.662 1213.15 400.662C1214.33 400.662 1215.28 399.707 1215.28 398.529C1215.28 397.35 1214.33 396.395 1213.15 396.395C1211.97 396.395 1211.02 397.35 1211.02 398.529ZM944.545 385.228L944.481 384.834L944.525 385.628L944.545 385.228ZM1225.75 339.417L1226.15 339.373L1226.1 338.954L1225.69 339.022L1225.75 339.417ZM1234.65 440.646C1234.65 441.824 1235.6 442.779 1236.78 442.779C1237.96 442.779 1238.91 441.824 1238.91 440.646C1238.91 439.468 1237.96 438.513 1236.78 438.513C1235.6 438.513 1234.65 439.468 1234.65 440.646ZM1213.17 398.129L944.565 384.829L944.525 385.628L1213.13 398.928L1213.17 398.129ZM944.609 385.623L1225.82 339.811L1225.69 339.022L944.481 384.834L944.609 385.623ZM1225.35 339.46L1236.38 440.689L1237.18 440.603L1226.15 339.373L1225.35 339.46Z" fill="url(#paint1_linear_414_1555)"/>
<path d="M1208.65 398.528C1208.65 399.707 1209.61 400.662 1210.79 400.662C1211.96 400.662 1212.92 399.707 1212.92 398.528C1212.92 397.35 1211.96 396.395 1210.79 396.395C1209.61 396.395 1208.65 397.35 1208.65 398.528ZM1101.3 295.082L1101.57 294.792L1101.52 294.744L1101.46 294.716L1101.3 295.082ZM1027.25 262.571L1026.87 262.459L1026.77 262.796L1027.09 262.937L1027.25 262.571ZM1034.34 238.187L1034.53 237.835L1034.1 237.6L1033.96 238.075L1034.34 238.187ZM1222.83 340.894C1222.83 342.072 1223.79 343.028 1224.96 343.028C1226.14 343.028 1227.1 342.072 1227.1 340.894C1227.1 339.716 1226.14 338.761 1224.96 338.761C1223.79 338.761 1222.83 339.716 1222.83 340.894ZM1211.06 398.238L1101.57 294.792L1101.02 295.373L1210.51 398.819L1211.06 398.238ZM1101.46 294.716L1027.41 262.204L1027.09 262.937L1101.14 295.449L1101.46 294.716ZM1027.64 262.682L1034.73 238.299L1033.96 238.075L1026.87 262.459L1027.64 262.682ZM1034.15 238.539L1224.77 341.246L1225.15 340.542L1034.53 237.835L1034.15 238.539Z" fill="url(#paint2_linear_414_1555)"/>
<path d="M718.707 180.553C718.707 181.731 719.662 182.686 720.84 182.686C722.018 182.686 722.973 181.731 722.973 180.553C722.973 179.375 722.018 178.419 720.84 178.419C719.662 178.419 718.707 179.375 718.707 180.553ZM1032.77 237.448L1032.69 237.842L1032.74 237.85L1032.78 237.848L1032.77 237.448ZM1271.67 227.842C1271.67 229.021 1272.62 229.976 1273.8 229.976C1274.98 229.976 1275.93 229.021 1275.93 227.842C1275.93 226.664 1274.98 225.709 1273.8 225.709C1272.62 225.709 1271.67 226.664 1271.67 227.842ZM720.768 180.946L1032.69 237.842L1032.84 237.055L720.912 180.159L720.768 180.946ZM1032.78 237.848L1273.82 228.242L1273.78 227.443L1032.75 237.048L1032.78 237.848Z" fill="url(#paint3_linear_414_1555)"/>
<path d="M1029.85 170.947C1029.85 172.125 1030.8 173.08 1031.98 173.08C1033.16 173.08 1034.11 172.125 1034.11 170.947C1034.11 169.769 1033.16 168.814 1031.98 168.814C1030.8 168.814 1029.85 169.769 1029.85 170.947ZM1707.03 187.942L1707.02 188.342L1707.1 187.547L1707.03 187.942ZM853.403 50.5063C853.403 51.6846 854.358 52.6397 855.536 52.6397C856.714 52.6397 857.669 51.6846 857.669 50.5063C857.669 49.3281 856.714 48.373 855.536 48.373C854.358 48.373 853.403 49.3281 853.403 50.5063ZM1031.97 171.347L1707.02 188.342L1707.04 187.542L1031.99 170.547L1031.97 171.347ZM1707.1 187.547L855.6 50.1115L855.472 50.9012L1706.97 188.337L1707.1 187.547Z" fill="url(#paint4_linear_414_1555)"/>
<path d="M1592.26 236.709C1592.26 237.887 1593.21 238.843 1594.39 238.843C1595.57 238.843 1596.53 237.887 1596.53 236.709C1596.53 235.531 1595.57 234.576 1594.39 234.576C1593.21 234.576 1592.26 235.531 1592.26 236.709ZM1389.03 107.402C1389.03 108.58 1389.99 109.535 1391.17 109.535C1392.35 109.535 1393.3 108.58 1393.3 107.402C1393.3 106.223 1392.35 105.268 1391.17 105.268C1389.99 105.268 1389.03 106.223 1389.03 107.402ZM1594.61 236.372L1391.38 107.064L1390.95 107.739L1594.18 237.047L1594.61 236.372Z" fill="url(#paint5_linear_414_1555)"/>
<path d="M1596.99 238.187C1596.99 239.365 1597.94 240.32 1599.12 240.32C1600.3 240.32 1601.25 239.365 1601.25 238.187C1601.25 237.009 1600.3 236.054 1599.12 236.054C1597.94 236.054 1596.99 237.009 1596.99 238.187ZM1659.21 323.161C1659.21 324.339 1660.17 325.294 1661.35 325.294C1662.53 325.294 1663.48 324.339 1663.48 323.161C1663.48 321.982 1662.53 321.027 1661.35 321.027C1660.17 321.027 1659.21 321.982 1659.21 323.161ZM1598.8 238.423L1661.02 323.397L1661.67 322.924L1599.44 237.951L1598.8 238.423Z" fill="url(#paint6_linear_414_1555)"/>
<path d="M558.867 28C558.867 29.1782 559.822 30.1333 561 30.1333C562.178 30.1333 563.133 29.1782 563.133 28C563.133 26.8218 562.178 25.8667 561 25.8667C559.822 25.8667 558.867 26.8218 558.867 28ZM820.85 459.912L820.673 460.27L821.898 460.876L821.193 459.706L820.85 459.912ZM652.85 376.767L653.028 376.409L652.676 376.235L652.496 376.583L652.85 376.767ZM564.925 546L564.57 545.816L565.149 546.331L564.925 546ZM823.991 370.881L824.215 371.212L824.723 370.869L824.204 370.542L823.991 370.881ZM599.467 229.608L599.095 229.462L598.974 229.77L599.254 229.947L599.467 229.608ZM666.196 58.9034L666.305 58.5186L665.956 58.4194L665.824 58.7578L666.196 58.9034ZM897 124.389L897.136 124.765L898.301 124.343L897.109 124.004L897 124.389ZM761.187 173.688L760.948 174.008L761.121 174.137L761.323 174.063L761.187 173.688ZM560.657 28.2062L820.508 460.118L821.193 459.706L561.343 27.7938L560.657 28.2062ZM821.028 459.553L653.028 376.409L652.673 377.126L820.673 460.27L821.028 459.553ZM652.496 376.583L564.57 545.816L565.28 546.184L653.205 376.951L652.496 376.583ZM565.149 546.331L824.215 371.212L823.767 370.549L564.701 545.669L565.149 546.331ZM824.204 370.542L599.68 229.269L599.254 229.947L823.778 371.219L824.204 370.542ZM599.84 229.754L666.569 59.049L665.824 58.7578L599.095 229.462L599.84 229.754ZM666.087 59.2882L896.891 124.774L897.109 124.004L666.305 58.5186L666.087 59.2882ZM896.864 124.013L761.05 173.312L761.323 174.063L897.136 124.765L896.864 124.013ZM761.426 173.367L574.239 33.6794L573.761 34.3206L760.948 174.008L761.426 173.367Z" fill="url(#paint7_linear_414_1555)" fill-opacity="0.5"/>
<path d="M554.867 24.6447C554.867 25.823 555.822 26.7781 557 26.7781C558.178 26.7781 559.133 25.823 559.133 24.6447C559.133 23.4665 558.178 22.5114 557 22.5114C555.822 22.5114 554.867 23.4665 554.867 24.6447ZM596.385 224.887L595.992 224.964L596.785 224.89L596.385 224.887ZM597.96 6.91113L598.288 6.6814L597.569 5.65743L597.56 6.90824L597.96 6.91113ZM719.265 179.814L718.982 180.096L719.592 179.584L719.265 179.814ZM570.621 32.7726C570.621 33.9509 571.576 34.906 572.754 34.906C573.932 34.906 574.887 33.9509 574.887 32.7726C574.887 31.5944 573.932 30.6393 572.754 30.6393C571.576 30.6393 570.621 31.5944 570.621 32.7726ZM556.608 24.7219L595.992 224.964L596.777 224.81L557.392 24.5675L556.608 24.7219ZM596.785 224.89L598.36 6.91402L597.56 6.90824L595.985 224.884L596.785 224.89ZM597.633 7.14086L718.937 180.044L719.592 179.584L598.288 6.6814L597.633 7.14086ZM719.548 179.532L573.037 32.4903L572.471 33.055L718.982 180.096L719.548 179.532Z" fill="url(#paint8_linear_414_1555)" fill-opacity="0.5"/>
<path d="M1398.9 428.429C1397.83 428.933 1397.42 430.183 1397.98 431.22C1398.54 432.258 1399.86 432.69 1400.92 432.186C1401.99 431.682 1402.4 430.432 1401.84 429.395C1401.28 428.357 1399.96 427.925 1398.9 428.429ZM1104.58 844.064L1104.17 844.045L1104.15 845.376L1104.92 844.292L1104.58 844.064ZM1108.1 665.279L1108.51 665.299L1108.52 664.882L1108.08 664.888L1108.1 665.279ZM906.614 667.962L906.596 667.57L906.438 668.31L906.614 667.962ZM1191.09 806.423L1190.91 806.771L1191.42 807.019L1191.5 806.484L1191.09 806.423ZM1224.62 553.844L1224.56 553.454L1224.25 553.488L1224.21 553.783L1224.62 553.844ZM1417.93 532.684L1418.33 532.626L1418.26 532.252L1417.87 532.295L1417.93 532.684ZM1459.67 756.253L1459.41 756.543L1460.28 757.278L1460.08 756.195L1459.67 756.253ZM1351.16 664.435L1350.77 664.342L1350.72 664.569L1350.9 664.725L1351.16 664.435ZM1398.6 442.639C1397.54 443.143 1397.13 444.393 1397.69 445.431C1398.24 446.468 1399.56 446.901 1400.62 446.397C1401.69 445.893 1402.1 444.643 1401.54 443.605C1400.98 442.568 1399.67 442.135 1398.6 442.639ZM1399.57 430.08L1104.24 843.836L1104.92 844.292L1400.25 430.536L1399.57 430.08ZM1104.99 844.083L1108.51 665.299L1107.69 665.26L1104.17 844.045L1104.99 844.083ZM1108.08 664.888L906.596 667.57L906.632 668.354L1108.12 665.671L1108.08 664.888ZM906.438 668.31L1190.91 806.771L1191.27 806.075L906.79 667.614L906.438 668.31ZM1191.5 806.484L1225.02 553.905L1224.21 553.783L1190.69 806.362L1191.5 806.484ZM1224.67 554.233L1417.99 533.073L1417.87 532.295L1224.56 553.454L1224.67 554.233ZM1417.53 532.742L1459.27 756.31L1460.08 756.195L1418.33 532.626L1417.53 532.742ZM1459.94 755.962L1351.43 664.144L1350.9 664.725L1459.41 756.543L1459.94 755.962ZM1351.56 664.527L1400.01 444.61L1399.21 444.426L1350.77 664.342L1351.56 664.527Z" fill="url(#paint9_linear_414_1555)"/>
<path d="M595.827 7.65015C595.827 8.82835 596.782 9.78348 597.96 9.78348C599.138 9.78348 600.093 8.82835 600.093 7.65015C600.093 6.47194 599.138 5.51681 597.96 5.51681C596.782 5.51681 595.827 6.47194 595.827 7.65015ZM830.33 362.322L830.664 362.103L830.664 362.103L830.33 362.322ZM824.028 368.234L823.648 368.358L823.843 368.956L824.302 368.525L824.028 368.234ZM760.225 172.425L760.605 172.301L760.212 171.095L759.842 172.308L760.225 172.425ZM641.283 562.564L640.901 562.448L641.575 562.838L641.283 562.564ZM821.665 370.45L821.391 370.159L821.382 370.167L821.373 370.177L821.665 370.45ZM1016.46 649.755C1016.46 650.933 1017.41 651.888 1018.59 651.888C1019.77 651.888 1020.72 650.933 1020.72 649.755C1020.72 648.577 1019.77 647.621 1018.59 647.621C1017.41 647.621 1016.46 648.577 1016.46 649.755ZM597.625 7.86936L829.995 362.542L830.664 362.103L598.295 7.43094L597.625 7.86936ZM830.056 362.031L823.754 367.942L824.302 368.525L830.603 362.614L830.056 362.031ZM824.408 368.11L760.605 172.301L759.845 172.549L823.648 368.358L824.408 368.11ZM759.842 172.308L640.901 562.448L641.666 562.681L760.608 172.542L759.842 172.308ZM641.575 562.838L821.957 370.724L821.373 370.177L640.992 562.291L641.575 562.838ZM821.939 370.742L830.603 362.614L830.056 362.031L821.391 370.159L821.939 370.742ZM1018.92 649.536L830.664 362.103L829.995 362.542L1018.25 649.974L1018.92 649.536Z" fill="url(#paint10_linear_414_1555)" fill-opacity="0.5"/>
<path d="M853.417 50.5131C853.417 51.6913 854.372 52.6464 855.551 52.6464C856.729 52.6464 857.684 51.6913 857.684 50.5131C857.684 49.3349 856.729 48.3798 855.551 48.3798C854.372 48.3798 853.417 49.3349 853.417 50.5131ZM1205.27 69.7177L1205.48 70.0598L1206.58 69.3892L1205.29 69.3183L1205.27 69.7177ZM1035.92 172.425L1035.78 172.801L1035.96 172.866L1036.12 172.767L1035.92 172.425ZM899.646 122.919L899.634 122.519L899.51 123.295L899.646 122.919ZM1391 108L1391.01 108.4L1391.09 108.398L1391.16 108.368L1391 108ZM1643.23 1L1643.39 1.36824L1643.16 0.605256L1643.23 1ZM1210 71.9344L1209.93 71.5397L1209.8 71.5612L1209.71 71.657L1210 71.9344ZM1026.47 262.571L1026.18 262.293L1026.15 262.317L1026.14 262.344L1026.47 262.571ZM942.97 383.75L942.691 384.037L943.03 384.368L943.299 383.977L942.97 383.75ZM775.979 221.192L776.2 220.859L775.7 221.479L775.979 221.192ZM1407.71 640.149L1407.49 640.482L1407.53 640.513L1407.59 640.529L1407.71 640.149ZM1601.48 702.955L1601.36 703.336L1601.67 703.438L1601.83 703.148L1601.48 702.955ZM1659.77 596.554L1660.12 596.746L1660.31 596.399L1659.97 596.205L1659.77 596.554ZM1464.65 487.935C1464.65 489.114 1465.61 490.069 1466.79 490.069C1467.96 490.069 1468.92 489.114 1468.92 487.935C1468.92 486.757 1467.96 485.802 1466.79 485.802C1465.61 485.802 1464.65 486.757 1464.65 487.935ZM855.529 50.9125L1205.25 70.1171L1205.29 69.3183L855.573 50.1137L855.529 50.9125ZM1205.06 69.3757L1035.71 172.083L1036.12 172.767L1205.48 70.0598L1205.06 69.3757ZM1036.05 172.049L899.783 122.543L899.51 123.295L1035.78 172.801L1036.05 172.049ZM899.659 123.318L1391.01 108.4L1390.99 107.6L899.634 122.519L899.659 123.318ZM1391.16 108.368L1643.39 1.36824L1643.07 0.631764L1390.84 107.632L1391.16 108.368ZM1643.16 0.605256L1209.93 71.5397L1210.06 72.3292L1643.29 1.39474L1643.16 0.605256ZM1209.71 71.657L1026.18 262.293L1026.75 262.848L1210.29 72.2119L1209.71 71.657ZM1026.14 262.344L942.64 383.523L943.299 383.977L1026.79 262.798L1026.14 262.344ZM943.249 383.464L776.258 220.906L775.7 221.479L942.691 384.037L943.249 383.464ZM775.757 221.526L1407.49 640.482L1407.93 639.816L776.2 220.859L775.757 221.526ZM1407.59 640.529L1601.36 703.336L1601.6 702.575L1407.83 639.768L1407.59 640.529ZM1601.83 703.148L1660.12 596.746L1659.42 596.362L1601.13 702.763L1601.83 703.148ZM1659.97 596.205L1466.98 487.587L1466.59 488.284L1659.57 596.902L1659.97 596.205Z" fill="url(#paint11_linear_414_1555)"/>
<path d="M579.286 688.177C579.286 689.356 580.241 690.311 581.419 690.311C582.597 690.311 583.552 689.356 583.552 688.177C583.552 686.999 582.597 686.044 581.419 686.044C580.241 686.044 579.286 686.999 579.286 688.177ZM647.815 378.578C647.815 379.756 648.77 380.711 649.948 380.711C651.127 380.711 652.082 379.756 652.082 378.578C652.082 377.4 651.127 376.445 649.948 376.445C648.77 376.445 647.815 377.4 647.815 378.578ZM581.809 688.264L650.339 378.665L649.558 378.492L581.028 688.091L581.809 688.264Z" fill="url(#paint12_linear_414_1555)" fill-opacity="0.5"/>
<path d="M1002.05 576.603L1139.89 555.175L1234.42 530.053V660.838L1230.48 663.794L1002.05 576.603Z" stroke="url(#paint13_linear_414_1555)" stroke-width="0.8"/>
<path d="M1286.63 680.789C1286.63 681.967 1287.59 682.922 1288.77 682.922C1289.95 682.922 1290.9 681.967 1290.9 680.789C1290.9 679.61 1289.95 678.655 1288.77 678.655C1287.59 678.655 1286.63 679.61 1286.63 680.789ZM1017.24 650.494C1017.24 651.672 1018.2 652.627 1019.38 652.627C1020.55 652.627 1021.51 651.672 1021.51 650.494C1021.51 649.315 1020.55 648.36 1019.38 648.36C1018.2 648.36 1017.24 649.315 1017.24 650.494ZM1288.81 680.391L1019.42 650.096L1019.33 650.891L1288.72 681.186L1288.81 680.391Z" fill="url(#paint14_linear_414_1555)"/>
<path d="M1286.63 680.788C1286.63 681.967 1287.59 682.922 1288.77 682.922C1289.95 682.922 1290.9 681.967 1290.9 680.788C1290.9 679.61 1289.95 678.655 1288.77 678.655C1287.59 678.655 1286.63 679.61 1286.63 680.788ZM824.816 461.335L824.931 460.952L824.645 461.697L824.816 461.335ZM1137.76 555.914C1137.76 557.092 1138.72 558.048 1139.89 558.048C1141.07 558.048 1142.03 557.092 1142.03 555.914C1142.03 554.736 1141.07 553.781 1139.89 553.781C1138.72 553.781 1137.76 554.736 1137.76 555.914ZM1288.94 680.427L824.987 460.973L824.645 461.697L1288.6 681.15L1288.94 680.427ZM824.701 461.718L1139.78 556.297L1140.01 555.531L824.931 460.952L824.701 461.718Z" fill="url(#paint15_linear_414_1555)"/>
<path d="M1209.44 397.79C1209.44 398.968 1210.4 399.923 1211.57 399.923C1212.75 399.923 1213.71 398.968 1213.71 397.79C1213.71 396.611 1212.75 395.656 1211.57 395.656C1210.4 395.656 1209.44 396.611 1209.44 397.79ZM1137.76 553.698C1137.76 554.876 1138.72 555.831 1139.89 555.831C1141.07 555.831 1142.03 554.876 1142.03 553.698C1142.03 552.519 1141.07 551.564 1139.89 551.564C1138.72 551.564 1137.76 552.519 1137.76 553.698ZM1211.21 397.622L1139.53 553.53L1140.26 553.865L1211.94 397.957L1211.21 397.622Z" fill="url(#paint16_linear_414_1555)"/>
<path d="M1234.65 441.385C1234.65 442.563 1235.6 443.518 1236.78 443.518C1237.96 443.518 1238.91 442.563 1238.91 441.385C1238.91 440.206 1237.96 439.251 1236.78 439.251C1235.6 439.251 1234.65 440.206 1234.65 441.385ZM1137.76 555.175C1137.76 556.353 1138.72 557.309 1139.89 557.309C1141.07 557.309 1142.03 556.353 1142.03 555.175C1142.03 553.997 1141.07 553.042 1139.89 553.042C1138.72 553.042 1137.76 553.997 1137.76 555.175ZM1236.48 441.125L1139.59 554.916L1140.2 555.435L1237.08 441.644L1236.48 441.125Z" fill="url(#paint17_linear_414_1555)"/>
<path d="M568.027 547.786L828.754 656.405L646.009 561.825L1139.89 553.698L568.027 547.786Z" stroke="url(#paint18_linear_414_1555)" stroke-width="0.8"/>
<path d="M1704.48 812.829L1555.02 584.883L1648.65 759.862L1236.53 504.424L1704.48 812.829Z" stroke="url(#paint19_linear_414_1555)" stroke-width="0.8"/>
<path d="M821.107 460.596C821.107 461.774 822.062 462.729 823.24 462.729C824.418 462.729 825.374 461.774 825.374 460.596C825.374 459.418 824.418 458.463 823.24 458.463C822.062 458.463 821.107 459.418 821.107 460.596ZM1235.2 442.124L1235.39 442.476L1235.19 441.724L1235.2 442.124ZM832.135 657.144C832.135 658.322 833.09 659.277 834.268 659.277C835.446 659.277 836.401 658.322 836.401 657.144C836.401 655.965 835.446 655.01 834.268 655.01C833.09 655.01 832.135 655.965 832.135 657.144ZM823.258 460.996L1235.22 442.523L1235.19 441.724L823.222 460.196L823.258 460.996ZM1235.02 441.771L834.079 656.791L834.457 657.496L1235.39 442.476L1235.02 441.771Z" fill="url(#paint20_linear_414_1555)"/>
<path d="M1623.77 552.959C1623.77 554.137 1624.72 555.092 1625.9 555.092C1627.08 555.092 1628.03 554.137 1628.03 552.959C1628.03 551.78 1627.08 550.825 1625.9 550.825C1624.72 550.825 1623.77 551.78 1623.77 552.959ZM1460.48 458.379L1460.68 458.032L1460.56 457.964L1460.43 457.983L1460.48 458.379ZM1367.54 471.68L1367.48 471.284L1367.07 471.342L1367.14 471.75L1367.54 471.68ZM1381.16 560.348C1381.16 561.526 1382.11 562.481 1383.29 562.481C1384.47 562.481 1385.42 561.526 1385.42 560.348C1385.42 559.169 1384.47 558.214 1383.29 558.214C1382.11 558.214 1381.16 559.169 1381.16 560.348ZM1626.1 552.611L1460.68 458.032L1460.29 458.727L1625.7 553.306L1626.1 552.611ZM1460.43 457.983L1367.48 471.284L1367.59 472.076L1460.54 458.775L1460.43 457.983ZM1367.14 471.75L1382.9 560.418L1383.68 560.278L1367.93 471.61L1367.14 471.75Z" fill="url(#paint21_linear_414_1555)"/>
<path d="M-4 27.084C-4 29.2931 -2.20914 31.084 0 31.084C2.20914 31.084 4 29.2931 4 27.084C4 24.8748 2.20914 23.084 0 23.084C-2.20914 23.084 -4 24.8748 -4 27.084ZM18.2251 36.0504C18.2251 38.2595 20.0159 40.0504 22.2251 40.0504C24.4342 40.0504 26.2251 38.2595 26.2251 36.0504C26.2251 33.8412 24.4342 32.0504 22.2251 32.0504C20.0159 32.0504 18.2251 33.8412 18.2251 36.0504ZM-0.280602 27.7795L21.9445 36.7459L22.5057 35.3548L0.280602 26.3885L-0.280602 27.7795Z" fill="url(#paint22_linear_414_1555)"/>
<path d="M55.6571 9.15137C55.6571 11.3605 57.448 13.1514 59.6571 13.1514C61.8662 13.1514 63.6571 11.3605 63.6571 9.15137C63.6571 6.94223 61.8662 5.15137 59.6571 5.15137C57.448 5.15137 55.6571 6.94223 55.6571 9.15137ZM21.4931 37.4749L60.0945 9.76061L59.2197 8.54213L20.6183 36.2564L21.4931 37.4749Z" fill="url(#paint23_linear_414_1555)"/>
<path d="M296.289 192.414C296.289 194.623 298.079 196.414 300.289 196.414C302.498 196.414 304.289 194.623 304.289 192.414C304.289 190.205 302.498 188.414 300.289 188.414C298.079 188.414 296.289 190.205 296.289 192.414ZM164.644 68.6166L299.781 192.966L300.796 191.862L165.66 67.5128L164.644 68.6166Z" fill="url(#paint24_linear_414_1555)"/>
<path d="M157.425 63.7648C157.425 65.974 159.216 67.7648 161.425 67.7648C163.634 67.7648 165.425 65.974 165.425 63.7648C165.425 61.5557 163.634 59.7648 161.425 59.7648C159.216 59.7648 157.425 61.5557 157.425 63.7648ZM59.3026 9.81222L161.07 64.4257L161.779 63.104L60.0119 8.49051L59.3026 9.81222Z" fill="url(#paint25_linear_414_1555)"/>
<path d="M440.502 55.6133C440.502 57.8224 442.292 59.6133 444.502 59.6133C446.711 59.6133 448.502 57.8224 448.502 55.6133C448.502 53.4041 446.711 51.6133 444.502 51.6133C442.292 51.6133 440.502 53.4041 440.502 55.6133ZM301.139 192.284L445.017 56.1581L443.986 55.0685L300.108 191.195L301.139 192.284Z" fill="url(#paint26_linear_414_1555)"/>
<path d="M503.667 136.311C503.667 138.52 505.458 140.311 507.667 140.311C509.876 140.311 511.667 138.52 511.667 136.311C511.667 134.102 509.876 132.311 507.667 132.311C505.458 132.311 503.667 134.102 503.667 136.311ZM443.91 56.0756L507.076 136.773L508.258 135.848L445.092 55.151L443.91 56.0756Z" fill="url(#paint27_linear_414_1555)"/>
<path d="M503.667 136.311C503.667 138.52 505.458 140.311 507.667 140.311C509.876 140.311 511.667 138.52 511.667 136.311C511.667 134.102 509.876 132.311 507.667 132.311C505.458 132.311 503.667 134.102 503.667 136.311ZM321.188 244.723C321.188 246.932 322.978 248.723 325.188 248.723C327.397 248.723 329.188 246.932 329.188 244.723C329.188 242.514 327.397 240.723 325.188 240.723C322.978 240.723 321.188 242.514 321.188 244.723ZM507.284 135.666L324.804 244.078L325.571 245.368L508.05 136.956L507.284 135.666Z" fill="url(#paint28_linear_414_1555)"/>
<path d="M689.656 290.37C689.656 292.579 691.447 294.37 693.656 294.37C695.865 294.37 697.656 292.579 697.656 290.37C697.656 288.161 695.865 286.37 693.656 286.37C691.447 286.37 689.656 288.161 689.656 290.37ZM326.267 246.282L693.565 291.114L693.747 289.625L326.448 244.793L326.267 246.282Z" fill="url(#paint29_linear_414_1555)"/>
<path d="M236.967 200.706C236.967 202.915 238.758 204.706 240.967 204.706C243.176 204.706 244.967 202.915 244.967 200.706C244.967 198.497 243.176 196.706 240.967 196.706C238.758 196.706 236.967 198.497 236.967 200.706ZM240.761 199.985L58.2812 252.153L58.6935 253.595L241.173 201.427L240.761 199.985Z" fill="url(#paint30_linear_414_1555)"/>
<path d="M54.4878 253.689C54.4878 255.898 56.2786 257.689 58.4878 257.689C60.6969 257.689 62.4878 255.898 62.4878 253.689C62.4878 251.48 60.6969 249.689 58.4878 249.689C56.2786 249.689 54.4878 251.48 54.4878 253.689ZM32.2627 759.882C32.2627 762.091 34.0536 763.882 36.2627 763.882C38.4718 763.882 40.2627 762.091 40.2627 759.882C40.2627 757.673 38.4718 755.882 36.2627 755.882C34.0536 755.882 32.2627 757.673 32.2627 759.882ZM57.7385 253.656L35.5134 759.849L37.012 759.915L59.237 253.722L57.7385 253.656Z" fill="url(#paint31_linear_414_1555)"/>
<path d="M805.461 325.42C805.461 327.63 807.252 329.42 809.461 329.42C811.67 329.42 813.461 327.63 813.461 325.42C813.461 323.211 811.67 321.42 809.461 321.42C807.252 321.42 805.461 323.211 805.461 325.42ZM36.6306 761.351L809.829 326.074L809.093 324.767L35.8948 760.044L36.6306 761.351Z" fill="url(#paint32_linear_414_1555)" fill-opacity="0.5"/>
<path d="M805.46 326.235C805.46 328.444 807.251 330.235 809.46 330.235C811.669 330.235 813.46 328.444 813.46 326.235C813.46 324.026 811.669 322.235 809.46 322.235C807.251 322.235 805.46 324.026 805.46 326.235ZM809.173 325.542L572.885 423.358L573.459 424.743L809.747 326.928L809.173 325.542Z" fill="url(#paint33_linear_414_1555)" fill-opacity="0.5"/>
<path d="M569.172 424.865C569.172 427.075 570.963 428.865 573.172 428.865C575.382 428.865 577.172 427.075 577.172 424.865C577.172 422.656 575.382 420.865 573.172 420.865C570.963 420.865 569.172 422.656 569.172 424.865ZM405.409 725.647C405.409 727.856 407.2 729.647 409.409 729.647C411.618 729.647 413.409 727.856 413.409 725.647C413.409 723.438 411.618 721.647 409.409 721.647C407.2 721.647 405.409 723.438 405.409 725.647ZM572.514 424.507L408.75 725.288L410.067 726.006L573.831 425.224L572.514 424.507Z" fill="url(#paint34_linear_414_1555)"/>
<path d="M655.733 639.244C655.733 641.453 657.524 643.244 659.733 643.244C661.942 643.244 663.733 641.453 663.733 639.244C663.733 637.035 661.942 635.244 659.733 635.244C657.524 635.244 655.733 637.035 655.733 639.244ZM410.826 727.17L659.981 639.952L659.486 638.536L410.331 725.754L410.826 727.17Z" fill="url(#paint35_linear_414_1555)"/>
<path d="M976.242 768.849C976.242 771.058 978.033 772.849 980.242 772.849C982.451 772.849 984.242 771.058 984.242 768.849C984.242 766.64 982.451 764.849 980.242 764.849C978.033 764.849 976.242 766.64 976.242 768.849ZM659.452 639.939L979.961 769.544L980.523 768.153L660.014 638.548L659.452 639.939Z" fill="url(#paint36_linear_414_1555)"/>
<path d="M976.242 769.664C976.242 771.873 978.033 773.664 980.242 773.664C982.451 773.664 984.242 771.873 984.242 769.664C984.242 767.455 982.451 765.664 980.242 765.664C978.033 765.664 976.242 767.455 976.242 769.664ZM980.37 768.925L683.256 717.572L683 719.05L980.114 770.403L980.37 768.925Z" fill="url(#paint37_linear_414_1555)"/>
<path d="M679.128 718.311C679.128 720.52 680.919 722.311 683.128 722.311C685.338 722.311 687.128 720.52 687.128 718.311C687.128 716.102 685.338 714.311 683.128 714.311C680.919 714.311 679.128 716.102 679.128 718.311ZM1139.33 487.63L1139.67 488.299L1140.47 487.893L1139.92 487.176L1139.33 487.63ZM1016.5 326.235L1017.1 325.781L1016.92 325.542L1016.62 325.495L1016.5 326.235ZM683.467 718.98L1139.67 488.299L1138.99 486.961L682.79 717.641L683.467 718.98ZM1139.92 487.176L1017.1 325.781L1015.91 326.689L1138.73 488.084L1139.92 487.176ZM1016.62 325.495L242.255 201.595L242.018 203.077L1016.39 326.976L1016.62 325.495Z" fill="url(#paint38_linear_414_1555)" fill-opacity="0.5"/>
<path d="M703.693 190.924C703.693 193.133 705.484 194.924 707.693 194.924C709.902 194.924 711.693 193.133 711.693 190.924C711.693 188.715 709.902 186.924 707.693 186.924C705.484 186.924 703.693 188.715 703.693 190.924ZM703.693 261.84C703.693 264.049 705.484 265.84 707.693 265.84C709.902 265.84 711.693 264.049 711.693 261.84C711.693 259.631 709.902 257.84 707.693 257.84C705.484 257.84 703.693 259.631 703.693 261.84ZM706.943 190.924V261.84H708.443V190.924H706.943Z" fill="url(#paint39_linear_414_1555)"/>
<path d="M702.524 262.655C702.524 264.864 704.315 266.655 706.524 266.655C708.733 266.655 710.524 264.864 710.524 262.655C710.524 260.446 708.733 258.655 706.524 258.655C704.315 258.655 702.524 260.446 702.524 262.655ZM706.328 261.931L137.834 415.99L138.226 417.438L706.72 263.379L706.328 261.931Z" fill="url(#paint40_linear_414_1555)" fill-opacity="0.5"/>
<path d="M134.03 416.714C134.03 418.923 135.821 420.714 138.03 420.714C140.239 420.714 142.03 418.923 142.03 416.714C142.03 414.505 140.239 412.714 138.03 412.714C135.821 412.714 134.03 414.505 134.03 416.714ZM122.333 620.496C122.333 622.705 124.123 624.496 126.333 624.496C128.542 624.496 130.333 622.705 130.333 620.496C130.333 618.286 128.542 616.496 126.333 616.496C124.123 616.496 122.333 618.286 122.333 620.496ZM137.281 416.671L125.584 620.453L127.081 620.539L138.779 416.757L137.281 416.671Z" fill="url(#paint41_linear_414_1555)"/>
<path d="M389.033 511.269C389.033 513.478 390.824 515.269 393.033 515.269C395.242 515.269 397.033 513.478 397.033 511.269C397.033 509.06 395.242 507.269 393.033 507.269C390.824 507.269 389.033 509.06 389.033 511.269ZM126.619 622.004L393.319 511.962L392.747 510.576L126.046 620.618L126.619 622.004Z" fill="url(#paint42_linear_414_1555)"/>
<path d="M394.203 512.084L12.8677 605.009" stroke="url(#paint43_linear_414_1555)" stroke-width="1.5"/>
<path d="M8.86768 605.008C8.86768 607.217 10.6585 609.008 12.8677 609.008C15.0768 609.008 16.8677 607.217 16.8677 605.008C16.8677 602.799 15.0768 601.008 12.8677 601.008C10.6585 601.008 8.86768 602.799 8.86768 605.008ZM1231.25 120.008C1231.25 122.217 1233.04 124.008 1235.25 124.008C1237.46 124.008 1239.25 122.217 1239.25 120.008C1239.25 117.799 1237.46 116.008 1235.25 116.008C1233.04 116.008 1231.25 117.799 1231.25 120.008ZM13.1443 605.705L1235.52 120.705L1234.97 119.311L12.5911 604.311L13.1443 605.705Z" fill="url(#paint44_linear_414_1555)" fill-opacity="0.5"/>
<path d="M1234.08 121.639L1170.91 246.353L1060.96 252.874" stroke="url(#paint45_linear_414_1555)" stroke-width="1.5"/>
<path d="M1058.12 253.689C1058.12 255.898 1059.91 257.689 1062.12 257.689C1064.33 257.689 1066.12 255.898 1066.12 253.689C1066.12 251.48 1064.33 249.689 1062.12 249.689C1059.91 249.689 1058.12 251.48 1058.12 253.689ZM1062.05 252.942L694.754 287.993L694.896 289.486L1062.19 254.436L1062.05 252.942Z" fill="url(#paint46_linear_414_1555)"/>
<path d="M391.374 410.193C391.374 412.403 393.164 414.193 395.374 414.193C397.583 414.193 399.374 412.403 399.374 410.193C399.374 407.984 397.583 406.193 395.374 406.193C393.164 406.193 391.374 407.984 391.374 410.193ZM395.806 410.807L706.956 191.538L706.092 190.311L394.942 409.58L395.806 410.807Z" fill="url(#paint47_linear_414_1555)" fill-opacity="0.5"/>
<path d="M999.638 734.613C999.638 736.822 1001.43 738.613 1003.64 738.613C1005.85 738.613 1007.64 736.822 1007.64 734.613C1007.64 732.404 1005.85 730.613 1003.64 730.613C1001.43 730.613 999.638 732.404 999.638 734.613ZM399.699 414.116L1003.29 735.275L1003.99 733.951L400.404 412.792L399.699 414.116Z" fill="url(#paint48_linear_414_1555)"/>
<path d="M1262.83 706.899C1262.83 709.109 1264.62 710.899 1266.83 710.899C1269.04 710.899 1270.83 709.109 1270.83 706.899C1270.83 704.69 1269.04 702.899 1266.83 702.899C1264.62 702.899 1262.83 704.69 1262.83 706.899ZM1003.71 734.545L1266.9 707.646L1266.75 706.153L1003.56 733.052L1003.71 734.545Z" fill="url(#paint49_linear_414_1555)"/>
<path d="M1082.69 750.101C1082.69 752.31 1084.48 754.101 1086.69 754.101C1088.9 754.101 1090.69 752.31 1090.69 750.101C1090.69 747.892 1088.9 746.101 1086.69 746.101C1084.48 746.101 1082.69 747.892 1082.69 750.101ZM1261.98 707.8L1086.52 749.371L1086.86 750.831L1262.32 709.259L1261.98 707.8Z" fill="url(#paint50_linear_414_1555)"/>
<path d="M1637.15 358.025C1637.15 360.235 1638.94 362.025 1641.15 362.025C1643.35 362.025 1645.15 360.235 1645.15 358.025C1645.15 355.816 1643.35 354.025 1641.15 354.025C1638.94 354.025 1637.15 355.816 1637.15 358.025ZM1085.95 752.343L1641.58 358.637L1640.71 357.413L1085.08 751.119L1085.95 752.343Z" fill="url(#paint51_linear_414_1555)"/>
<path d="M1639.98 358.84L1587.34 615.605" stroke="url(#paint52_linear_414_1555)" stroke-width="1.5"/>
<path d="M1582.17 615.605C1582.17 617.814 1583.96 619.605 1586.17 619.605C1588.38 619.605 1590.17 617.814 1590.17 615.605C1590.17 613.396 1588.38 611.605 1586.17 611.605C1583.96 611.605 1582.17 613.396 1582.17 615.605ZM1549.42 777C1549.42 779.209 1551.21 781 1553.42 781C1555.62 781 1557.42 779.209 1557.42 777C1557.42 774.791 1555.62 773 1553.42 773C1551.21 773 1549.42 774.791 1549.42 777ZM1585.43 615.456L1552.68 776.851L1554.15 777.149L1586.9 615.754L1585.43 615.456Z" fill="url(#paint53_linear_414_1555)"/>
<path d="M1632.47 604.193C1632.47 606.402 1634.26 608.193 1636.47 608.193C1638.68 608.193 1640.47 606.402 1640.47 604.193C1640.47 601.984 1638.68 600.193 1636.47 600.193C1634.26 600.193 1632.47 601.984 1632.47 604.193ZM1632.47 654.731C1632.47 656.94 1634.26 658.731 1636.47 658.731C1638.68 658.731 1640.47 656.94 1640.47 654.731C1640.47 652.522 1638.68 650.731 1636.47 650.731C1634.26 650.731 1632.47 652.522 1632.47 654.731ZM1635.72 604.193V654.731H1637.22V604.193H1635.72Z" fill="url(#paint54_linear_414_1555)"/>
<path d="M1631.3 655.546C1631.3 657.755 1633.09 659.546 1635.3 659.546C1637.51 659.546 1639.3 657.755 1639.3 655.546C1639.3 653.337 1637.51 651.546 1635.3 651.546C1633.09 651.546 1631.3 653.337 1631.3 655.546ZM1635.2 654.803L1269.07 704.526L1269.27 706.012L1635.4 656.289L1635.2 654.803Z" fill="url(#paint55_linear_414_1555)"/>
<path d="M1611.9 1L1545.23 260.21" stroke="url(#paint56_linear_414_1555)" stroke-width="1.5"/>
<path d="M1542.4 261.025C1542.4 263.234 1544.19 265.025 1546.4 265.025C1548.61 265.025 1550.4 263.234 1550.4 261.025C1550.4 258.816 1548.61 257.025 1546.4 257.025C1544.19 257.025 1542.4 258.816 1542.4 261.025ZM1411.39 287.924C1411.39 290.133 1413.18 291.924 1415.39 291.924C1417.59 291.924 1419.39 290.133 1419.39 287.924C1419.39 285.715 1417.59 283.924 1415.39 283.924C1413.18 283.924 1411.39 285.715 1411.39 287.924ZM1546.25 260.29L1415.23 287.19L1415.54 288.659L1546.55 261.76L1546.25 260.29Z" fill="url(#paint57_linear_414_1555)"/>
<path d="M1703.82 208.042C1703.82 210.251 1705.61 212.042 1707.82 212.042C1710.03 212.042 1711.82 210.251 1711.82 208.042C1711.82 205.833 1710.03 204.042 1707.82 204.042C1705.61 204.042 1703.82 205.833 1703.82 208.042ZM961.036 78.4373C961.036 80.6464 962.827 82.4373 965.036 82.4373C967.245 82.4373 969.036 80.6464 969.036 78.4373C969.036 76.2281 967.245 74.4373 965.036 74.4373C962.827 74.4373 961.036 76.2281 961.036 78.4373ZM1707.95 207.303L965.165 77.6984L964.907 79.1761L1707.69 208.781L1707.95 207.303Z" fill="url(#paint58_linear_414_1555)"/>
<path d="M1035.07 380.436C1034.93 382.64 1036.6 384.531 1038.8 384.658C1041.01 384.786 1042.91 383.103 1043.06 380.898C1043.2 378.694 1041.53 376.803 1039.33 376.676C1037.12 376.548 1035.22 378.231 1035.07 380.436ZM964.848 79.4247L1038.34 380.85L1039.79 380.484L966.306 79.0597L964.848 79.4247Z" fill="url(#paint59_linear_414_1555)"/>
<path d="M1701.48 207.227C1701.48 209.436 1703.27 211.227 1705.48 211.227C1707.69 211.227 1709.48 209.436 1709.48 207.227C1709.48 205.018 1707.69 203.227 1705.48 203.227C1703.27 203.227 1701.48 205.018 1701.48 207.227ZM1457 329.496C1457 331.705 1458.8 333.496 1461 333.496C1463.21 333.496 1465 331.705 1465 329.496C1465 327.287 1463.21 325.496 1461 325.496C1458.8 325.496 1457 327.287 1457 329.496ZM1705.15 206.556L1460.67 328.825L1461.34 330.167L1705.82 207.898L1705.15 206.556Z" fill="url(#paint60_linear_414_1555)"/>
<path d="M1607.9 1.81494C1607.9 4.02408 1609.69 5.81494 1611.9 5.81494C1614.11 5.81494 1615.9 4.02408 1615.9 1.81494C1615.9 -0.394198 1614.11 -2.18506 1611.9 -2.18506C1609.69 -2.18506 1607.9 -0.394198 1607.9 1.81494ZM1362.26 277.328C1362.26 279.537 1364.05 281.328 1366.26 281.328C1368.47 281.328 1370.26 279.537 1370.26 277.328C1370.26 275.118 1368.47 273.328 1366.26 273.328C1364.05 273.328 1362.26 275.118 1362.26 277.328ZM1611.34 1.31582L1365.7 276.828L1366.82 277.827L1612.46 2.31406L1611.34 1.31582Z" fill="url(#paint61_linear_414_1555)"/>
<path d="M1546.64 354.126C1546.64 484.666 1440.82 590.491 1310.27 590.491C1179.73 590.491 1073.91 484.666 1073.91 354.126C1073.91 223.585 1179.73 117.76 1310.27 117.76C1440.82 117.76 1546.64 223.585 1546.64 354.126ZM1123.15 354.126C1123.15 457.47 1206.93 541.247 1310.27 541.247C1413.62 541.247 1497.4 457.47 1497.4 354.126C1497.4 250.781 1413.62 167.004 1310.27 167.004C1206.93 167.004 1123.15 250.781 1123.15 354.126Z" fill="url(#paint62_radial_414_1555)" fill-opacity="0.9"/>
<mask id="path-64-inside-1_414_1555" fill="white">
<path fill-rule="evenodd" clip-rule="evenodd" d="M1187.12 130.624C1188.04 134.268 1189.09 138.118 1189.45 139.18C1189.95 140.633 1190.41 141.285 1191.31 141.811C1191.96 142.195 1194.88 143.506 1197.78 144.724C1200.68 145.942 1203.55 147.302 1204.15 147.747C1205.15 148.482 1205.38 148.516 1206.83 148.132C1207.7 147.899 1209.71 147.06 1211.29 146.266C1212.88 145.472 1215.89 143.789 1217.99 142.526C1220.09 141.263 1222.09 140.122 1222.44 139.99C1222.9 139.811 1223.88 140.566 1226.27 142.945C1228.04 144.703 1229.48 146.369 1229.48 146.647C1229.48 146.926 1228.34 149.018 1226.93 151.295C1225.53 153.572 1223.76 156.671 1223.01 158.18C1222.25 159.691 1221.42 161.62 1221.17 162.468C1220.75 163.897 1220.78 164.091 1221.56 165.144C1222.02 165.768 1223.39 168.655 1224.61 171.558C1225.83 174.461 1227.14 177.376 1227.52 178.034C1228.05 178.934 1228.7 179.393 1230.15 179.887C1231.22 180.249 1235.07 181.301 1238.71 182.225L1245.33 183.907V186.684C1245.33 188.211 1245.23 190.444 1245.1 191.645L1244.87 193.83L1240.15 194.987C1237.55 195.623 1233.68 196.7 1231.54 197.381L1227.65 198.619L1226.78 200.487C1226.3 201.515 1225.16 204.22 1224.25 206.499C1223.33 208.777 1222.19 211.66 1221.71 212.904L1220.84 215.167L1222.5 218.488C1223.41 220.315 1225.38 223.809 1226.87 226.252L1229.59 230.695L1226.74 233.574C1225.18 235.157 1223.49 236.661 1223 236.917C1222.5 237.173 1221.86 237.298 1221.56 237.195C1221.26 237.092 1220.37 236.599 1219.58 236.1C1218.78 235.601 1215.64 233.749 1212.59 231.984L1207.04 228.776L1203.53 230.43C1201.59 231.34 1198.45 232.648 1196.55 233.337C1194.65 234.026 1192.47 234.906 1191.71 235.292C1190.61 235.856 1190.19 236.379 1189.59 237.95C1189.18 239.026 1188.07 242.927 1187.14 246.619L1185.43 253.332H1180.48H1175.53L1174.92 250.54C1174.59 249.005 1173.76 245.587 1173.08 242.947C1172.4 240.306 1171.52 237.533 1171.14 236.784C1170.73 235.97 1170.04 235.275 1169.44 235.056C1168.88 234.854 1166.81 234.074 1164.83 233.321C1162.85 232.569 1159.62 231.169 1157.65 230.212C1154.46 228.658 1154 228.524 1153.33 228.957C1152.92 229.224 1150.8 230.501 1148.62 231.794C1146.44 233.088 1143.36 234.897 1141.78 235.813C1140.2 236.731 1138.69 237.481 1138.43 237.481C1138.17 237.481 1136.58 236.114 1134.88 234.443C1132.26 231.857 1131.84 231.283 1132.07 230.582C1132.21 230.13 1133.87 227.079 1135.76 223.803C1137.65 220.527 1139.52 217.26 1139.93 216.543L1140.66 215.238L1138.38 210.106C1137.13 207.283 1135.63 203.656 1135.06 202.046C1134.5 200.437 1134.03 199.081 1134.03 199.034C1134.03 198.987 1133.39 198.623 1132.62 198.227C1131.84 197.83 1129.04 196.946 1126.4 196.263C1123.76 195.579 1120.34 194.749 1118.8 194.416L1116 193.813L1116.1 188.904L1116.2 183.994L1123.04 182.182C1126.81 181.185 1130.66 180.073 1131.61 179.711C1132.97 179.191 1133.49 178.744 1134.07 177.589C1134.49 176.784 1135.38 174.57 1136.07 172.669C1136.76 170.768 1138.05 167.653 1138.95 165.747L1140.58 162.281L1137.8 157.461C1136.28 154.809 1134.4 151.631 1133.63 150.398C1132.86 149.164 1132.23 147.722 1132.23 147.193C1132.23 146.468 1133.01 145.434 1135.43 142.981L1138.63 139.73L1143.08 142.453C1145.53 143.951 1149.03 145.923 1150.86 146.836L1154.18 148.495L1155.9 147.914C1156.85 147.594 1158.27 147.003 1159.06 146.6C1159.86 146.197 1162.35 145.167 1164.6 144.311C1166.86 143.455 1169.07 142.512 1169.52 142.217C1169.97 141.921 1170.76 140.822 1171.26 139.775C1171.77 138.727 1172.86 135.157 1173.68 131.841C1174.78 127.426 1175.4 125.571 1176.02 124.906C1176.83 124.036 1177.03 124 1181.15 124H1185.43L1187.12 130.624ZM1192.74 166.043C1190.86 165.104 1188.04 164.014 1186.47 163.621C1184.53 163.134 1182.47 162.914 1179.99 162.927C1177.65 162.94 1175.43 163.188 1173.78 163.621C1172.37 163.992 1170.42 164.696 1169.45 165.186C1168.49 165.676 1166.69 166.836 1165.45 167.763C1164.22 168.691 1162.14 170.694 1160.84 172.213C1159.5 173.781 1157.82 176.29 1156.97 178.012L1155.46 181.048V188.279C1155.46 194.401 1155.56 195.815 1156.14 197.492C1156.51 198.582 1157.31 200.446 1157.93 201.635C1158.64 203.006 1160.24 204.992 1162.3 207.065C1164.87 209.65 1166.16 210.641 1168.48 211.8C1170.29 212.705 1172.4 213.431 1173.97 213.697C1175.48 213.951 1178.9 214.077 1182.38 214.005L1188.24 213.884L1191.1 212.518C1192.67 211.767 1195.07 210.255 1196.43 209.158C1197.78 208.062 1199.77 206.103 1200.84 204.806C1201.91 203.509 1203.35 201.373 1204.04 200.06C1204.77 198.658 1205.55 196.411 1205.91 194.617C1206.38 192.309 1206.48 190.592 1206.32 187.592C1206.21 185.409 1205.84 182.731 1205.52 181.641C1205.19 180.551 1204.17 178.201 1203.26 176.417C1202 173.969 1200.93 172.511 1198.88 170.463C1196.74 168.328 1195.44 167.388 1192.74 166.043Z"/>
</mask>
<path fill-rule="evenodd" clip-rule="evenodd" d="M1187.12 130.624C1188.04 134.268 1189.09 138.118 1189.45 139.18C1189.95 140.633 1190.41 141.285 1191.31 141.811C1191.96 142.195 1194.88 143.506 1197.78 144.724C1200.68 145.942 1203.55 147.302 1204.15 147.747C1205.15 148.482 1205.38 148.516 1206.83 148.132C1207.7 147.899 1209.71 147.06 1211.29 146.266C1212.88 145.472 1215.89 143.789 1217.99 142.526C1220.09 141.263 1222.09 140.122 1222.44 139.99C1222.9 139.811 1223.88 140.566 1226.27 142.945C1228.04 144.703 1229.48 146.369 1229.48 146.647C1229.48 146.926 1228.34 149.018 1226.93 151.295C1225.53 153.572 1223.76 156.671 1223.01 158.18C1222.25 159.691 1221.42 161.62 1221.17 162.468C1220.75 163.897 1220.78 164.091 1221.56 165.144C1222.02 165.768 1223.39 168.655 1224.61 171.558C1225.83 174.461 1227.14 177.376 1227.52 178.034C1228.05 178.934 1228.7 179.393 1230.15 179.887C1231.22 180.249 1235.07 181.301 1238.71 182.225L1245.33 183.907V186.684C1245.33 188.211 1245.23 190.444 1245.1 191.645L1244.87 193.83L1240.15 194.987C1237.55 195.623 1233.68 196.7 1231.54 197.381L1227.65 198.619L1226.78 200.487C1226.3 201.515 1225.16 204.22 1224.25 206.499C1223.33 208.777 1222.19 211.66 1221.71 212.904L1220.84 215.167L1222.5 218.488C1223.41 220.315 1225.38 223.809 1226.87 226.252L1229.59 230.695L1226.74 233.574C1225.18 235.157 1223.49 236.661 1223 236.917C1222.5 237.173 1221.86 237.298 1221.56 237.195C1221.26 237.092 1220.37 236.599 1219.58 236.1C1218.78 235.601 1215.64 233.749 1212.59 231.984L1207.04 228.776L1203.53 230.43C1201.59 231.34 1198.45 232.648 1196.55 233.337C1194.65 234.026 1192.47 234.906 1191.71 235.292C1190.61 235.856 1190.19 236.379 1189.59 237.95C1189.18 239.026 1188.07 242.927 1187.14 246.619L1185.43 253.332H1180.48H1175.53L1174.92 250.54C1174.59 249.005 1173.76 245.587 1173.08 242.947C1172.4 240.306 1171.52 237.533 1171.14 236.784C1170.73 235.97 1170.04 235.275 1169.44 235.056C1168.88 234.854 1166.81 234.074 1164.83 233.321C1162.85 232.569 1159.62 231.169 1157.65 230.212C1154.46 228.658 1154 228.524 1153.33 228.957C1152.92 229.224 1150.8 230.501 1148.62 231.794C1146.44 233.088 1143.36 234.897 1141.78 235.813C1140.2 236.731 1138.69 237.481 1138.43 237.481C1138.17 237.481 1136.58 236.114 1134.88 234.443C1132.26 231.857 1131.84 231.283 1132.07 230.582C1132.21 230.13 1133.87 227.079 1135.76 223.803C1137.65 220.527 1139.52 217.26 1139.93 216.543L1140.66 215.238L1138.38 210.106C1137.13 207.283 1135.63 203.656 1135.06 202.046C1134.5 200.437 1134.03 199.081 1134.03 199.034C1134.03 198.987 1133.39 198.623 1132.62 198.227C1131.84 197.83 1129.04 196.946 1126.4 196.263C1123.76 195.579 1120.34 194.749 1118.8 194.416L1116 193.813L1116.1 188.904L1116.2 183.994L1123.04 182.182C1126.81 181.185 1130.66 180.073 1131.61 179.711C1132.97 179.191 1133.49 178.744 1134.07 177.589C1134.49 176.784 1135.38 174.57 1136.07 172.669C1136.76 170.768 1138.05 167.653 1138.95 165.747L1140.58 162.281L1137.8 157.461C1136.28 154.809 1134.4 151.631 1133.63 150.398C1132.86 149.164 1132.23 147.722 1132.23 147.193C1132.23 146.468 1133.01 145.434 1135.43 142.981L1138.63 139.73L1143.08 142.453C1145.53 143.951 1149.03 145.923 1150.86 146.836L1154.18 148.495L1155.9 147.914C1156.85 147.594 1158.27 147.003 1159.06 146.6C1159.86 146.197 1162.35 145.167 1164.6 144.311C1166.86 143.455 1169.07 142.512 1169.52 142.217C1169.97 141.921 1170.76 140.822 1171.26 139.775C1171.77 138.727 1172.86 135.157 1173.68 131.841C1174.78 127.426 1175.4 125.571 1176.02 124.906C1176.83 124.036 1177.03 124 1181.15 124H1185.43L1187.12 130.624ZM1192.74 166.043C1190.86 165.104 1188.04 164.014 1186.47 163.621C1184.53 163.134 1182.47 162.914 1179.99 162.927C1177.65 162.94 1175.43 163.188 1173.78 163.621C1172.37 163.992 1170.42 164.696 1169.45 165.186C1168.49 165.676 1166.69 166.836 1165.45 167.763C1164.22 168.691 1162.14 170.694 1160.84 172.213C1159.5 173.781 1157.82 176.29 1156.97 178.012L1155.46 181.048V188.279C1155.46 194.401 1155.56 195.815 1156.14 197.492C1156.51 198.582 1157.31 200.446 1157.93 201.635C1158.64 203.006 1160.24 204.992 1162.3 207.065C1164.87 209.65 1166.16 210.641 1168.48 211.8C1170.29 212.705 1172.4 213.431 1173.97 213.697C1175.48 213.951 1178.9 214.077 1182.38 214.005L1188.24 213.884L1191.1 212.518C1192.67 211.767 1195.07 210.255 1196.43 209.158C1197.78 208.062 1199.77 206.103 1200.84 204.806C1201.91 203.509 1203.35 201.373 1204.04 200.06C1204.77 198.658 1205.55 196.411 1205.91 194.617C1206.38 192.309 1206.48 190.592 1206.32 187.592C1206.21 185.409 1205.84 182.731 1205.52 181.641C1205.19 180.551 1204.17 178.201 1203.26 176.417C1202 173.969 1200.93 172.511 1198.88 170.463C1196.74 168.328 1195.44 167.388 1192.74 166.043Z" fill="#B3C583" stroke="#B3C583" stroke-width="2" mask="url(#path-64-inside-1_414_1555)"/>
<path d="M1497.58 354.571C1497.58 458.265 1413.52 542.326 1309.83 542.326C1206.13 542.326 1122.07 458.265 1122.07 354.571C1122.07 250.878 1206.13 166.817 1309.83 166.817C1413.52 166.817 1497.58 250.878 1497.58 354.571ZM1171.77 354.571C1171.77 430.82 1233.58 492.631 1309.83 492.631C1386.08 492.631 1447.89 430.82 1447.89 354.571C1447.89 278.323 1386.08 216.512 1309.83 216.512C1233.58 216.512 1171.77 278.323 1171.77 354.571Z" fill="#B3C583" fill-opacity="0.8"/>
<path fill-rule="evenodd" clip-rule="evenodd" d="M1191.23 458.681C1192.13 462.224 1193.15 465.968 1193.5 467.001C1193.98 468.413 1194.43 469.048 1195.3 469.559C1195.94 469.933 1198.78 471.208 1201.6 472.392C1204.42 473.576 1207.21 474.899 1207.79 475.331C1208.76 476.046 1208.99 476.079 1210.4 475.705C1211.24 475.479 1213.2 474.663 1214.74 473.891C1216.28 473.119 1219.21 471.483 1221.25 470.254C1223.3 469.026 1225.24 467.916 1225.58 467.788C1226.03 467.614 1226.98 468.348 1229.31 470.662C1231.02 472.371 1232.43 473.991 1232.43 474.262C1232.43 474.533 1231.31 476.567 1229.95 478.781C1228.58 480.995 1226.87 484.009 1226.13 485.477C1225.39 486.945 1224.59 488.821 1224.35 489.646C1223.94 491.036 1223.96 491.225 1224.72 492.248C1225.17 492.855 1226.5 495.662 1227.69 498.485C1228.87 501.309 1230.15 504.142 1230.52 504.782C1231.03 505.658 1231.67 506.104 1233.08 506.585C1234.11 506.936 1237.86 507.959 1241.4 508.858L1247.84 510.493V513.194C1247.84 514.679 1247.74 516.85 1247.62 518.018L1247.39 520.143L1242.8 521.268C1240.27 521.886 1236.51 522.934 1234.43 523.596L1230.65 524.8L1229.8 526.617C1229.33 527.616 1228.23 530.246 1227.33 532.462C1226.44 534.678 1225.33 537.481 1224.87 538.691L1224.02 540.891L1225.64 544.121C1226.52 545.897 1228.44 549.295 1229.89 551.671L1232.53 555.991L1229.76 558.79C1228.24 560.33 1226.6 561.793 1226.12 562.041C1225.64 562.29 1225.01 562.411 1224.72 562.311C1224.43 562.211 1223.57 561.732 1222.79 561.247C1222.02 560.762 1218.97 558.961 1216 557.245L1210.61 554.125L1207.19 555.733C1205.31 556.618 1202.25 557.89 1200.4 558.56C1198.55 559.23 1196.44 560.086 1195.7 560.461C1194.63 561.01 1194.22 561.518 1193.63 563.046C1193.23 564.092 1192.16 567.886 1191.25 571.476L1189.59 578.003H1184.78H1179.96L1179.37 575.288C1179.05 573.795 1178.24 570.473 1177.58 567.905C1176.92 565.337 1176.07 562.64 1175.7 561.912C1175.29 561.121 1174.63 560.444 1174.04 560.231C1173.5 560.036 1171.48 559.276 1169.55 558.545C1167.63 557.813 1164.49 556.452 1162.58 555.521C1159.48 554.01 1159.02 553.879 1158.37 554.301C1157.97 554.56 1155.91 555.802 1153.79 557.06C1151.67 558.318 1148.68 560.077 1147.14 560.968C1145.61 561.86 1144.14 562.589 1143.89 562.589C1143.64 562.589 1142.08 561.26 1140.44 559.636C1137.89 557.121 1137.48 556.563 1137.7 555.882C1137.84 555.441 1139.45 552.475 1141.29 549.289C1143.13 546.103 1144.95 542.926 1145.34 542.229L1146.05 540.961L1143.84 535.97C1142.62 533.225 1141.17 529.698 1140.61 528.132C1140.06 526.567 1139.61 525.249 1139.61 525.203C1139.61 525.157 1138.99 524.804 1138.23 524.418C1137.48 524.033 1134.76 523.173 1132.19 522.509C1129.62 521.844 1126.3 521.036 1124.8 520.713L1122.07 520.126L1122.17 515.353L1122.27 510.578L1128.92 508.816C1132.58 507.847 1136.33 506.765 1137.25 506.413C1138.57 505.908 1139.08 505.473 1139.65 504.35C1140.05 503.567 1140.92 501.414 1141.59 499.566C1142.26 497.717 1143.52 494.688 1144.39 492.834L1145.97 489.464L1143.28 484.777C1141.79 482.199 1139.97 479.108 1139.22 477.909C1138.47 476.709 1137.86 475.307 1137.86 474.793C1137.86 474.087 1138.62 473.082 1140.97 470.696L1144.08 467.535L1148.41 470.184C1150.79 471.64 1154.2 473.558 1155.97 474.445L1159.2 476.059L1160.88 475.494C1161.8 475.183 1163.18 474.608 1163.95 474.216C1164.72 473.824 1167.14 472.822 1169.34 471.99C1171.53 471.157 1173.68 470.241 1174.12 469.953C1174.56 469.666 1175.32 468.597 1175.81 467.579C1176.31 466.56 1177.36 463.089 1178.16 459.864C1179.23 455.571 1179.84 453.767 1180.44 453.121C1181.22 452.274 1181.42 452.239 1185.42 452.239H1189.59L1191.23 458.681ZM1196.7 493.123C1194.87 492.209 1192.13 491.149 1190.6 490.768C1188.71 490.294 1186.71 490.08 1184.3 490.093C1182.03 490.105 1179.87 490.346 1178.26 490.768C1176.89 491.128 1174.99 491.813 1174.05 492.289C1173.11 492.765 1171.36 493.893 1170.16 494.795C1168.96 495.698 1166.95 497.645 1165.68 499.123C1164.37 500.647 1162.74 503.087 1161.91 504.761L1160.45 507.714V514.745C1160.45 520.698 1160.55 522.073 1161.1 523.704C1161.46 524.764 1162.25 526.577 1162.85 527.733C1163.54 529.066 1165.09 530.997 1167.1 533.013C1169.59 535.527 1170.85 536.49 1173.11 537.617C1174.87 538.497 1176.92 539.204 1178.44 539.461C1179.91 539.709 1183.24 539.831 1186.62 539.761L1192.32 539.644L1195.1 538.316C1196.63 537.585 1198.96 536.115 1200.28 535.048C1201.6 533.982 1203.53 532.077 1204.57 530.816C1205.61 529.555 1207.01 527.478 1207.68 526.201C1208.4 524.838 1209.15 522.652 1209.5 520.909C1209.96 518.663 1210.06 516.994 1209.9 514.077C1209.79 511.954 1209.44 509.35 1209.12 508.29C1208.8 507.23 1207.81 504.945 1206.92 503.211C1205.7 500.829 1204.66 499.412 1202.67 497.42C1200.59 495.344 1199.32 494.43 1196.7 493.123Z" fill="#D9D8C5"/>
<mask id="path-67-inside-2_414_1555" fill="white">
<path fill-rule="evenodd" clip-rule="evenodd" d="M1410.17 446.061C1410.55 447.569 1410.98 449.162 1411.13 449.601C1411.34 450.202 1411.53 450.472 1411.9 450.69C1412.17 450.849 1413.38 451.391 1414.58 451.895C1415.78 452.399 1416.97 452.962 1417.21 453.146C1417.63 453.45 1417.72 453.464 1418.32 453.305C1418.68 453.209 1419.51 452.862 1420.17 452.533C1420.83 452.205 1422.07 451.508 1422.94 450.986C1423.81 450.463 1424.64 449.991 1424.78 449.936C1424.97 449.862 1425.38 450.175 1426.37 451.159C1427.1 451.887 1427.7 452.576 1427.7 452.691C1427.7 452.807 1427.22 453.672 1426.64 454.614C1426.06 455.556 1425.33 456.839 1425.02 457.463C1424.7 458.088 1424.36 458.887 1424.26 459.238C1424.08 459.829 1424.1 459.909 1424.42 460.345C1424.61 460.603 1425.18 461.798 1425.68 462.999C1426.18 464.2 1426.73 465.406 1426.89 465.679C1427.1 466.051 1427.37 466.241 1427.97 466.446C1428.41 466.595 1430.01 467.03 1431.51 467.413L1434.25 468.109V469.258C1434.25 469.89 1434.21 470.814 1434.16 471.311L1434.07 472.215L1432.11 472.694C1431.04 472.957 1429.43 473.403 1428.55 473.684L1426.94 474.197L1426.58 474.97C1426.38 475.395 1425.91 476.514 1425.53 477.457C1425.15 478.4 1424.68 479.593 1424.48 480.108L1424.12 481.044L1424.81 482.418C1425.18 483.174 1426 484.62 1426.62 485.631L1427.74 487.47L1426.56 488.661C1425.92 489.316 1425.22 489.938 1425.01 490.044C1424.81 490.15 1424.54 490.202 1424.42 490.159C1424.29 490.116 1423.93 489.912 1423.6 489.706C1423.27 489.5 1421.97 488.733 1420.71 488.003L1418.41 486.675L1416.96 487.36C1416.16 487.736 1414.86 488.278 1414.07 488.563C1413.28 488.848 1412.38 489.212 1412.07 489.372C1411.61 489.605 1411.44 489.822 1411.19 490.472C1411.02 490.917 1410.56 492.531 1410.17 494.059L1409.47 496.836H1407.42H1405.37L1405.12 495.681C1404.98 495.046 1404.64 493.632 1404.36 492.539C1404.07 491.447 1403.71 490.299 1403.56 489.989C1403.38 489.652 1403.1 489.365 1402.85 489.274C1402.62 489.191 1401.76 488.868 1400.94 488.556C1400.12 488.245 1398.79 487.666 1397.97 487.27C1396.65 486.627 1396.46 486.571 1396.19 486.75C1396.01 486.861 1395.14 487.389 1394.24 487.924C1393.33 488.46 1392.06 489.208 1391.41 489.587C1390.75 489.967 1390.13 490.277 1390.02 490.277C1389.91 490.277 1389.25 489.712 1388.55 489.02C1387.47 487.95 1387.29 487.713 1387.39 487.423C1387.45 487.236 1388.13 485.973 1388.92 484.618C1389.7 483.262 1390.47 481.91 1390.64 481.613L1390.94 481.074L1390 478.95C1389.48 477.782 1388.86 476.281 1388.63 475.615C1388.39 474.949 1388.2 474.388 1388.2 474.368C1388.2 474.349 1387.94 474.198 1387.61 474.034C1387.29 473.87 1386.14 473.505 1385.04 473.222C1383.95 472.939 1382.54 472.595 1381.9 472.458L1380.74 472.208L1380.78 470.177L1380.82 468.145L1383.65 467.395C1385.21 466.983 1386.81 466.522 1387.2 466.373C1387.76 466.157 1387.97 465.973 1388.22 465.495C1388.39 465.162 1388.76 464.245 1389.04 463.459C1389.33 462.672 1389.86 461.383 1390.23 460.594L1390.91 459.16L1389.76 457.166C1389.13 456.069 1388.35 454.753 1388.03 454.243C1387.71 453.732 1387.45 453.136 1387.45 452.917C1387.45 452.617 1387.78 452.189 1388.78 451.174L1390.1 449.829L1391.94 450.956C1392.96 451.576 1394.41 452.392 1395.16 452.769L1396.54 453.456L1397.25 453.215C1397.64 453.083 1398.23 452.838 1398.56 452.672C1398.89 452.505 1399.92 452.079 1400.85 451.724C1401.78 451.37 1402.7 450.98 1402.89 450.858C1403.07 450.736 1403.4 450.281 1403.61 449.847C1403.82 449.414 1404.27 447.937 1404.61 446.565C1405.06 444.737 1405.32 443.97 1405.57 443.695C1405.91 443.335 1405.99 443.32 1407.7 443.32H1409.47L1410.17 446.061ZM1412.49 460.717C1411.72 460.328 1410.55 459.877 1409.9 459.715C1409.09 459.513 1408.24 459.422 1407.22 459.428C1406.25 459.433 1405.33 459.536 1404.65 459.715C1404.06 459.868 1403.26 460.16 1402.86 460.362C1402.46 460.565 1401.71 461.045 1401.2 461.429C1400.69 461.813 1399.83 462.641 1399.29 463.27C1398.74 463.919 1398.04 464.957 1397.69 465.67L1397.07 466.926V469.918C1397.07 472.451 1397.11 473.036 1397.35 473.73C1397.5 474.181 1397.83 474.953 1398.09 475.445C1398.38 476.012 1399.04 476.834 1399.9 477.692C1400.96 478.761 1401.49 479.171 1402.46 479.651C1403.21 480.025 1404.07 480.326 1404.73 480.436C1405.35 480.541 1406.77 480.593 1408.21 480.563L1410.63 480.513L1411.81 479.948C1412.47 479.637 1413.46 479.012 1414.02 478.558C1414.58 478.104 1415.4 477.294 1415.84 476.757C1416.29 476.22 1416.88 475.336 1417.17 474.793C1417.47 474.213 1417.79 473.283 1417.94 472.541C1418.14 471.585 1418.18 470.875 1418.11 469.634C1418.06 468.73 1417.92 467.622 1417.78 467.171C1417.64 466.72 1417.22 465.748 1416.84 465.01C1416.32 463.996 1415.88 463.393 1415.03 462.546C1414.15 461.662 1413.61 461.274 1412.49 460.717Z"/>
</mask>
<path fill-rule="evenodd" clip-rule="evenodd" d="M1410.17 446.061C1410.55 447.569 1410.98 449.162 1411.13 449.601C1411.34 450.202 1411.53 450.472 1411.9 450.69C1412.17 450.849 1413.38 451.391 1414.58 451.895C1415.78 452.399 1416.97 452.962 1417.21 453.146C1417.63 453.45 1417.72 453.464 1418.32 453.305C1418.68 453.209 1419.51 452.862 1420.17 452.533C1420.83 452.205 1422.07 451.508 1422.94 450.986C1423.81 450.463 1424.64 449.991 1424.78 449.936C1424.97 449.862 1425.38 450.175 1426.37 451.159C1427.1 451.887 1427.7 452.576 1427.7 452.691C1427.7 452.807 1427.22 453.672 1426.64 454.614C1426.06 455.556 1425.33 456.839 1425.02 457.463C1424.7 458.088 1424.36 458.887 1424.26 459.238C1424.08 459.829 1424.1 459.909 1424.42 460.345C1424.61 460.603 1425.18 461.798 1425.68 462.999C1426.18 464.2 1426.73 465.406 1426.89 465.679C1427.1 466.051 1427.37 466.241 1427.97 466.446C1428.41 466.595 1430.01 467.03 1431.51 467.413L1434.25 468.109V469.258C1434.25 469.89 1434.21 470.814 1434.16 471.311L1434.07 472.215L1432.11 472.694C1431.04 472.957 1429.43 473.403 1428.55 473.684L1426.94 474.197L1426.58 474.97C1426.38 475.395 1425.91 476.514 1425.53 477.457C1425.15 478.4 1424.68 479.593 1424.48 480.108L1424.12 481.044L1424.81 482.418C1425.18 483.174 1426 484.62 1426.62 485.631L1427.74 487.47L1426.56 488.661C1425.92 489.316 1425.22 489.938 1425.01 490.044C1424.81 490.15 1424.54 490.202 1424.42 490.159C1424.29 490.116 1423.93 489.912 1423.6 489.706C1423.27 489.5 1421.97 488.733 1420.71 488.003L1418.41 486.675L1416.96 487.36C1416.16 487.736 1414.86 488.278 1414.07 488.563C1413.28 488.848 1412.38 489.212 1412.07 489.372C1411.61 489.605 1411.44 489.822 1411.19 490.472C1411.02 490.917 1410.56 492.531 1410.17 494.059L1409.47 496.836H1407.42H1405.37L1405.12 495.681C1404.98 495.046 1404.64 493.632 1404.36 492.539C1404.07 491.447 1403.71 490.299 1403.56 489.989C1403.38 489.652 1403.1 489.365 1402.85 489.274C1402.62 489.191 1401.76 488.868 1400.94 488.556C1400.12 488.245 1398.79 487.666 1397.97 487.27C1396.65 486.627 1396.46 486.571 1396.19 486.75C1396.01 486.861 1395.14 487.389 1394.24 487.924C1393.33 488.46 1392.06 489.208 1391.41 489.587C1390.75 489.967 1390.13 490.277 1390.02 490.277C1389.91 490.277 1389.25 489.712 1388.55 489.02C1387.47 487.95 1387.29 487.713 1387.39 487.423C1387.45 487.236 1388.13 485.973 1388.92 484.618C1389.7 483.262 1390.47 481.91 1390.64 481.613L1390.94 481.074L1390 478.95C1389.48 477.782 1388.86 476.281 1388.63 475.615C1388.39 474.949 1388.2 474.388 1388.2 474.368C1388.2 474.349 1387.94 474.198 1387.61 474.034C1387.29 473.87 1386.14 473.505 1385.04 473.222C1383.95 472.939 1382.54 472.595 1381.9 472.458L1380.74 472.208L1380.78 470.177L1380.82 468.145L1383.65 467.395C1385.21 466.983 1386.81 466.522 1387.2 466.373C1387.76 466.157 1387.97 465.973 1388.22 465.495C1388.39 465.162 1388.76 464.245 1389.04 463.459C1389.33 462.672 1389.86 461.383 1390.23 460.594L1390.91 459.16L1389.76 457.166C1389.13 456.069 1388.35 454.753 1388.03 454.243C1387.71 453.732 1387.45 453.136 1387.45 452.917C1387.45 452.617 1387.78 452.189 1388.78 451.174L1390.1 449.829L1391.94 450.956C1392.96 451.576 1394.41 452.392 1395.16 452.769L1396.54 453.456L1397.25 453.215C1397.64 453.083 1398.23 452.838 1398.56 452.672C1398.89 452.505 1399.92 452.079 1400.85 451.724C1401.78 451.37 1402.7 450.98 1402.89 450.858C1403.07 450.736 1403.4 450.281 1403.61 449.847C1403.82 449.414 1404.27 447.937 1404.61 446.565C1405.06 444.737 1405.32 443.97 1405.57 443.695C1405.91 443.335 1405.99 443.32 1407.7 443.32H1409.47L1410.17 446.061ZM1412.49 460.717C1411.72 460.328 1410.55 459.877 1409.9 459.715C1409.09 459.513 1408.24 459.422 1407.22 459.428C1406.25 459.433 1405.33 459.536 1404.65 459.715C1404.06 459.868 1403.26 460.16 1402.86 460.362C1402.46 460.565 1401.71 461.045 1401.2 461.429C1400.69 461.813 1399.83 462.641 1399.29 463.27C1398.74 463.919 1398.04 464.957 1397.69 465.67L1397.07 466.926V469.918C1397.07 472.451 1397.11 473.036 1397.35 473.73C1397.5 474.181 1397.83 474.953 1398.09 475.445C1398.38 476.012 1399.04 476.834 1399.9 477.692C1400.96 478.761 1401.49 479.171 1402.46 479.651C1403.21 480.025 1404.07 480.326 1404.73 480.436C1405.35 480.541 1406.77 480.593 1408.21 480.563L1410.63 480.513L1411.81 479.948C1412.47 479.637 1413.46 479.012 1414.02 478.558C1414.58 478.104 1415.4 477.294 1415.84 476.757C1416.29 476.22 1416.88 475.336 1417.17 474.793C1417.47 474.213 1417.79 473.283 1417.94 472.541C1418.14 471.585 1418.18 470.875 1418.11 469.634C1418.06 468.73 1417.92 467.622 1417.78 467.171C1417.64 466.72 1417.22 465.748 1416.84 465.01C1416.32 463.996 1415.88 463.393 1415.03 462.546C1414.15 461.662 1413.61 461.274 1412.49 460.717Z" fill="#F2E8C4" stroke="#F2E8C4" stroke-width="2" mask="url(#path-67-inside-2_414_1555)"/>
<path fill-rule="evenodd" clip-rule="evenodd" d="M1224.04 279.082C1224.45 269.402 1223.12 260.912 1226.79 258.542C1228.94 257.162 1232.51 257.652 1236.37 257.572C1241.79 257.462 1247.79 257.572 1251.43 257.372C1315.78 257.072 1344.97 254.092 1372.61 271.682C1383.61 278.682 1394.01 286.752 1403.98 301.792C1432.1 344.192 1422.98 405.382 1379.27 437.992C1368.58 445.992 1354.27 454.312 1333.27 456.072C1317.97 457.352 1302.27 457.312 1286.04 457.272C1267.67 457.272 1249.04 457.212 1231.5 457.392C1225.39 457.392 1224.29 454.392 1224.12 449.272C1224.04 446.662 1224.13 443.002 1224.04 440.002C1224.18 426.002 1223.9 411.912 1224.04 397.872C1224.34 387.032 1232.28 391.392 1239.33 396.502C1243.04 399.182 1245.99 399.652 1247.11 402.172C1247.96 404.092 1247.84 411.012 1247.82 417.602C1247.82 424.652 1247.82 431.422 1247.88 434.472H1323.25C1340.61 433.142 1345.25 421.952 1346.04 415.732C1347.74 402.402 1334.97 393.442 1319.71 384.582C1302.22 374.392 1257.91 352.002 1237.86 336.502C1233.93 333.502 1232.14 329.772 1230.56 327.122C1222.97 314.342 1224.77 301.002 1224.04 279.082ZM1396.04 371.472C1396.7 367.646 1397.12 363.781 1397.3 359.902C1398.48 337.422 1391.05 309.452 1363.36 292.972C1349.94 284.96 1334.67 280.576 1319.04 280.252H1317.17C1315 280.252 1312.79 280.252 1310.53 280.332H1300.78L1290.65 280.252C1262.1 279.892 1246.51 277.752 1229.7 264.032C1237.7 286.672 1244.6 302.752 1260.02 316.102C1262.97 318.915 1266.24 321.369 1269.76 323.412V323.412C1316.17 353.842 1364.66 378.792 1360.19 405.772C1357.61 421.392 1341 433.772 1325.66 434.772C1364.88 438.192 1391.25 408.052 1396.08 371.442L1396.04 371.472Z" fill="white" fill-opacity="0.85"/>
<path fill-rule="evenodd" clip-rule="evenodd" d="M1232.31 266.112C1241.86 293.002 1247.17 308.632 1269.76 323.442C1316.17 353.872 1364.66 378.822 1360.19 405.802C1357.61 421.422 1341 433.802 1325.66 434.802C1364.88 438.222 1391.25 408.082 1396.08 371.472C1402.18 325.182 1373.65 277.782 1310.49 280.362C1268.6 280.302 1253.78 280.452 1232.31 266.112Z" stroke="#49982B" stroke-width="5.67" stroke-miterlimit="22.93"/>
<path d="M1254.4 276.002C1288.21 295.532 1377.46 345.752 1375.1 395.392C1374.56 406.752 1368.95 418.072 1357.1 428.992" stroke="#49982B" stroke-width="2.83" stroke-miterlimit="22.93"/>
<path d="M1319.79 317.752C1319.79 317.752 1304.28 302.752 1298.23 281.292" stroke="#49982B" stroke-width="2.83" stroke-miterlimit="22.93"/>
<path d="M1348.93 343.052C1348.93 343.052 1330.23 307.492 1336.04 281.542" stroke="#49982B" stroke-width="2.83" stroke-miterlimit="22.93"/>
<path d="M1362.04 358.552C1362.04 358.552 1340.6 320.552 1351.43 286.832" stroke="#49982B" stroke-width="2.83" stroke-miterlimit="22.93"/>
<path d="M1374.34 385.112C1374.34 385.112 1368.57 349.362 1389.45 322.112" stroke="#49982B" stroke-width="2.83" stroke-miterlimit="22.93"/>
<path d="M1375.04 395.912C1375.04 395.912 1377.37 382.092 1396.04 371.482" stroke="#49982B" stroke-width="2.83" stroke-miterlimit="22.93"/>
<path d="M1297.16 301.892C1295.67 301.002 1284.04 289.252 1240.25 291.512" stroke="#49982B" stroke-width="2.83" stroke-miterlimit="22.93"/>
<path d="M1335.58 330.472C1335.58 330.472 1290.73 300.242 1255.2 312.842" stroke="#49982B" stroke-width="2.83" stroke-miterlimit="22.93"/>
<path d="M1361.25 357.232C1361.25 357.232 1330.25 332.932 1289.92 337.472" stroke="#49982B" stroke-width="2.83" stroke-miterlimit="22.93"/>
<path d="M1374.04 383.852C1374.04 383.852 1360.73 371.962 1343.47 372.852" stroke="#49982B" stroke-width="2.83" stroke-miterlimit="22.93"/>
</g>
<defs>
<linearGradient id="paint0_linear_414_1555" x1="1586.52" y1="324.638" x2="1586.52" y2="550.742" gradientUnits="userSpaceOnUse">
<stop stop-color="#B3C583"/>
<stop offset="1" stop-color="#B3C583" stop-opacity="0"/>
</linearGradient>
<linearGradient id="paint1_linear_414_1555" x1="1090.66" y1="339.417" x2="1090.66" y2="440.646" gradientUnits="userSpaceOnUse">
<stop stop-color="#B3C583"/>
<stop offset="1" stop-color="#B3C583" stop-opacity="0"/>
</linearGradient>
<linearGradient id="paint2_linear_414_1555" x1="1126.11" y1="238.187" x2="1126.11" y2="398.528" gradientUnits="userSpaceOnUse">
<stop stop-color="#B3C583"/>
<stop offset="1" stop-color="#B3C583" stop-opacity="0"/>
</linearGradient>
<linearGradient id="paint3_linear_414_1555" x1="997.32" y1="180.553" x2="997.32" y2="237.448" gradientUnits="userSpaceOnUse">
<stop stop-color="#B3C583"/>
<stop offset="1" stop-color="#B3C583" stop-opacity="0"/>
</linearGradient>
<linearGradient id="paint4_linear_414_1555" x1="1281.28" y1="50.5063" x2="1281.28" y2="187.942" gradientUnits="userSpaceOnUse">
<stop stop-color="#B3C583"/>
<stop offset="1" stop-color="#B3C583" stop-opacity="0"/>
</linearGradient>
<linearGradient id="paint5_linear_414_1555" x1="1492.78" y1="107.402" x2="1492.78" y2="236.709" gradientUnits="userSpaceOnUse">
<stop stop-color="#B3C583"/>
<stop offset="1" stop-color="#B3C583" stop-opacity="0"/>
</linearGradient>
<linearGradient id="paint6_linear_414_1555" x1="1630.23" y1="238.187" x2="1630.23" y2="323.161" gradientUnits="userSpaceOnUse">
<stop stop-color="#B3C583"/>
<stop offset="1" stop-color="#B3C583" stop-opacity="0"/>
</linearGradient>
<linearGradient id="paint7_linear_414_1555" x1="729" y1="28" x2="729" y2="546" gradientUnits="userSpaceOnUse">
<stop stop-color="#B3C583"/>
<stop offset="1" stop-color="#B3C583" stop-opacity="0"/>
</linearGradient>
<linearGradient id="paint8_linear_414_1555" x1="638.132" y1="6.91113" x2="638.132" y2="224.887" gradientUnits="userSpaceOnUse">
<stop stop-color="#B3C583"/>
<stop offset="1" stop-color="#B3C583" stop-opacity="0"/>
</linearGradient>
<linearGradient id="paint9_linear_414_1555" x1="1475.85" y1="571.476" x2="994.123" y2="830.629" gradientUnits="userSpaceOnUse">
<stop stop-color="#B3C583"/>
<stop offset="1" stop-color="#B3C583" stop-opacity="0"/>
</linearGradient>
<linearGradient id="paint10_linear_414_1555" x1="808.274" y1="7.65015" x2="808.274" y2="649.755" gradientUnits="userSpaceOnUse">
<stop stop-color="#B3C583"/>
<stop offset="1" stop-color="#B3C583" stop-opacity="0"/>
</linearGradient>
<linearGradient id="paint11_linear_414_1555" x1="1217.87" y1="1" x2="1217.87" y2="702.955" gradientUnits="userSpaceOnUse">
<stop stop-color="#B3C583"/>
<stop offset="1" stop-color="#B3C583" stop-opacity="0"/>
</linearGradient>
<linearGradient id="paint12_linear_414_1555" x1="615.684" y1="378.578" x2="615.684" y2="688.177" gradientUnits="userSpaceOnUse">
<stop stop-color="#B3C583"/>
<stop offset="1" stop-color="#B3C583" stop-opacity="0"/>
</linearGradient>
<linearGradient id="paint13_linear_414_1555" x1="1118.23" y1="530.053" x2="1118.23" y2="663.794" gradientUnits="userSpaceOnUse">
<stop stop-color="#B3C583"/>
<stop offset="1" stop-color="#B3C583" stop-opacity="0"/>
</linearGradient>
<linearGradient id="paint14_linear_414_1555" x1="1154.07" y1="650.494" x2="1154.07" y2="680.789" gradientUnits="userSpaceOnUse">
<stop stop-color="#B3C583"/>
<stop offset="1" stop-color="#B3C583" stop-opacity="0"/>
</linearGradient>
<linearGradient id="paint15_linear_414_1555" x1="1056.79" y1="461.335" x2="1056.79" y2="680.788" gradientUnits="userSpaceOnUse">
<stop stop-color="#B3C583"/>
<stop offset="1" stop-color="#B3C583" stop-opacity="0"/>
</linearGradient>
<linearGradient id="paint16_linear_414_1555" x1="1175.73" y1="397.79" x2="1175.73" y2="553.698" gradientUnits="userSpaceOnUse">
<stop stop-color="#B3C583"/>
<stop offset="1" stop-color="#B3C583" stop-opacity="0"/>
</linearGradient>
<linearGradient id="paint17_linear_414_1555" x1="1188.34" y1="441.385" x2="1188.34" y2="555.175" gradientUnits="userSpaceOnUse">
<stop stop-color="#B3C583"/>
<stop offset="1" stop-color="#B3C583" stop-opacity="0"/>
</linearGradient>
<linearGradient id="paint18_linear_414_1555" x1="853.96" y1="547.786" x2="853.96" y2="656.405" gradientUnits="userSpaceOnUse">
<stop stop-color="#B3C583"/>
<stop offset="1" stop-color="#B3C583" stop-opacity="0"/>
</linearGradient>
<linearGradient id="paint19_linear_414_1555" x1="1468.72" y1="661.063" x2="1528.68" y2="567.925" gradientUnits="userSpaceOnUse">
<stop stop-color="#B3C583"/>
<stop offset="1" stop-color="#B3C583" stop-opacity="0"/>
</linearGradient>
<linearGradient id="paint20_linear_414_1555" x1="1029.22" y1="442.124" x2="1029.22" y2="657.144" gradientUnits="userSpaceOnUse">
<stop stop-color="#B3C583"/>
<stop offset="1" stop-color="#B3C583" stop-opacity="0"/>
</linearGradient>
<linearGradient id="paint21_linear_414_1555" x1="1496.72" y1="458.379" x2="1496.72" y2="560.348" gradientUnits="userSpaceOnUse">
<stop stop-color="#B3C583"/>
<stop offset="1" stop-color="#B3C583" stop-opacity="0"/>
</linearGradient>
<linearGradient id="paint22_linear_414_1555" x1="11.1125" y1="27.084" x2="11.1125" y2="36.0504" gradientUnits="userSpaceOnUse">
<stop stop-color="#71A623"/>
<stop offset="1" stop-color="#71A623" stop-opacity="0"/>
</linearGradient>
<linearGradient id="paint23_linear_414_1555" x1="40.3564" y1="9.15137" x2="40.3564" y2="36.8657" gradientUnits="userSpaceOnUse">
<stop stop-color="#71A623"/>
<stop offset="1" stop-color="#71A623" stop-opacity="0"/>
</linearGradient>
<linearGradient id="paint24_linear_414_1555" x1="232.72" y1="68.0647" x2="232.72" y2="192.414" gradientUnits="userSpaceOnUse">
<stop stop-color="#71A623"/>
<stop offset="1" stop-color="#71A623" stop-opacity="0"/>
</linearGradient>
<linearGradient id="paint25_linear_414_1555" x1="110.541" y1="9.15137" x2="110.541" y2="63.7648" gradientUnits="userSpaceOnUse">
<stop stop-color="#71A623"/>
<stop offset="1" stop-color="#71A623" stop-opacity="0.46"/>
</linearGradient>
<linearGradient id="paint26_linear_414_1555" x1="372.563" y1="55.6133" x2="372.563" y2="191.739" gradientUnits="userSpaceOnUse">
<stop stop-color="#71A623"/>
<stop offset="1" stop-color="#71A623" stop-opacity="0"/>
</linearGradient>
<linearGradient id="paint27_linear_414_1555" x1="476.084" y1="55.6133" x2="476.084" y2="136.311" gradientUnits="userSpaceOnUse">
<stop stop-color="#71A623"/>
<stop offset="1" stop-color="#71A623" stop-opacity="0"/>
</linearGradient>
<linearGradient id="paint28_linear_414_1555" x1="416.427" y1="136.311" x2="416.427" y2="244.723" gradientUnits="userSpaceOnUse">
<stop stop-color="#71A623"/>
<stop offset="1" stop-color="#71A623" stop-opacity="0"/>
</linearGradient>
<linearGradient id="paint29_linear_414_1555" x1="510.007" y1="245.538" x2="510.007" y2="290.37" gradientUnits="userSpaceOnUse">
<stop stop-color="#71A623"/>
<stop offset="1" stop-color="#71A623" stop-opacity="0"/>
</linearGradient>
<linearGradient id="paint30_linear_414_1555" x1="149.727" y1="200.706" x2="149.727" y2="252.874" gradientUnits="userSpaceOnUse">
<stop stop-color="#71A623"/>
<stop offset="1" stop-color="#71A623" stop-opacity="0"/>
</linearGradient>
<linearGradient id="paint31_linear_414_1555" x1="47.3752" y1="253.689" x2="47.3752" y2="759.882" gradientUnits="userSpaceOnUse">
<stop stop-color="#71A623"/>
<stop offset="1" stop-color="#71A623" stop-opacity="0"/>
</linearGradient>
<linearGradient id="paint32_linear_414_1555" x1="422.862" y1="325.42" x2="422.862" y2="760.698" gradientUnits="userSpaceOnUse">
<stop stop-color="#71A623"/>
<stop offset="1" stop-color="#71A623" stop-opacity="0"/>
</linearGradient>
<linearGradient id="paint33_linear_414_1555" x1="691.316" y1="326.235" x2="691.316" y2="424.05" gradientUnits="userSpaceOnUse">
<stop stop-color="#71A623"/>
<stop offset="1" stop-color="#71A623" stop-opacity="0"/>
</linearGradient>
<linearGradient id="paint34_linear_414_1555" x1="491.291" y1="424.865" x2="491.291" y2="725.647" gradientUnits="userSpaceOnUse">
<stop stop-color="#71A623"/>
<stop offset="1" stop-color="#71A623" stop-opacity="0"/>
</linearGradient>
<linearGradient id="paint35_linear_414_1555" x1="535.156" y1="639.244" x2="535.156" y2="726.462" gradientUnits="userSpaceOnUse">
<stop stop-color="#71A623"/>
<stop offset="1" stop-color="#71A623" stop-opacity="0"/>
</linearGradient>
<linearGradient id="paint36_linear_414_1555" x1="819.987" y1="639.244" x2="819.987" y2="768.849" gradientUnits="userSpaceOnUse">
<stop stop-color="#71A623"/>
<stop offset="1" stop-color="#71A623" stop-opacity="0"/>
</linearGradient>
<linearGradient id="paint37_linear_414_1555" x1="831.685" y1="718.311" x2="831.685" y2="769.664" gradientUnits="userSpaceOnUse">
<stop stop-color="#71A623"/>
<stop offset="1" stop-color="#71A623" stop-opacity="0"/>
</linearGradient>
<linearGradient id="paint38_linear_414_1555" x1="690.732" y1="202.336" x2="690.732" y2="718.311" gradientUnits="userSpaceOnUse">
<stop stop-color="#71A623"/>
<stop offset="1" stop-color="#71A623" stop-opacity="0"/>
</linearGradient>
<linearGradient id="paint39_linear_414_1555" x1="708.193" y1="190.924" x2="708.193" y2="261.84" gradientUnits="userSpaceOnUse">
<stop stop-color="#71A623"/>
<stop offset="1" stop-color="#71A623" stop-opacity="0"/>
</linearGradient>
<linearGradient id="paint40_linear_414_1555" x1="422.277" y1="262.655" x2="422.277" y2="416.714" gradientUnits="userSpaceOnUse">
<stop stop-color="#71A623"/>
<stop offset="1" stop-color="#71A623" stop-opacity="0"/>
</linearGradient>
<linearGradient id="paint41_linear_414_1555" x1="132.181" y1="416.714" x2="132.181" y2="620.496" gradientUnits="userSpaceOnUse">
<stop stop-color="#71A623"/>
<stop offset="1" stop-color="#71A623" stop-opacity="0"/>
</linearGradient>
<linearGradient id="paint42_linear_414_1555" x1="259.683" y1="511.269" x2="259.683" y2="621.311" gradientUnits="userSpaceOnUse">
<stop stop-color="#71A623"/>
<stop offset="1" stop-color="#71A623" stop-opacity="0"/>
</linearGradient>
<linearGradient id="paint43_linear_414_1555" x1="203.535" y1="512.084" x2="203.535" y2="605.009" gradientUnits="userSpaceOnUse">
<stop stop-color="#71A623"/>
<stop offset="1" stop-color="#71A623" stop-opacity="0"/>
</linearGradient>
<linearGradient id="paint44_linear_414_1555" x1="624.057" y1="120.008" x2="624.057" y2="605.008" gradientUnits="userSpaceOnUse">
<stop stop-color="#71A623"/>
<stop offset="1" stop-color="#71A623" stop-opacity="0"/>
</linearGradient>
<linearGradient id="paint45_linear_414_1555" x1="1147.52" y1="121.639" x2="1147.52" y2="252.874" gradientUnits="userSpaceOnUse">
<stop stop-color="#71A623"/>
<stop offset="1" stop-color="#71A623" stop-opacity="0"/>
</linearGradient>
<linearGradient id="paint46_linear_414_1555" x1="878.474" y1="253.689" x2="878.474" y2="288.739" gradientUnits="userSpaceOnUse">
<stop stop-color="#71A623"/>
<stop offset="1" stop-color="#71A623" stop-opacity="0"/>
</linearGradient>
<linearGradient id="paint47_linear_414_1555" x1="550.949" y1="190.925" x2="550.949" y2="410.193" gradientUnits="userSpaceOnUse">
<stop stop-color="#71A623"/>
<stop offset="1" stop-color="#71A623" stop-opacity="0"/>
</linearGradient>
<linearGradient id="paint48_linear_414_1555" x1="701.845" y1="413.454" x2="701.845" y2="734.613" gradientUnits="userSpaceOnUse">
<stop stop-color="#71A623"/>
<stop offset="1" stop-color="#71A623" stop-opacity="0"/>
</linearGradient>
<linearGradient id="paint49_linear_414_1555" x1="1135.23" y1="706.899" x2="1135.23" y2="733.799" gradientUnits="userSpaceOnUse">
<stop stop-color="#71A623"/>
<stop offset="1" stop-color="#71A623" stop-opacity="0"/>
</linearGradient>
<linearGradient id="paint50_linear_414_1555" x1="1174.42" y1="708.529" x2="1174.42" y2="750.101" gradientUnits="userSpaceOnUse">
<stop stop-color="#71A623"/>
<stop offset="1" stop-color="#71A623" stop-opacity="0"/>
</linearGradient>
<linearGradient id="paint51_linear_414_1555" x1="1363.33" y1="358.025" x2="1363.33" y2="751.731" gradientUnits="userSpaceOnUse">
<stop stop-color="#71A623"/>
<stop offset="1" stop-color="#71A623" stop-opacity="0"/>
</linearGradient>
<linearGradient id="paint52_linear_414_1555" x1="1613.66" y1="358.84" x2="1613.66" y2="615.605" gradientUnits="userSpaceOnUse">
<stop stop-color="#71A623"/>
<stop offset="1" stop-color="#71A623" stop-opacity="0"/>
</linearGradient>
<linearGradient id="paint53_linear_414_1555" x1="1569.79" y1="615.605" x2="1569.79" y2="777" gradientUnits="userSpaceOnUse">
<stop stop-color="#71A623"/>
<stop offset="1" stop-color="#71A623" stop-opacity="0"/>
</linearGradient>
<linearGradient id="paint54_linear_414_1555" x1="1636.97" y1="604.193" x2="1636.97" y2="654.731" gradientUnits="userSpaceOnUse">
<stop stop-color="#71A623"/>
<stop offset="1" stop-color="#71A623" stop-opacity="0"/>
</linearGradient>
<linearGradient id="paint55_linear_414_1555" x1="1452.23" y1="655.546" x2="1452.23" y2="705.269" gradientUnits="userSpaceOnUse">
<stop stop-color="#71A623"/>
<stop offset="1" stop-color="#71A623" stop-opacity="0"/>
</linearGradient>
<linearGradient id="paint56_linear_414_1555" x1="1578.57" y1="1" x2="1578.57" y2="260.21" gradientUnits="userSpaceOnUse">
<stop stop-color="#71A623"/>
<stop offset="1" stop-color="#71A623" stop-opacity="0"/>
</linearGradient>
<linearGradient id="paint57_linear_414_1555" x1="1480.89" y1="261.025" x2="1480.89" y2="287.924" gradientUnits="userSpaceOnUse">
<stop stop-color="#71A623"/>
<stop offset="1" stop-color="#71A623" stop-opacity="0"/>
</linearGradient>
<linearGradient id="paint58_linear_414_1555" x1="1336.43" y1="78.4373" x2="1336.43" y2="208.042" gradientUnits="userSpaceOnUse">
<stop stop-color="#71A623"/>
<stop offset="1" stop-color="#71A623" stop-opacity="0"/>
</linearGradient>
<linearGradient id="paint59_linear_414_1555" x1="1012.01" y1="81.9327" x2="994.849" y2="378.105" gradientUnits="userSpaceOnUse">
<stop stop-color="#71A623"/>
<stop offset="1" stop-color="#71A623" stop-opacity="0"/>
</linearGradient>
<linearGradient id="paint60_linear_414_1555" x1="1583.24" y1="207.227" x2="1583.24" y2="329.496" gradientUnits="userSpaceOnUse">
<stop stop-color="#71A623"/>
<stop offset="1" stop-color="#71A623" stop-opacity="0"/>
</linearGradient>
<linearGradient id="paint61_linear_414_1555" x1="1489.08" y1="1.81494" x2="1489.08" y2="277.328" gradientUnits="userSpaceOnUse">
<stop stop-color="#71A623"/>
<stop offset="1" stop-color="#71A623" stop-opacity="0"/>
</linearGradient>
<radialGradient id="paint62_radial_414_1555" cx="0" cy="0" r="1" gradientUnits="userSpaceOnUse" gradientTransform="translate(1288.5 346.04) rotate(-40.4641) scale(339.768)">
<stop stop-color="#749E40"/>
<stop offset="1" stop-color="#749E40" stop-opacity="0"/>
</radialGradient>
<clipPath id="clip0_414_1555">
<rect width="1920" height="974" fill="white" transform="translate(0 -27)"/>
</clipPath>
</defs>
</svg>
