<svg width="480" height="330" viewBox="0 0 480 330" fill="none" xmlns="http://www.w3.org/2000/svg">
<g clip-path="url(#clip0_482_5350)">
<path d="M50.6264 64.1414C50.6264 66.3506 52.4173 68.1414 54.6264 68.1414C56.8355 68.1414 58.6264 66.3506 58.6264 64.1414C58.6264 61.9323 56.8355 60.1414 54.6264 60.1414C52.4173 60.1414 50.6264 61.9323 50.6264 64.1414ZM8.83493 23.0246L54.1186 64.6933L55.1343 63.5895L9.85062 21.9208L8.83493 23.0246Z" fill="url(#paint0_linear_482_5350)" fill-opacity="0.5"/>
<path d="M4.09247 21.0331C4.09247 23.2422 5.88333 25.0331 8.09247 25.0331C10.3016 25.0331 12.0925 23.2422 12.0925 21.0331C12.0925 18.824 10.3016 17.0331 8.09247 17.0331C5.88333 17.0331 4.09247 18.824 4.09247 21.0331ZM-26.3639 3.39327L7.73782 21.694L8.44711 20.3723L-25.6546 2.07157L-26.3639 3.39327Z" fill="url(#paint1_linear_482_5350)"/>
<path d="M98.9511 18.3008C98.9511 20.5099 100.742 22.3008 102.951 22.3008C105.16 22.3008 106.951 20.5099 106.951 18.3008C106.951 16.0916 105.16 14.3008 102.951 14.3008C100.742 14.3008 98.9511 16.0916 98.9511 18.3008ZM55.2537 64.4607L103.467 18.8456L102.436 17.756L54.2228 63.3711L55.2537 64.4607Z" fill="url(#paint2_linear_482_5350)"/>
<path d="M120.117 45.3421C120.117 47.5512 121.908 49.3421 124.117 49.3421C126.326 49.3421 128.117 47.5512 128.117 45.3421C128.117 43.133 126.326 41.3421 124.117 41.3421C121.908 41.3421 120.117 43.133 120.117 45.3421ZM102.36 18.7631L123.526 45.8044L124.707 44.8798L103.541 17.8385L102.36 18.7631Z" fill="url(#paint3_linear_482_5350)" fill-opacity="0.5"/>
<path d="M120.117 45.3418C120.117 47.5509 121.908 49.3418 124.117 49.3418C126.326 49.3418 128.117 47.5509 128.117 45.3418C128.117 43.1327 126.326 41.3418 124.117 41.3418C121.908 41.3418 120.117 43.1327 120.117 45.3418ZM58.969 81.67C58.969 83.8792 60.7599 85.67 62.969 85.67C65.1781 85.67 66.969 83.8792 66.969 81.67C66.969 79.4609 65.1781 77.67 62.969 77.67C60.7599 77.67 58.969 79.4609 58.969 81.67ZM123.734 44.697L62.5859 81.0252L63.3521 82.3148L124.5 45.9866L123.734 44.697Z" fill="url(#paint4_linear_482_5350)" fill-opacity="0.5"/>
<path d="M182.44 96.9663C182.44 99.1755 184.231 100.966 186.44 100.966C188.649 100.966 190.44 99.1755 190.44 96.9663C190.44 94.7572 188.649 92.9663 186.44 92.9663C184.231 92.9663 182.44 94.7572 182.44 96.9663ZM63.2692 82.6878L186.349 97.7108L186.531 96.2218L63.451 81.1989L63.2692 82.6878Z" fill="url(#paint5_linear_482_5350)" fill-opacity="0.5"/>
<path d="M30.7463 66.9199C30.7463 69.1291 32.5372 70.9199 34.7463 70.9199C36.9555 70.9199 38.7463 69.1291 38.7463 66.9199C38.7463 64.7108 36.9555 62.9199 34.7463 62.9199C32.5372 62.9199 30.7463 64.7108 30.7463 66.9199ZM34.5402 66.1988L-26.6078 83.6801L-26.1955 85.1223L34.9525 67.641L34.5402 66.1988Z" fill="url(#paint6_linear_482_5350)" fill-opacity="0.5"/>
<path d="M221.246 108.713C221.246 110.922 223.037 112.713 225.246 112.713C227.455 112.713 229.246 110.922 229.246 108.713C229.246 106.504 227.455 104.713 225.246 104.713C223.037 104.713 221.246 106.504 221.246 108.713ZM-33.481 255.226L225.614 109.366L224.878 108.059L-34.2168 253.919L-33.481 255.226Z" fill="url(#paint7_linear_482_5350)" fill-opacity="0.5"/>
<path d="M221.247 108.984C221.247 111.194 223.038 112.984 225.247 112.984C227.456 112.984 229.247 111.194 229.247 108.984C229.247 106.775 227.456 104.984 225.247 104.984C223.038 104.984 221.247 106.775 221.247 108.984ZM224.96 108.291L145.781 141.069L146.355 142.455L225.534 109.677L224.96 108.291Z" fill="url(#paint8_linear_482_5350)" fill-opacity="0.5"/>
<path d="M142.067 142.035C142.067 144.244 143.857 146.035 146.067 146.035C148.276 146.035 150.067 144.244 150.067 142.035C150.067 139.826 148.276 138.035 146.067 138.035C143.857 138.035 142.067 139.826 142.067 142.035ZM87.1902 242.826C87.1902 245.035 88.981 246.826 91.1902 246.826C93.3993 246.826 95.1902 245.035 95.1902 242.826C95.1902 240.616 93.3993 238.826 91.1902 238.826C88.981 238.826 87.1902 240.616 87.1902 242.826ZM145.408 141.677L90.5315 242.467L91.8489 243.184L146.725 142.394L145.408 141.677Z" fill="url(#paint9_linear_482_5350)" fill-opacity="0.3"/>
<path d="M171.074 213.873C171.074 216.082 172.865 217.873 175.074 217.873C177.284 217.873 179.074 216.082 179.074 213.873C179.074 211.664 177.284 209.873 175.074 209.873C172.865 209.873 171.074 211.664 171.074 213.873ZM91.8318 243.807L175.322 214.581L174.827 213.165L91.3362 242.392L91.8318 243.807Z" fill="url(#paint10_linear_482_5350)" fill-opacity="0.5"/>
<path d="M278.473 257.303C278.473 259.512 280.264 261.303 282.473 261.303C284.682 261.303 286.473 259.512 286.473 257.303C286.473 255.094 284.682 253.303 282.473 253.303C280.264 253.303 278.473 255.094 278.473 257.303ZM174.791 214.568L282.192 257.998L282.754 256.608L175.353 213.178L174.791 214.568Z" fill="url(#paint11_linear_482_5350)" fill-opacity="0.5"/>
<path d="M278.474 257.575C278.474 259.784 280.265 261.575 282.474 261.575C284.683 261.575 286.474 259.784 286.474 257.575C286.474 255.366 284.683 253.575 282.474 253.575C280.265 253.575 278.474 255.366 278.474 257.575ZM282.602 256.836L183.041 239.628L182.785 241.106L282.347 258.314L282.602 256.836Z" fill="url(#paint12_linear_482_5350)" fill-opacity="0.5"/>
<path d="M178.912 240.367C178.912 242.576 180.703 244.367 182.912 244.367C185.121 244.367 186.912 242.576 186.912 240.367C186.912 238.158 185.121 236.367 182.912 236.367C180.703 236.367 178.912 238.158 178.912 240.367ZM335.782 163.067L336.12 163.737L336.924 163.33L336.378 162.613L335.782 163.067ZM294.624 108.985L295.221 108.531L295.039 108.292L294.743 108.244L294.624 108.985ZM183.25 241.037L336.12 163.737L335.443 162.398L182.573 239.698L183.25 241.037ZM336.378 162.613L295.221 108.531L294.027 109.439L335.185 163.522L336.378 162.613ZM294.743 108.244L35.2559 66.7262L35.019 68.2074L294.506 109.725L294.743 108.244Z" fill="url(#paint13_linear_482_5350)" fill-opacity="0.5"/>
<path d="M187.144 63.6426C187.144 65.8517 188.934 67.6426 191.144 67.6426C193.353 67.6426 195.144 65.8517 195.144 63.6426C195.144 61.4334 193.353 59.6426 191.144 59.6426C188.934 59.6426 187.144 61.4334 187.144 63.6426ZM187.144 87.4062C187.144 89.6153 188.934 91.4062 191.144 91.4062C193.353 91.4062 195.144 89.6153 195.144 87.4062C195.144 85.197 193.353 83.4062 191.144 83.4062C188.934 83.4062 187.144 85.197 187.144 87.4062ZM190.394 63.6426V87.4062H191.894V63.6426H190.394Z" fill="url(#paint14_linear_482_5350)" fill-opacity="0.5"/>
<path d="M186.752 87.6797C186.752 89.8888 188.543 91.6797 190.752 91.6797C192.961 91.6797 194.752 89.8888 194.752 87.6797C194.752 85.4705 192.961 83.6797 190.752 83.6797C188.543 83.6797 186.752 85.4705 186.752 87.6797ZM190.556 86.9558L0.0565152 138.58L0.448856 140.028L190.948 88.4036L190.556 86.9558Z" fill="url(#paint15_linear_482_5350)" fill-opacity="0.5"/>
<path d="M-3.74676 139.305C-3.74676 141.514 -1.9559 143.305 0.253237 143.305C2.46238 143.305 4.25324 141.514 4.25324 139.305C4.25324 137.096 2.46238 135.305 0.253237 135.305C-1.9559 135.305 -3.74676 137.096 -3.74676 139.305ZM-7.6665 207.591C-7.6665 209.8 -5.87564 211.591 -3.6665 211.591C-1.45736 211.591 0.333496 209.8 0.333496 207.591C0.333496 205.382 -1.45736 203.591 -3.6665 203.591C-5.87564 203.591 -7.6665 205.382 -7.6665 207.591ZM-0.49553 139.262L-4.41527 207.548L-2.91774 207.634L1.002 139.348L-0.49553 139.262Z" fill="url(#paint16_linear_482_5350)" fill-opacity="0.5"/>
<path d="M81.7036 170.988C81.7036 173.197 83.4944 174.988 85.7036 174.988C87.9127 174.988 89.7036 173.197 89.7036 170.988C89.7036 168.779 87.9127 166.988 85.7036 166.988C83.4944 166.988 81.7036 168.779 81.7036 170.988ZM-3.38044 208.556L85.9896 171.682L85.4175 170.295L-3.95256 207.169L-3.38044 208.556Z" fill="url(#paint17_linear_482_5350)" fill-opacity="0.3"/>
<path d="M86.0953 171.262L-41.6882 202.4" stroke="url(#paint18_linear_482_5350)" stroke-opacity="0.3" stroke-width="1.5"/>
<path d="M-45.6882 202.4C-45.6882 204.609 -43.8974 206.4 -41.6882 206.4C-39.4791 206.4 -37.6882 204.609 -37.6882 202.4C-37.6882 200.191 -39.4791 198.4 -41.6882 198.4C-43.8974 198.4 -45.6882 200.191 -45.6882 202.4ZM363.925 39.8789C363.925 42.088 365.716 43.8789 367.925 43.8789C370.134 43.8789 371.925 42.088 371.925 39.8789C371.925 37.6698 370.134 35.8789 367.925 35.8789C365.716 35.8789 363.925 37.6698 363.925 39.8789ZM-41.4116 203.097L368.201 40.576L367.648 39.1818L-41.9648 201.703L-41.4116 203.097Z" fill="url(#paint19_linear_482_5350)" fill-opacity="0.5"/>
<path d="M367.532 40.4258L346.366 82.2169L309.52 84.4021" stroke="url(#paint20_linear_482_5350)" stroke-width="1.5"/>
<path d="M305.913 84.6758C305.913 86.8849 307.704 88.6758 309.913 88.6758C312.122 88.6758 313.913 86.8849 313.913 84.6758C313.913 82.4666 312.122 80.6758 309.913 80.6758C307.704 80.6758 305.913 82.4666 305.913 84.6758ZM309.842 83.9292L186.762 95.6744L186.904 97.1676L309.984 85.4224L309.842 83.9292Z" fill="url(#paint21_linear_482_5350)" fill-opacity="0.5"/>
<path d="M82.4875 137.118C82.4875 139.328 84.2784 141.118 86.4875 141.118C88.6967 141.118 90.4875 139.328 90.4875 137.118C90.4875 134.909 88.6967 133.118 86.4875 133.118C84.2784 133.118 82.4875 134.909 82.4875 137.118ZM86.9196 137.732L191.185 64.2556L190.321 63.0295L86.0555 136.505L86.9196 137.732Z" fill="url(#paint22_linear_482_5350)" fill-opacity="0.5"/>
<path d="M286.313 245.83C286.313 248.039 288.104 249.83 290.313 249.83C292.522 249.83 294.313 248.039 294.313 245.83C294.313 243.621 292.522 241.83 290.313 241.83C288.104 241.83 286.313 243.621 286.313 245.83ZM87.7024 138.873L289.961 246.492L290.666 245.168L88.407 137.549L87.7024 138.873Z" fill="url(#paint23_linear_482_5350)" fill-opacity="0.3"/>
<path d="M374.507 236.545C374.507 238.754 376.298 240.545 378.507 240.545C380.716 240.545 382.507 238.754 382.507 236.545C382.507 234.336 380.716 232.545 378.507 232.545C376.298 232.545 374.507 234.336 374.507 236.545ZM290.389 246.305L378.583 237.291L378.431 235.799L290.237 244.813L290.389 246.305Z" fill="url(#paint24_linear_482_5350)" fill-opacity="0.5"/>
<path d="M314.145 251.02C314.145 253.229 315.935 255.02 318.145 255.02C320.354 255.02 322.145 253.229 322.145 251.02C322.145 248.811 320.354 247.02 318.145 247.02C315.935 247.02 314.145 248.811 314.145 251.02ZM376.768 236.36L317.972 250.29L318.317 251.75L377.114 237.82L376.768 236.36Z" fill="url(#paint25_linear_482_5350)" fill-opacity="0.5"/>
<path d="M499.94 119.637C499.94 121.846 501.731 123.637 503.94 123.637C506.149 123.637 507.94 121.846 507.94 119.637C507.94 117.428 506.149 115.637 503.94 115.637C501.731 115.637 499.94 117.428 499.94 119.637ZM318.186 252.178L504.373 120.249L503.506 119.025L317.318 250.954L318.186 252.178Z" fill="url(#paint26_linear_482_5350)" fill-opacity="0.5"/>
<path d="M481.517 205.951C481.517 208.16 483.308 209.951 485.517 209.951C487.726 209.951 489.517 208.16 489.517 205.951C489.517 203.742 487.726 201.951 485.517 201.951C483.308 201.951 481.517 203.742 481.517 205.951ZM470.542 260.034C470.542 262.243 472.333 264.034 474.542 264.034C476.751 264.034 478.542 262.243 478.542 260.034C478.542 257.825 476.751 256.034 474.542 256.034C472.333 256.034 470.542 257.825 470.542 260.034ZM484.782 205.802L473.807 259.885L475.277 260.183L486.252 206.1L484.782 205.802Z" fill="url(#paint27_linear_482_5350)" fill-opacity="0.5"/>
<path d="M497.98 219.336C497.98 221.545 499.771 223.336 501.98 223.336C504.19 223.336 505.98 221.545 505.98 219.336C505.98 217.127 504.19 215.336 501.98 215.336C499.771 215.336 497.98 217.127 497.98 219.336ZM501.879 218.593L379.192 235.255L379.393 236.741L502.081 220.079L501.879 218.593Z" fill="url(#paint28_linear_482_5350)" fill-opacity="0.5"/>
<path d="M494.14 0L471.797 86.86" stroke="url(#paint29_linear_482_5350)" stroke-opacity="0.5" stroke-width="1.5"/>
<path d="M468.191 87.1328C468.191 89.342 469.982 91.1328 472.191 91.1328C474.4 91.1328 476.191 89.342 476.191 87.1328C476.191 84.9237 474.4 83.1328 472.191 83.1328C469.982 83.1328 468.191 84.9237 468.191 87.1328ZM424.29 96.1466C424.29 98.3557 426.08 100.147 428.29 100.147C430.499 100.147 432.29 98.3557 432.29 96.1466C432.29 93.9374 430.499 92.1466 428.29 92.1466C426.08 92.1466 424.29 93.9374 424.29 96.1466ZM472.04 86.3981L428.139 95.4119L428.44 96.8813L472.341 87.8675L472.04 86.3981Z" fill="url(#paint30_linear_482_5350)" fill-opacity="0.5"/>
<path d="M522.28 69.3792C522.28 71.5883 524.071 73.3792 526.28 73.3792C528.49 73.3792 530.28 71.5883 530.28 69.3792C530.28 67.1701 528.49 65.3792 526.28 65.3792C524.071 65.3792 522.28 67.1701 522.28 69.3792ZM273.377 25.9492C273.377 28.1584 275.168 29.9492 277.377 29.9492C279.586 29.9492 281.377 28.1584 281.377 25.9492C281.377 23.7401 279.586 21.9492 277.377 21.9492C275.168 21.9492 273.377 23.7401 273.377 25.9492ZM526.409 68.6404L277.506 25.2104L277.248 26.6881L526.152 70.118L526.409 68.6404Z" fill="url(#paint31_linear_482_5350)"/>
<path d="M298.193 126.993C298.048 129.198 299.719 131.088 301.925 131.216C304.13 131.344 306.035 129.66 306.179 127.456C306.323 125.252 304.653 123.361 302.447 123.233C300.242 123.105 298.337 124.789 298.193 126.993ZM276.831 26.4013L301.457 127.407L302.915 127.042L278.29 26.0362L276.831 26.4013Z" fill="url(#paint32_linear_482_5350)" fill-opacity="0.5"/>
<path d="M521.499 69.1055C521.499 71.3146 523.29 73.1055 525.499 73.1055C527.708 73.1055 529.499 71.3146 529.499 69.1055C529.499 66.8963 527.708 65.1055 525.499 65.1055C523.29 65.1055 521.499 66.8963 521.499 69.1055ZM439.576 110.077C439.576 112.286 441.367 114.077 443.576 114.077C445.785 114.077 447.576 112.286 447.576 110.077C447.576 107.868 445.785 106.077 443.576 106.077C441.367 106.077 439.576 107.868 439.576 110.077ZM525.163 68.4347L443.241 109.406L443.912 110.748L525.834 69.7763L525.163 68.4347Z" fill="url(#paint33_linear_482_5350)" fill-opacity="0.5"/>
<path d="M490.141 0.273438C490.141 2.48258 491.932 4.27344 494.141 4.27344C496.35 4.27344 498.141 2.48258 498.141 0.273438C498.141 -1.9357 496.35 -3.72656 494.141 -3.72656C491.932 -3.72656 490.141 -1.9357 490.141 0.273438ZM407.827 92.5963C407.827 94.8054 409.618 96.5963 411.827 96.5963C414.036 96.5963 415.827 94.8054 415.827 92.5963C415.827 90.3872 414.036 88.5963 411.827 88.5963C409.618 88.5963 407.827 90.3872 407.827 92.5963ZM493.581 -0.225681L411.267 92.0972L412.386 93.0954L494.701 0.772556L493.581 -0.225681Z" fill="url(#paint34_linear_482_5350)" fill-opacity="0.5"/>
<path d="M150.509 67.8904C150.509 66.7122 149.554 65.757 148.375 65.757C147.197 65.757 146.242 66.7122 146.242 67.8904C146.242 69.0686 147.197 70.0237 148.375 70.0237C149.554 70.0237 150.509 69.0686 150.509 67.8904ZM78.3115 12.5203L78.0597 12.8311L78.0635 12.8341L78.3115 12.5203ZM57.1964 -4.58592L57.4482 -4.89673L56.7964 -5.42476V-4.58592H57.1964ZM59.3297 133.164C59.3297 131.986 58.3746 131.031 57.1964 131.031C56.0182 131.031 55.0631 131.986 55.0631 133.164C55.0631 134.342 56.0182 135.297 57.1964 135.297C58.3746 135.297 59.3297 134.342 59.3297 133.164ZM148.624 67.5765L78.5596 12.2065L78.0635 12.8341L148.127 68.2042L148.624 67.5765ZM78.5633 12.2095L57.4482 -4.89673L56.9446 -4.27512L78.0598 12.8311L78.5633 12.2095ZM56.7964 -4.58592L56.7964 133.164H57.5964L57.5964 -4.58592H56.7964Z" fill="url(#paint35_linear_482_5350)" fill-opacity="0.5"/>
<path d="M332.383 88.151C332.383 86.9728 331.428 86.0177 330.25 86.0177C329.072 86.0177 328.117 86.9728 328.117 88.151C328.117 89.3292 329.072 90.2843 330.25 90.2843C331.428 90.2843 332.383 89.3292 332.383 88.151ZM493.893 96.2539L493.957 96.6487L493.912 95.8544L493.893 96.2539ZM322.572 124.164L322.174 124.207L322.22 124.627L322.636 124.559L322.572 124.164ZM317.987 62.4917C317.987 61.3135 317.032 60.3583 315.853 60.3583C314.675 60.3583 313.72 61.3135 313.72 62.4917C313.72 63.6699 314.675 64.625 315.853 64.625C317.032 64.625 317.987 63.6699 317.987 62.4917ZM330.23 88.5505L493.873 96.6534L493.912 95.8544L330.27 87.7515L330.23 88.5505ZM493.828 95.8591L322.508 123.769L322.636 124.559L493.957 96.6487L493.828 95.8591ZM322.97 124.121L316.251 62.4484L315.456 62.535L322.174 124.207L322.97 124.121Z" fill="url(#paint36_linear_482_5350)" fill-opacity="0.5"/>
<path d="M333.825 88.1466C333.825 86.9684 332.87 86.0132 331.691 86.0132C330.513 86.0132 329.558 86.9684 329.558 88.1466C329.558 89.3248 330.513 90.2799 331.691 90.2799C332.87 90.2799 333.825 89.3248 333.825 88.1466ZM398.396 151.169L398.121 151.46L398.172 151.508L398.235 151.536L398.396 151.169ZM443.506 170.977L443.89 171.088L443.988 170.751L443.667 170.61L443.506 170.977ZM439.187 185.832L438.997 186.184L439.433 186.419L439.571 185.944L439.187 185.832ZM325.187 123.259C325.187 122.081 324.232 121.126 323.053 121.126C321.875 121.126 320.92 122.081 320.92 123.259C320.92 124.438 321.875 125.393 323.053 125.393C324.232 125.393 325.187 124.438 325.187 123.259ZM331.417 88.4373L398.121 151.46L398.671 150.879L331.966 87.8558L331.417 88.4373ZM398.235 151.536L443.345 171.343L443.667 170.61L398.557 150.803L398.235 151.536ZM443.122 170.865L438.803 185.72L439.571 185.944L443.89 171.088L443.122 170.865ZM439.377 185.48L323.243 122.907L322.864 123.611L438.997 186.184L439.377 185.48Z" fill="url(#paint37_linear_482_5350)" fill-opacity="0.5"/>
<path d="M632.317 220.949C632.317 219.771 631.362 218.816 630.184 218.816C629.005 218.816 628.05 219.771 628.05 220.949C628.05 222.127 629.005 223.083 630.184 223.083C631.362 223.083 632.317 222.127 632.317 220.949ZM440.147 186.287L440.219 185.893L440.175 185.885L440.131 185.887L440.147 186.287ZM295.434 192.139C295.434 190.961 294.479 190.005 293.301 190.005C292.123 190.005 291.168 190.961 291.168 192.139C291.168 193.317 292.123 194.272 293.301 194.272C294.479 194.272 295.434 193.317 295.434 192.139ZM630.255 220.556L440.219 185.893L440.075 186.68L630.112 221.343L630.255 220.556ZM440.131 185.887L293.285 191.739L293.317 192.538L440.163 186.686L440.131 185.887Z" fill="url(#paint38_linear_482_5350)" fill-opacity="0.5"/>
<path d="M442.762 226.801C442.762 225.623 441.807 224.668 440.629 224.668C439.45 224.668 438.495 225.623 438.495 226.801C438.495 227.979 439.45 228.934 440.629 228.934C441.807 228.934 442.762 227.979 442.762 226.801ZM29.363 216.447L29.373 216.047L29.2993 216.842L29.363 216.447ZM550.257 300.178C550.257 299 549.302 298.044 548.124 298.044C546.946 298.044 545.991 299 545.991 300.178C545.991 301.356 546.946 302.311 548.124 302.311C549.302 302.311 550.257 301.356 550.257 300.178ZM440.639 226.401L29.373 216.047L29.3529 216.847L440.619 227.201L440.639 226.401ZM29.2993 216.842L548.06 300.573L548.188 299.783L29.4267 216.052L29.2993 216.842Z" fill="url(#paint39_linear_482_5350)" fill-opacity="0.5"/>
<path d="M100.121 186.735C100.121 185.557 99.1654 184.602 97.9872 184.602C96.809 184.602 95.8539 185.557 95.8539 186.735C95.8539 187.913 96.809 188.868 97.9872 188.868C99.1654 188.868 100.121 187.913 100.121 186.735ZM223.932 265.514C223.932 264.335 222.977 263.38 221.799 263.38C220.621 263.38 219.665 264.335 219.665 265.514C219.665 266.692 220.621 267.647 221.799 267.647C222.977 267.647 223.932 266.692 223.932 265.514ZM97.7725 187.073L221.584 265.851L222.014 265.176L98.202 186.398L97.7725 187.073Z" fill="url(#paint40_linear_482_5350)" fill-opacity="0.5"/>
<path d="M97.2412 185.836C97.2412 184.658 96.2861 183.703 95.1079 183.703C93.9297 183.703 92.9746 184.658 92.9746 185.836C92.9746 187.014 93.9297 187.969 95.1079 187.969C96.2861 187.969 97.2412 187.014 97.2412 185.836ZM59.3299 134.067C59.3299 132.889 58.3748 131.934 57.1966 131.934C56.0184 131.934 55.0633 132.889 55.0633 134.067C55.0633 135.245 56.0184 136.2 57.1966 136.2C58.3748 136.2 59.3299 135.245 59.3299 134.067ZM95.4306 185.6L57.5193 133.831L56.8739 134.303L94.7852 186.072L95.4306 185.6Z" fill="url(#paint41_linear_482_5350)" fill-opacity="0.5"/>
<path d="M217.48 70.6639C218.545 70.1598 218.956 68.91 218.398 67.8724C217.84 66.8348 216.524 66.4023 215.459 66.9064C214.394 67.4105 213.983 68.6603 214.542 69.6979C215.1 70.7355 216.415 71.168 217.48 70.6639ZM396.395 -183.289L396.803 -183.27L396.829 -184.601L396.056 -183.517L396.395 -183.289ZM394.249 -74.3676L393.841 -74.3869L393.833 -73.9702L394.267 -73.976L394.249 -74.3676ZM517.003 -76.002L517.021 -75.6104L517.178 -76.3502L517.003 -76.002ZM343.69 -160.357L343.866 -160.705L343.356 -160.953L343.285 -160.418L343.69 -160.357ZM323.265 -6.47719L323.324 -6.08805L323.631 -6.1217L323.67 -6.41608L323.265 -6.47719ZM205.493 6.41392L205.091 6.47152L205.161 6.84577L205.551 6.80305L205.493 6.41392ZM180.06 -129.792L180.324 -130.082L179.456 -130.817L179.658 -129.734L180.06 -129.792ZM246.167 -73.853L246.567 -73.7609L246.616 -73.987L246.432 -74.1432L246.167 -73.853ZM217.661 62.0065C218.726 61.5024 219.137 60.2526 218.578 59.215C218.02 58.1774 216.704 57.7449 215.639 58.249C214.575 58.7531 214.164 60.0029 214.722 61.0405C215.28 62.0781 216.596 62.5106 217.661 62.0065ZM216.809 69.0131L396.734 -183.062L396.056 -183.517L216.131 68.5572L216.809 69.0131ZM395.986 -183.309L393.841 -74.3869L394.657 -74.3482L396.803 -183.27L395.986 -183.309ZM394.267 -73.976L517.021 -75.6104L516.984 -76.3936L394.231 -74.7591L394.267 -73.976ZM517.178 -76.3502L343.866 -160.705L343.514 -160.009L516.827 -75.6538L517.178 -76.3502ZM343.285 -160.418L322.86 -6.53829L323.67 -6.41608L344.095 -160.296L343.285 -160.418ZM323.207 -6.86632L205.434 6.02479L205.551 6.80305L323.324 -6.08805L323.207 -6.86632ZM205.894 6.35632L180.461 -129.849L179.658 -129.734L205.091 6.47152L205.894 6.35632ZM179.795 -129.501L245.902 -73.5628L246.432 -74.1432L180.324 -130.082L179.795 -129.501ZM245.768 -73.9451L216.251 60.0356L217.05 60.2199L246.567 -73.7609L245.768 -73.9451Z" fill="url(#paint42_linear_482_5350)" fill-opacity="0.5"/>
<path d="M707.179 326.285C707.179 325.107 706.224 324.152 705.046 324.152C703.868 324.152 702.913 325.107 702.913 326.285C702.913 327.463 703.868 328.418 705.046 328.418C706.224 328.418 707.179 327.463 707.179 326.285ZM563.478 110.207L563.144 110.426L563.144 110.426L563.478 110.207ZM567.318 106.605L567.698 106.481L567.503 105.883L567.044 106.314L567.318 106.605ZM606.189 225.899L605.808 226.023L606.201 227.229L606.571 226.015L606.189 225.899ZM678.652 -11.7876L679.035 -11.6709L678.36 -12.0614L678.652 -11.7876ZM568.757 105.255L569.031 105.547L569.04 105.538L569.049 105.529L568.757 105.255ZM450.918 -64.9069C450.918 -66.0851 449.963 -67.0402 448.785 -67.0402C447.606 -67.0402 446.651 -66.0851 446.651 -64.9069C446.651 -63.7286 447.606 -62.7735 448.785 -62.7735C449.963 -62.7735 450.918 -63.7286 450.918 -64.9069ZM705.38 326.066L563.813 109.988L563.144 110.426L704.711 326.504L705.38 326.066ZM563.752 110.498L567.591 106.897L567.044 106.314L563.205 109.915L563.752 110.498ZM566.937 106.729L605.808 226.023L606.569 225.775L567.698 106.481L566.937 106.729ZM606.571 226.015L679.035 -11.6709L678.269 -11.9042L605.806 225.782L606.571 226.015ZM678.36 -12.0614L568.466 104.981L569.049 105.529L678.944 -11.5138L678.36 -12.0614ZM568.484 104.963L563.205 109.915L563.752 110.498L569.031 105.547L568.484 104.963ZM448.45 -64.6877L563.144 110.426L563.813 109.988L449.119 -65.126L448.45 -64.6877Z" fill="url(#paint43_linear_482_5350)" fill-opacity="0.5"/>
<path d="M550.248 300.171C550.248 298.993 549.293 298.038 548.115 298.038C546.937 298.038 545.981 298.993 545.981 300.171C545.981 301.349 546.937 302.304 548.115 302.304C549.293 302.304 550.248 301.349 550.248 300.171ZM335.053 288.471L334.845 288.129L333.74 288.799L335.031 288.87L335.053 288.471ZM438.229 225.898L438.366 225.522L438.186 225.457L438.022 225.556L438.229 225.898ZM521.25 256.059L521.262 256.459L521.387 255.683L521.25 256.059ZM221.901 265.148L221.889 264.748L221.814 264.75L221.745 264.78L221.901 265.148ZM68.2339 330.336L68.0777 329.968L68.2986 330.731L68.2339 330.336ZM332.173 287.12L332.238 287.515L332.369 287.493L332.462 287.398L332.173 287.12ZM443.988 170.978L444.276 171.255L444.299 171.232L444.317 171.205L443.988 170.978ZM494.856 97.1513L495.135 96.8646L494.796 96.5341L494.527 96.9243L494.856 97.1513ZM596.593 196.187L596.372 196.521L596.872 195.901L596.593 196.187ZM211.721 -59.0555L211.942 -59.3888L211.896 -59.4191L211.844 -59.436L211.721 -59.0555ZM93.6681 -97.3193L93.7914 -97.6999L93.4764 -97.802L93.3173 -97.5115L93.6681 -97.3193ZM58.1562 -32.4958L57.8054 -32.688L57.6154 -32.3412L57.96 -32.1472L58.1562 -32.4958ZM177.863 33.6782C177.863 32.5 176.908 31.5449 175.729 31.5449C174.551 31.5449 173.596 32.5 173.596 33.6782C173.596 34.8564 174.551 35.8116 175.729 35.8116C176.908 35.8116 177.863 34.8564 177.863 33.6782ZM548.137 299.771L335.075 288.071L335.031 288.87L548.093 300.57L548.137 299.771ZM335.26 288.813L438.437 226.24L438.022 225.556L334.845 288.129L335.26 288.813ZM438.093 226.274L521.113 256.435L521.387 255.683L438.366 225.522L438.093 226.274ZM521.238 255.659L221.889 264.748L221.913 265.548L521.262 256.459L521.238 255.659ZM221.745 264.78L68.0777 329.968L68.3901 330.704L222.057 265.516L221.745 264.78ZM68.2986 330.731L332.238 287.515L332.109 286.726L68.1693 329.941L68.2986 330.731ZM332.462 287.398L444.276 171.255L443.7 170.701L331.885 286.843L332.462 287.398ZM444.317 171.205L495.185 97.3782L494.527 96.9243L443.658 170.751L444.317 171.205ZM494.577 97.4379L596.314 196.474L596.872 195.901L495.135 96.8646L494.577 97.4379ZM596.814 195.854L211.942 -59.3888L211.5 -58.7221L596.372 196.521L596.814 195.854ZM211.844 -59.436L93.7914 -97.6999L93.5448 -96.9388L211.598 -58.675L211.844 -59.436ZM93.3173 -97.5115L57.8054 -32.688L58.507 -32.3036L94.0189 -97.1272L93.3173 -97.5115ZM57.96 -32.1472L175.533 34.0268L175.925 33.3297L58.3524 -32.8444L57.96 -32.1472Z" fill="url(#paint44_linear_482_5350)" fill-opacity="0.5"/>
<path d="M458.86 -20.3427L374.879 -7.28798L317.292 8.01758V-71.6613L319.692 -73.462L458.86 -20.3427Z" stroke="url(#paint45_linear_482_5350)" stroke-opacity="0.5" stroke-width="0.8"/>
<path d="M286.317 -83.8138C286.317 -84.992 285.362 -85.9471 284.184 -85.9471C283.006 -85.9471 282.05 -84.992 282.05 -83.8138C282.05 -82.6355 283.006 -81.6804 284.184 -81.6804C285.362 -81.6804 286.317 -82.6355 286.317 -83.8138ZM566.839 49.8848L566.724 50.2679L567.01 49.5232L566.839 49.8848ZM377.016 -7.73615C377.016 -8.91435 376.061 -9.86948 374.883 -9.86948C373.705 -9.86948 372.75 -8.91435 372.75 -7.73615C372.75 -6.55794 373.705 -5.60281 374.883 -5.60281C376.061 -5.60281 377.016 -6.55794 377.016 -7.73615ZM284.013 -83.4522L566.668 50.2464L567.01 49.5232L284.355 -84.1753L284.013 -83.4522ZM566.954 49.5017L374.998 -8.11926L374.768 -7.35303L566.724 50.2679L566.954 49.5017Z" fill="url(#paint46_linear_482_5350)" fill-opacity="0.5"/>
<path d="M333.345 88.5977C333.345 87.4194 332.39 86.4643 331.211 86.4643C330.033 86.4643 329.078 87.4194 329.078 88.5977C329.078 89.7759 330.033 90.731 331.211 90.731C332.39 90.731 333.345 89.7759 333.345 88.5977ZM377.015 -6.38683C377.015 -7.56504 376.06 -8.52016 374.881 -8.52016C373.703 -8.52016 372.748 -7.56504 372.748 -6.38683C372.748 -5.20863 373.703 -4.2535 374.881 -4.2535C376.06 -4.2535 377.015 -5.20863 377.015 -6.38683ZM331.575 88.7647L375.245 -6.21974L374.518 -6.55392L330.848 88.4306L331.575 88.7647Z" fill="url(#paint47_linear_482_5350)" fill-opacity="0.5"/>
<path d="M317.988 62.0391C317.988 60.8609 317.033 59.9057 315.855 59.9057C314.677 59.9057 313.722 60.8609 313.722 62.0391C313.722 63.2173 314.677 64.1724 315.855 64.1724C317.033 64.1724 317.988 63.2173 317.988 62.0391ZM377.015 -7.28609C377.015 -8.4643 376.06 -9.41943 374.881 -9.41943C373.703 -9.41943 372.748 -8.4643 372.748 -7.28609C372.748 -6.10789 373.703 -5.15276 374.881 -5.15276C376.06 -5.15276 377.015 -6.10789 377.015 -7.28609ZM316.159 62.2984L375.186 -7.02678L374.577 -7.54541L315.55 61.7797L316.159 62.2984Z" fill="url(#paint48_linear_482_5350)" fill-opacity="0.5"/>
<path d="M30.9153 -164.256L121.971 -25.3838L64.9287 -131.987L316.009 23.6346L30.9153 -164.256Z" stroke="url(#paint49_linear_482_5350)" stroke-opacity="0.5" stroke-width="0.8"/>
<path d="M569.932 50.3338C569.932 49.1556 568.977 48.2005 567.799 48.2005C566.621 48.2005 565.665 49.1556 565.665 50.3338C565.665 51.512 566.621 52.4671 567.799 52.4671C568.977 52.4671 569.932 51.512 569.932 50.3338ZM316.816 61.5879L316.627 61.2354L316.834 61.9875L316.816 61.5879ZM563.214 -69.4097C563.214 -70.5879 562.259 -71.543 561.08 -71.543C559.902 -71.543 558.947 -70.5879 558.947 -69.4097C558.947 -68.2314 559.902 -67.2763 561.08 -67.2763C562.259 -67.2763 563.214 -68.2314 563.214 -69.4097ZM567.781 49.9342L316.798 61.1883L316.834 61.9875L567.817 50.7334L567.781 49.9342ZM317.005 61.9404L561.269 -69.0571L560.891 -69.7622L316.627 61.2354L317.005 61.9404Z" fill="url(#paint50_linear_482_5350)" fill-opacity="0.5"/>
<path d="M80.9243 -5.93537C80.9243 -7.11358 79.9691 -8.06871 78.7909 -8.06871C77.6127 -8.06871 76.6576 -7.11358 76.6576 -5.93537C76.6576 -4.75716 77.6127 -3.80204 78.7909 -3.80204C79.9691 -3.80204 80.9243 -4.75716 80.9243 -5.93537ZM179.568 51.6855L179.369 52.0328L179.489 52.101L179.624 52.0815L179.568 51.6855ZM236.195 43.5826L236.251 43.9786L236.661 43.92L236.589 43.5126L236.195 43.5826ZM228.73 -10.437C228.73 -11.6152 227.775 -12.5703 226.597 -12.5703C225.419 -12.5703 224.464 -11.6152 224.464 -10.437C224.464 -9.2588 225.419 -8.30367 226.597 -8.30367C227.775 -8.30367 228.73 -9.2588 228.73 -10.437ZM78.5924 -5.58812L179.369 52.0328L179.766 51.3383L78.9895 -6.28262L78.5924 -5.58812ZM179.624 52.0815L236.251 43.9786L236.138 43.1866L179.511 51.2896L179.624 52.0815ZM236.589 43.5126L226.991 -10.507L226.203 -10.367L235.801 43.6526L236.589 43.5126Z" fill="url(#paint51_linear_482_5350)" fill-opacity="0.5"/>
<path d="M332 138.5C332 189.586 290.586 231 239.5 231C188.414 231 147 189.586 147 138.5C147 87.4137 188.414 46 239.5 46C290.586 46 332 87.4137 332 138.5ZM166.271 138.5C166.271 178.943 199.057 211.729 239.5 211.729C279.943 211.729 312.729 178.943 312.729 138.5C312.729 98.0569 279.943 65.2713 239.5 65.2713C199.057 65.2713 166.271 98.0569 166.271 138.5Z" fill="url(#paint52_radial_482_5350)" fill-opacity="0.9"/>
<mask id="path-54-inside-1_482_5350" fill="white">
<path fill-rule="evenodd" clip-rule="evenodd" d="M191.304 51.0337C191.666 52.4596 192.077 53.9663 192.219 54.382C192.412 54.9506 192.592 55.2058 192.944 55.4115C193.202 55.5621 194.342 56.0751 195.478 56.5518C196.614 57.0285 197.736 57.5607 197.971 57.7345C198.36 58.0223 198.453 58.0356 199.018 57.8852C199.359 57.7943 200.145 57.4658 200.766 57.1551C201.386 56.8443 202.566 56.1858 203.388 55.6915C204.21 55.1972 204.992 54.7506 205.127 54.699C205.309 54.6289 205.693 54.9244 206.628 55.8555C207.319 56.5433 207.884 57.1952 207.884 57.3044C207.884 57.4135 207.435 58.2319 206.887 59.1231C206.338 60.0141 205.646 61.2268 205.35 61.8177C205.053 62.4087 204.731 63.1637 204.632 63.4955C204.467 64.055 204.478 64.1309 204.783 64.5429C204.963 64.7872 205.501 65.9168 205.977 67.053C206.454 68.1892 206.967 69.3296 207.118 69.5872C207.323 69.9395 207.578 70.1192 208.147 70.3125C208.563 70.4539 210.069 70.8656 211.495 71.2275L214.087 71.8855V72.9723C214.087 73.5701 214.046 74.4438 213.997 74.914L213.908 75.7689L212.059 76.2216C211.042 76.4704 209.526 76.8921 208.689 77.1586L207.168 77.643L206.827 78.3743C206.64 78.7764 206.193 79.835 205.835 80.7267C205.476 81.6185 205.03 82.7465 204.843 83.2336L204.503 84.1189L205.152 85.4188C205.509 86.1336 206.278 87.501 206.863 88.4572L207.925 90.1959L206.812 91.3224C206.2 91.942 205.541 92.5308 205.347 92.6307C205.153 92.7308 204.899 92.7797 204.783 92.7394C204.667 92.6991 204.318 92.5062 204.008 92.3111C203.698 92.1158 202.467 91.391 201.273 90.7004L199.103 89.4448L197.727 90.0922C196.97 90.4483 195.741 90.9602 194.997 91.2299C194.252 91.4995 193.4 91.8437 193.104 91.9949C192.671 92.2157 192.508 92.4204 192.272 93.0352C192.111 93.4562 191.68 94.9829 191.313 96.4277L190.646 99.0546H188.707H186.768L186.533 97.962C186.403 97.3611 186.079 96.0239 185.811 94.9905C185.544 93.9571 185.203 92.8718 185.053 92.5787C184.891 92.2604 184.622 91.9881 184.386 91.9024C184.169 91.8236 183.357 91.5181 182.582 91.2236C181.806 90.929 180.543 90.3815 179.774 90.0069C178.526 89.3988 178.344 89.3461 178.082 89.5157C177.921 89.6201 177.091 90.1198 176.238 90.6261C175.385 91.1323 174.181 91.8401 173.563 92.1989C172.944 92.5578 172.355 92.8514 172.253 92.8514C172.151 92.8514 171.526 92.3165 170.863 91.6626C169.837 90.6506 169.674 90.426 169.761 90.1518C169.817 89.9746 170.468 88.7807 171.207 87.4986C171.946 86.2167 172.679 84.9381 172.837 84.6574L173.124 84.147L172.232 82.1384C171.741 81.0337 171.157 79.6144 170.934 78.9843C170.712 78.3544 170.529 77.8237 170.529 77.8054C170.529 77.7869 170.28 77.6448 169.976 77.4896C169.672 77.3344 168.578 76.9885 167.545 76.7211C166.511 76.4535 165.173 76.1284 164.57 75.9984L163.473 75.7623L163.512 73.8411L163.552 71.9197L166.23 71.2105C167.703 70.8204 169.211 70.3851 169.582 70.2434C170.113 70.04 170.317 69.8652 170.547 69.4132C170.708 69.0982 171.059 68.2317 171.328 67.4878C171.597 66.7437 172.104 65.5246 172.455 64.7788L173.092 63.4225L172.006 61.5361C171.409 60.4985 170.673 59.2547 170.372 58.772C170.071 58.2891 169.824 57.7249 169.824 57.518C169.824 57.234 170.131 56.8295 171.076 55.8694L172.328 54.5972L174.072 55.663C175.031 56.2492 176.4 57.021 177.116 57.3781L178.416 58.0275L179.089 57.8001C179.459 57.6749 180.016 57.4435 180.326 57.2858C180.636 57.128 181.612 56.7249 182.494 56.3899C183.377 56.055 184.243 55.6862 184.42 55.5704C184.596 55.4548 184.903 55.0247 185.101 54.6147C185.298 54.2047 185.724 52.8077 186.047 51.5101C186.476 49.7822 186.721 49.0561 186.962 48.7961C187.277 48.4554 187.357 48.4414 188.968 48.4414H190.646L191.304 51.0337ZM193.506 64.8948C192.77 64.5271 191.665 64.1006 191.052 63.947C190.29 63.7562 189.486 63.6701 188.515 63.6754C187.601 63.6804 186.733 63.7775 186.086 63.947C185.533 64.0922 184.771 64.3677 184.392 64.5593C184.014 64.7509 183.31 65.2048 182.827 65.5679C182.344 65.931 181.532 66.7148 181.022 67.3094C180.496 67.9227 179.84 68.9048 179.506 69.5787L178.917 70.7668V73.5968C178.917 75.9922 178.957 76.5457 179.18 77.2021C179.326 77.6286 179.641 78.3582 179.882 78.8235C180.16 79.36 180.785 80.1371 181.592 80.9485C182.597 81.9601 183.104 82.3478 184.013 82.8015C184.721 83.1555 185.544 83.4398 186.159 83.5436C186.751 83.6433 188.09 83.6925 189.45 83.6643L191.744 83.6169L192.863 83.0824C193.479 82.7885 194.417 82.1968 194.948 81.7676C195.479 81.3385 196.256 80.5719 196.675 80.0644C197.094 79.5567 197.657 78.721 197.927 78.2071C198.215 77.6585 198.517 76.7789 198.659 76.0771C198.842 75.1735 198.881 74.5019 198.82 73.3279C198.775 72.4734 198.633 71.4253 198.505 70.9988C198.376 70.5724 197.978 69.6524 197.62 68.9546C197.129 67.9963 196.71 67.426 195.908 66.6244C195.071 65.7888 194.561 65.4211 193.506 64.8948Z"/>
</mask>
<path fill-rule="evenodd" clip-rule="evenodd" d="M191.304 51.0337C191.666 52.4596 192.077 53.9663 192.219 54.382C192.412 54.9506 192.592 55.2058 192.944 55.4115C193.202 55.5621 194.342 56.0751 195.478 56.5518C196.614 57.0285 197.736 57.5607 197.971 57.7345C198.36 58.0223 198.453 58.0356 199.018 57.8852C199.359 57.7943 200.145 57.4658 200.766 57.1551C201.386 56.8443 202.566 56.1858 203.388 55.6915C204.21 55.1972 204.992 54.7506 205.127 54.699C205.309 54.6289 205.693 54.9244 206.628 55.8555C207.319 56.5433 207.884 57.1952 207.884 57.3044C207.884 57.4135 207.435 58.2319 206.887 59.1231C206.338 60.0141 205.646 61.2268 205.35 61.8177C205.053 62.4087 204.731 63.1637 204.632 63.4955C204.467 64.055 204.478 64.1309 204.783 64.5429C204.963 64.7872 205.501 65.9168 205.977 67.053C206.454 68.1892 206.967 69.3296 207.118 69.5872C207.323 69.9395 207.578 70.1192 208.147 70.3125C208.563 70.4539 210.069 70.8656 211.495 71.2275L214.087 71.8855V72.9723C214.087 73.5701 214.046 74.4438 213.997 74.914L213.908 75.7689L212.059 76.2216C211.042 76.4704 209.526 76.8921 208.689 77.1586L207.168 77.643L206.827 78.3743C206.64 78.7764 206.193 79.835 205.835 80.7267C205.476 81.6185 205.03 82.7465 204.843 83.2336L204.503 84.1189L205.152 85.4188C205.509 86.1336 206.278 87.501 206.863 88.4572L207.925 90.1959L206.812 91.3224C206.2 91.942 205.541 92.5308 205.347 92.6307C205.153 92.7308 204.899 92.7797 204.783 92.7394C204.667 92.6991 204.318 92.5062 204.008 92.3111C203.698 92.1158 202.467 91.391 201.273 90.7004L199.103 89.4448L197.727 90.0922C196.97 90.4483 195.741 90.9602 194.997 91.2299C194.252 91.4995 193.4 91.8437 193.104 91.9949C192.671 92.2157 192.508 92.4204 192.272 93.0352C192.111 93.4562 191.68 94.9829 191.313 96.4277L190.646 99.0546H188.707H186.768L186.533 97.962C186.403 97.3611 186.079 96.0239 185.811 94.9905C185.544 93.9571 185.203 92.8718 185.053 92.5787C184.891 92.2604 184.622 91.9881 184.386 91.9024C184.169 91.8236 183.357 91.5181 182.582 91.2236C181.806 90.929 180.543 90.3815 179.774 90.0069C178.526 89.3988 178.344 89.3461 178.082 89.5157C177.921 89.6201 177.091 90.1198 176.238 90.6261C175.385 91.1323 174.181 91.8401 173.563 92.1989C172.944 92.5578 172.355 92.8514 172.253 92.8514C172.151 92.8514 171.526 92.3165 170.863 91.6626C169.837 90.6506 169.674 90.426 169.761 90.1518C169.817 89.9746 170.468 88.7807 171.207 87.4986C171.946 86.2167 172.679 84.9381 172.837 84.6574L173.124 84.147L172.232 82.1384C171.741 81.0337 171.157 79.6144 170.934 78.9843C170.712 78.3544 170.529 77.8237 170.529 77.8054C170.529 77.7869 170.28 77.6448 169.976 77.4896C169.672 77.3344 168.578 76.9885 167.545 76.7211C166.511 76.4535 165.173 76.1284 164.57 75.9984L163.473 75.7623L163.512 73.8411L163.552 71.9197L166.23 71.2105C167.703 70.8204 169.211 70.3851 169.582 70.2434C170.113 70.04 170.317 69.8652 170.547 69.4132C170.708 69.0982 171.059 68.2317 171.328 67.4878C171.597 66.7437 172.104 65.5246 172.455 64.7788L173.092 63.4225L172.006 61.5361C171.409 60.4985 170.673 59.2547 170.372 58.772C170.071 58.2891 169.824 57.7249 169.824 57.518C169.824 57.234 170.131 56.8295 171.076 55.8694L172.328 54.5972L174.072 55.663C175.031 56.2492 176.4 57.021 177.116 57.3781L178.416 58.0275L179.089 57.8001C179.459 57.6749 180.016 57.4435 180.326 57.2858C180.636 57.128 181.612 56.7249 182.494 56.3899C183.377 56.055 184.243 55.6862 184.42 55.5704C184.596 55.4548 184.903 55.0247 185.101 54.6147C185.298 54.2047 185.724 52.8077 186.047 51.5101C186.476 49.7822 186.721 49.0561 186.962 48.7961C187.277 48.4554 187.357 48.4414 188.968 48.4414H190.646L191.304 51.0337ZM193.506 64.8948C192.77 64.5271 191.665 64.1006 191.052 63.947C190.29 63.7562 189.486 63.6701 188.515 63.6754C187.601 63.6804 186.733 63.7775 186.086 63.947C185.533 64.0922 184.771 64.3677 184.392 64.5593C184.014 64.7509 183.31 65.2048 182.827 65.5679C182.344 65.931 181.532 66.7148 181.022 67.3094C180.496 67.9227 179.84 68.9048 179.506 69.5787L178.917 70.7668V73.5968C178.917 75.9922 178.957 76.5457 179.18 77.2021C179.326 77.6286 179.641 78.3582 179.882 78.8235C180.16 79.36 180.785 80.1371 181.592 80.9485C182.597 81.9601 183.104 82.3478 184.013 82.8015C184.721 83.1555 185.544 83.4398 186.159 83.5436C186.751 83.6433 188.09 83.6925 189.45 83.6643L191.744 83.6169L192.863 83.0824C193.479 82.7885 194.417 82.1968 194.948 81.7676C195.479 81.3385 196.256 80.5719 196.675 80.0644C197.094 79.5567 197.657 78.721 197.927 78.2071C198.215 77.6585 198.517 76.7789 198.659 76.0771C198.842 75.1735 198.881 74.5019 198.82 73.3279C198.775 72.4734 198.633 71.4253 198.505 70.9988C198.376 70.5724 197.978 69.6524 197.62 68.9546C197.129 67.9963 196.71 67.426 195.908 66.6244C195.071 65.7888 194.561 65.4211 193.506 64.8948Z" fill="#B3C583" stroke="#B3C583" stroke-width="2" mask="url(#path-54-inside-1_482_5350)"/>
<path d="M312.801 138.674C312.801 179.254 279.905 212.15 239.325 212.15C198.745 212.15 165.848 179.254 165.848 138.674C165.848 98.0938 198.745 65.1973 239.325 65.1973C279.905 65.1973 312.801 98.0938 312.801 138.674ZM185.296 138.674C185.296 168.513 209.486 192.702 239.325 192.702C269.164 192.702 293.354 168.513 293.354 138.674C293.354 108.834 269.164 84.645 239.325 84.645C209.486 84.645 185.296 108.834 185.296 138.674Z" fill="#B3C583" fill-opacity="0.8"/>
<path fill-rule="evenodd" clip-rule="evenodd" d="M192.911 179.417C193.263 180.804 193.663 182.269 193.801 182.673C193.989 183.226 194.164 183.474 194.506 183.674C194.757 183.821 195.865 184.32 196.97 184.783C198.075 185.247 199.166 185.764 199.394 185.933C199.772 186.213 199.863 186.226 200.412 186.08C200.744 185.991 201.509 185.672 202.112 185.37C202.715 185.068 203.862 184.427 204.662 183.947C205.461 183.466 206.222 183.032 206.353 182.981C206.53 182.913 206.903 183.201 207.813 184.106C208.484 184.775 209.034 185.409 209.034 185.515C209.034 185.621 208.598 186.417 208.064 187.283C207.53 188.15 206.858 189.329 206.57 189.904C206.281 190.478 205.967 191.213 205.872 191.535C205.711 192.079 205.722 192.153 206.018 192.554C206.194 192.791 206.717 193.89 207.18 194.995C207.643 196.099 208.142 197.208 208.289 197.459C208.489 197.802 208.737 197.976 209.29 198.164C209.694 198.302 211.159 198.702 212.545 199.054L215.065 199.694V200.751C215.065 201.332 215.026 202.182 214.978 202.639L214.892 203.47L213.094 203.91C212.105 204.152 210.63 204.562 209.817 204.821L208.337 205.293L208.006 206.004C207.824 206.395 207.39 207.424 207.041 208.291C206.693 209.158 206.259 210.255 206.077 210.729L205.746 211.59L206.377 212.854C206.724 213.549 207.473 214.879 208.041 215.808L209.074 217.499L207.992 218.595C207.397 219.197 206.755 219.77 206.567 219.867C206.378 219.964 206.132 220.012 206.019 219.972C205.905 219.933 205.566 219.746 205.265 219.556C204.963 219.366 203.767 218.661 202.606 217.99L200.495 216.769L199.157 217.398C198.421 217.745 197.226 218.242 196.502 218.505C195.778 218.767 194.95 219.102 194.662 219.248C194.241 219.463 194.082 219.662 193.853 220.26C193.696 220.669 193.276 222.154 192.92 223.559L192.272 226.113H190.386H188.501L188.272 225.051C188.146 224.467 187.83 223.166 187.57 222.161C187.31 221.157 186.978 220.101 186.833 219.816C186.675 219.507 186.414 219.242 186.184 219.159C185.973 219.082 185.183 218.785 184.429 218.498C183.676 218.212 182.447 217.68 181.699 217.315C180.485 216.724 180.309 216.673 180.054 216.838C179.897 216.939 179.09 217.425 178.261 217.917C177.432 218.41 176.261 219.098 175.66 219.447C175.058 219.796 174.485 220.081 174.386 220.081C174.287 220.081 173.678 219.561 173.034 218.925C172.037 217.941 171.878 217.723 171.962 217.456C172.017 217.284 172.65 216.123 173.368 214.876C174.087 213.63 174.8 212.386 174.954 212.113L175.233 211.617L174.365 209.664C173.888 208.59 173.32 207.21 173.103 206.597C172.887 205.984 172.71 205.468 172.71 205.45C172.71 205.432 172.468 205.294 172.172 205.143C171.876 204.992 170.812 204.656 169.807 204.396C168.803 204.136 167.501 203.82 166.914 203.693L165.848 203.464L165.886 201.595L165.924 199.727L168.529 199.037C169.961 198.658 171.428 198.235 171.788 198.097C172.305 197.899 172.503 197.729 172.727 197.29C172.883 196.983 173.225 196.141 173.487 195.417C173.748 194.694 174.241 193.508 174.582 192.783L175.201 191.464L174.145 189.63C173.565 188.621 172.85 187.412 172.557 186.942C172.264 186.473 172.024 185.924 172.024 185.723C172.024 185.447 172.323 185.053 173.241 184.12L174.458 182.882L176.154 183.919C177.087 184.489 178.419 185.239 179.114 185.587L180.379 186.218L181.033 185.997C181.393 185.875 181.935 185.65 182.236 185.497C182.538 185.343 183.486 184.951 184.345 184.626C185.203 184.3 186.045 183.941 186.217 183.829C186.388 183.716 186.686 183.298 186.879 182.899C187.071 182.501 187.485 181.142 187.799 179.88C188.216 178.2 188.454 177.494 188.689 177.241C188.996 176.91 189.073 176.896 190.64 176.896H192.272L192.911 179.417ZM195.053 192.896C194.336 192.538 193.263 192.124 192.666 191.974C191.926 191.789 191.144 191.705 190.199 191.71C189.31 191.715 188.466 191.81 187.837 191.974C187.299 192.116 186.558 192.383 186.19 192.57C185.823 192.756 185.138 193.197 184.668 193.55C184.198 193.904 183.408 194.666 182.913 195.244C182.401 195.84 181.763 196.795 181.438 197.451L180.866 198.606V201.358C180.866 203.687 180.905 204.225 181.122 204.864C181.263 205.279 181.57 205.988 181.805 206.44C182.075 206.962 182.683 207.718 183.467 208.507C184.445 209.49 184.937 209.867 185.821 210.309C186.51 210.653 187.31 210.929 187.908 211.03C188.483 211.127 189.786 211.175 191.109 211.148L193.339 211.102L194.428 210.582C195.026 210.296 195.939 209.721 196.455 209.303C196.972 208.886 197.727 208.141 198.134 207.647C198.541 207.153 199.089 206.341 199.351 205.841C199.631 205.308 199.926 204.452 200.064 203.77C200.242 202.891 200.28 202.238 200.22 201.096C200.176 200.266 200.038 199.246 199.913 198.832C199.788 198.417 199.401 197.522 199.053 196.844C198.576 195.912 198.168 195.357 197.388 194.578C196.574 193.765 196.078 193.408 195.053 192.896Z" fill="#D9D8C5"/>
<mask id="path-57-inside-2_482_5350" fill="white">
<path fill-rule="evenodd" clip-rule="evenodd" d="M278.592 174.479C278.742 175.069 278.912 175.692 278.971 175.864C279.051 176.1 279.125 176.205 279.271 176.29C279.378 176.353 279.849 176.565 280.319 176.762C280.789 176.96 281.254 177.18 281.351 177.252C281.512 177.371 281.551 177.376 281.784 177.314C281.925 177.276 282.251 177.14 282.507 177.012C282.764 176.883 283.252 176.611 283.593 176.406C283.933 176.202 284.256 176.017 284.312 175.996C284.388 175.967 284.546 176.089 284.933 176.474C285.219 176.759 285.453 177.029 285.453 177.074C285.453 177.119 285.267 177.457 285.04 177.826C284.813 178.195 284.527 178.697 284.404 178.941C284.282 179.186 284.148 179.498 284.107 179.636C284.039 179.867 284.044 179.898 284.17 180.069C284.244 180.17 284.467 180.637 284.664 181.108C284.861 181.578 285.074 182.05 285.136 182.156C285.221 182.302 285.327 182.376 285.562 182.456C285.734 182.515 286.357 182.685 286.947 182.835L288.02 183.107V183.557C288.02 183.804 288.003 184.166 287.983 184.36L287.946 184.714L287.181 184.901C286.76 185.004 286.132 185.179 285.786 185.289L285.157 185.49L285.016 185.792C284.938 185.959 284.753 186.397 284.605 186.766C284.457 187.135 284.272 187.601 284.195 187.803L284.054 188.169L284.322 188.707C284.47 189.003 284.789 189.569 285.03 189.964L285.47 190.684L285.01 191.15C284.756 191.406 284.483 191.65 284.403 191.691C284.323 191.733 284.218 191.753 284.17 191.736C284.122 191.72 283.977 191.64 283.849 191.559C283.721 191.478 283.212 191.179 282.718 190.893L281.819 190.373L281.25 190.641C280.937 190.788 280.428 191 280.12 191.112C279.812 191.223 279.46 191.366 279.337 191.428C279.158 191.52 279.09 191.604 278.993 191.859C278.926 192.033 278.748 192.665 278.596 193.263L278.32 194.35H277.518H276.715L276.618 193.898C276.564 193.649 276.43 193.096 276.319 192.668C276.209 192.24 276.068 191.791 276.006 191.67C275.939 191.538 275.827 191.426 275.73 191.39C275.64 191.357 275.304 191.231 274.983 191.109C274.662 190.987 274.139 190.761 273.821 190.606C273.305 190.354 273.229 190.332 273.121 190.402C273.054 190.446 272.711 190.652 272.358 190.862C272.005 191.071 271.507 191.364 271.251 191.513C270.995 191.661 270.751 191.783 270.709 191.783C270.667 191.783 270.408 191.561 270.134 191.291C269.71 190.872 269.642 190.779 269.678 190.666C269.701 190.592 269.97 190.098 270.276 189.568C270.582 189.037 270.886 188.508 270.951 188.392L271.069 188.181L270.7 187.35C270.497 186.893 270.256 186.305 270.163 186.045C270.071 185.784 269.996 185.564 269.996 185.557C269.996 185.549 269.893 185.49 269.767 185.426C269.641 185.362 269.188 185.219 268.761 185.108C268.333 184.997 267.779 184.863 267.53 184.809L267.076 184.711L267.092 183.916L267.109 183.121L268.217 182.828C268.826 182.667 269.45 182.486 269.604 182.428C269.824 182.344 269.908 182.271 270.003 182.084C270.07 181.954 270.215 181.595 270.326 181.288C270.438 180.98 270.647 180.475 270.793 180.167L271.056 179.605L270.607 178.825C270.36 178.395 270.056 177.881 269.931 177.681C269.806 177.481 269.704 177.248 269.704 177.162C269.704 177.045 269.831 176.877 270.222 176.48L270.74 175.953L271.462 176.395C271.858 176.637 272.425 176.956 272.721 177.104L273.259 177.373L273.538 177.279C273.691 177.227 273.921 177.131 274.05 177.066C274.178 177.001 274.582 176.834 274.947 176.695C275.312 176.557 275.671 176.404 275.744 176.356C275.817 176.308 275.943 176.13 276.025 175.961C276.107 175.791 276.283 175.213 276.417 174.676C276.595 173.961 276.696 173.661 276.795 173.553C276.926 173.412 276.959 173.406 277.626 173.406H278.32L278.592 174.479ZM279.504 180.215C279.199 180.062 278.742 179.886 278.488 179.822C278.173 179.743 277.84 179.708 277.438 179.71C277.06 179.712 276.701 179.752 276.433 179.822C276.204 179.882 275.889 179.996 275.732 180.076C275.576 180.155 275.284 180.343 275.085 180.493C274.885 180.643 274.549 180.968 274.338 181.214C274.12 181.467 273.848 181.874 273.71 182.153L273.466 182.644V183.815C273.466 184.807 273.483 185.036 273.576 185.307C273.636 185.484 273.766 185.786 273.866 185.978C273.981 186.2 274.24 186.522 274.573 186.857C274.99 187.276 275.199 187.436 275.575 187.624C275.868 187.771 276.209 187.888 276.463 187.931C276.708 187.973 277.262 187.993 277.825 187.981L278.774 187.962L279.238 187.74C279.492 187.619 279.88 187.374 280.1 187.196C280.32 187.019 280.642 186.702 280.815 186.492C280.988 186.282 281.221 185.936 281.333 185.723C281.452 185.496 281.577 185.132 281.636 184.842C281.712 184.468 281.728 184.19 281.702 183.704C281.684 183.351 281.625 182.917 281.572 182.74C281.519 182.564 281.354 182.183 281.206 181.894C281.003 181.498 280.829 181.262 280.497 180.93C280.151 180.584 279.94 180.432 279.504 180.215Z"/>
</mask>
<path fill-rule="evenodd" clip-rule="evenodd" d="M278.592 174.479C278.742 175.069 278.912 175.692 278.971 175.864C279.051 176.1 279.125 176.205 279.271 176.29C279.378 176.353 279.849 176.565 280.319 176.762C280.789 176.96 281.254 177.18 281.351 177.252C281.512 177.371 281.551 177.376 281.784 177.314C281.925 177.276 282.251 177.14 282.507 177.012C282.764 176.883 283.252 176.611 283.593 176.406C283.933 176.202 284.256 176.017 284.312 175.996C284.388 175.967 284.546 176.089 284.933 176.474C285.219 176.759 285.453 177.029 285.453 177.074C285.453 177.119 285.267 177.457 285.04 177.826C284.813 178.195 284.527 178.697 284.404 178.941C284.282 179.186 284.148 179.498 284.107 179.636C284.039 179.867 284.044 179.898 284.17 180.069C284.244 180.17 284.467 180.637 284.664 181.108C284.861 181.578 285.074 182.05 285.136 182.156C285.221 182.302 285.327 182.376 285.562 182.456C285.734 182.515 286.357 182.685 286.947 182.835L288.02 183.107V183.557C288.02 183.804 288.003 184.166 287.983 184.36L287.946 184.714L287.181 184.901C286.76 185.004 286.132 185.179 285.786 185.289L285.157 185.49L285.016 185.792C284.938 185.959 284.753 186.397 284.605 186.766C284.457 187.135 284.272 187.601 284.195 187.803L284.054 188.169L284.322 188.707C284.47 189.003 284.789 189.569 285.03 189.964L285.47 190.684L285.01 191.15C284.756 191.406 284.483 191.65 284.403 191.691C284.323 191.733 284.218 191.753 284.17 191.736C284.122 191.72 283.977 191.64 283.849 191.559C283.721 191.478 283.212 191.179 282.718 190.893L281.819 190.373L281.25 190.641C280.937 190.788 280.428 191 280.12 191.112C279.812 191.223 279.46 191.366 279.337 191.428C279.158 191.52 279.09 191.604 278.993 191.859C278.926 192.033 278.748 192.665 278.596 193.263L278.32 194.35H277.518H276.715L276.618 193.898C276.564 193.649 276.43 193.096 276.319 192.668C276.209 192.24 276.068 191.791 276.006 191.67C275.939 191.538 275.827 191.426 275.73 191.39C275.64 191.357 275.304 191.231 274.983 191.109C274.662 190.987 274.139 190.761 273.821 190.606C273.305 190.354 273.229 190.332 273.121 190.402C273.054 190.446 272.711 190.652 272.358 190.862C272.005 191.071 271.507 191.364 271.251 191.513C270.995 191.661 270.751 191.783 270.709 191.783C270.667 191.783 270.408 191.561 270.134 191.291C269.71 190.872 269.642 190.779 269.678 190.666C269.701 190.592 269.97 190.098 270.276 189.568C270.582 189.037 270.886 188.508 270.951 188.392L271.069 188.181L270.7 187.35C270.497 186.893 270.256 186.305 270.163 186.045C270.071 185.784 269.996 185.564 269.996 185.557C269.996 185.549 269.893 185.49 269.767 185.426C269.641 185.362 269.188 185.219 268.761 185.108C268.333 184.997 267.779 184.863 267.53 184.809L267.076 184.711L267.092 183.916L267.109 183.121L268.217 182.828C268.826 182.667 269.45 182.486 269.604 182.428C269.824 182.344 269.908 182.271 270.003 182.084C270.07 181.954 270.215 181.595 270.326 181.288C270.438 180.98 270.647 180.475 270.793 180.167L271.056 179.605L270.607 178.825C270.36 178.395 270.056 177.881 269.931 177.681C269.806 177.481 269.704 177.248 269.704 177.162C269.704 177.045 269.831 176.877 270.222 176.48L270.74 175.953L271.462 176.395C271.858 176.637 272.425 176.956 272.721 177.104L273.259 177.373L273.538 177.279C273.691 177.227 273.921 177.131 274.05 177.066C274.178 177.001 274.582 176.834 274.947 176.695C275.312 176.557 275.671 176.404 275.744 176.356C275.817 176.308 275.943 176.13 276.025 175.961C276.107 175.791 276.283 175.213 276.417 174.676C276.595 173.961 276.696 173.661 276.795 173.553C276.926 173.412 276.959 173.406 277.626 173.406H278.32L278.592 174.479ZM279.504 180.215C279.199 180.062 278.742 179.886 278.488 179.822C278.173 179.743 277.84 179.708 277.438 179.71C277.06 179.712 276.701 179.752 276.433 179.822C276.204 179.882 275.889 179.996 275.732 180.076C275.576 180.155 275.284 180.343 275.085 180.493C274.885 180.643 274.549 180.968 274.338 181.214C274.12 181.467 273.848 181.874 273.71 182.153L273.466 182.644V183.815C273.466 184.807 273.483 185.036 273.576 185.307C273.636 185.484 273.766 185.786 273.866 185.978C273.981 186.2 274.24 186.522 274.573 186.857C274.99 187.276 275.199 187.436 275.575 187.624C275.868 187.771 276.209 187.888 276.463 187.931C276.708 187.973 277.262 187.993 277.825 187.981L278.774 187.962L279.238 187.74C279.492 187.619 279.88 187.374 280.1 187.196C280.32 187.019 280.642 186.702 280.815 186.492C280.988 186.282 281.221 185.936 281.333 185.723C281.452 185.496 281.577 185.132 281.636 184.842C281.712 184.468 281.728 184.19 281.702 183.704C281.684 183.351 281.625 182.917 281.572 182.74C281.519 182.564 281.354 182.183 281.206 181.894C281.003 181.498 280.829 181.262 280.497 180.93C280.151 180.584 279.94 180.432 279.504 180.215Z" fill="#F2E8C4" stroke="#F2E8C4" stroke-width="2" mask="url(#path-57-inside-2_482_5350)"/>
<path fill-rule="evenodd" clip-rule="evenodd" d="M205.75 109.134C205.911 105.346 205.39 102.023 206.826 101.096C207.668 100.556 209.065 100.747 210.575 100.716C212.697 100.673 215.045 100.716 216.469 100.638C241.652 100.52 253.075 99.3542 263.892 106.238C268.197 108.977 272.267 112.135 276.169 118.021C287.173 134.614 283.604 158.561 266.498 171.322C262.315 174.453 256.715 177.709 248.497 178.398C242.509 178.899 236.365 178.883 230.014 178.867C222.825 178.867 215.534 178.844 208.67 178.914C206.279 178.914 205.848 177.74 205.781 175.737C205.75 174.715 205.785 173.283 205.75 172.109C205.805 166.63 205.695 161.116 205.75 155.622C205.868 151.379 208.975 153.086 211.734 155.085C213.186 156.134 214.34 156.318 214.778 157.304C215.111 158.056 215.064 160.764 215.056 163.343C215.056 166.102 215.056 168.751 215.08 169.945H244.575C251.369 169.424 253.185 165.045 253.494 162.611C254.159 157.394 249.162 153.888 243.19 150.421C236.345 146.433 219.005 137.671 211.159 131.605C209.621 130.431 208.92 128.971 208.302 127.934C205.331 122.933 206.036 117.712 205.75 109.134ZM273.061 145.29C273.321 143.793 273.485 142.28 273.554 140.762C274.016 131.965 271.109 121.019 260.272 114.57C255.02 111.434 249.043 109.719 242.928 109.592H242.196C241.347 109.592 240.482 109.592 239.598 109.623H235.782L231.818 109.592C220.645 109.451 214.544 108.613 207.965 103.244C211.096 112.104 213.796 118.397 219.831 123.621C220.984 124.722 222.263 125.682 223.642 126.482C241.805 138.391 260.781 148.155 259.032 158.713C258.022 164.826 251.522 169.671 245.519 170.062C260.867 171.401 271.187 159.605 273.077 145.278L273.061 145.29Z" fill="white" fill-opacity="0.85"/>
<path fill-rule="evenodd" clip-rule="evenodd" d="M208.987 104.057C212.725 114.58 214.803 120.697 223.643 126.492C241.805 138.401 260.782 148.165 259.032 158.723C258.023 164.836 251.522 169.681 245.519 170.072C260.868 171.411 271.187 159.616 273.078 145.289C275.465 127.173 264.3 108.624 239.583 109.633C223.189 109.61 217.389 109.669 208.987 104.057Z" stroke="#49982B" stroke-width="5.67" stroke-miterlimit="22.93"/>
<path d="M217.63 107.93C230.861 115.573 265.789 135.226 264.865 154.652C264.654 159.098 262.458 163.528 257.821 167.801" stroke="#49982B" stroke-width="2.83" stroke-miterlimit="22.93"/>
<path d="M243.222 124.266C243.222 124.266 237.152 118.396 234.784 109.998" stroke="#49982B" stroke-width="2.83" stroke-miterlimit="22.93"/>
<path d="M254.624 134.167C254.624 134.167 247.306 120.251 249.58 110.096" stroke="#49982B" stroke-width="2.83" stroke-miterlimit="22.93"/>
<path d="M259.754 140.231C259.754 140.231 251.363 125.36 255.601 112.164" stroke="#49982B" stroke-width="2.83" stroke-miterlimit="22.93"/>
<path d="M264.57 150.629C264.57 150.629 262.312 136.639 270.483 125.975" stroke="#49982B" stroke-width="2.83" stroke-miterlimit="22.93"/>
<path d="M264.842 154.855C264.842 154.855 265.754 149.447 273.061 145.295" stroke="#49982B" stroke-width="2.83" stroke-miterlimit="22.93"/>
<path d="M234.365 118.062C233.782 117.713 229.231 113.115 212.094 113.999" stroke="#49982B" stroke-width="2.83" stroke-miterlimit="22.93"/>
<path d="M249.402 129.244C249.402 129.244 231.85 117.414 217.946 122.345" stroke="#49982B" stroke-width="2.83" stroke-miterlimit="22.93"/>
<path d="M259.447 139.718C259.447 139.718 247.315 130.208 231.532 131.985" stroke="#49982B" stroke-width="2.83" stroke-miterlimit="22.93"/>
<path d="M264.451 150.132C264.451 150.132 259.242 145.479 252.487 145.827" stroke="#49982B" stroke-width="2.83" stroke-miterlimit="22.93"/>
</g>
<defs>
<linearGradient id="paint0_linear_482_5350" x1="31.9846" y1="22.4727" x2="31.9846" y2="64.1414" gradientUnits="userSpaceOnUse">
<stop stop-color="#71A623"/>
<stop offset="1" stop-color="#71A623" stop-opacity="0"/>
</linearGradient>
<linearGradient id="paint1_linear_482_5350" x1="-8.9584" y1="2.73242" x2="-8.9584" y2="21.0331" gradientUnits="userSpaceOnUse">
<stop stop-color="#71A623"/>
<stop offset="1" stop-color="#71A623" stop-opacity="0.46"/>
</linearGradient>
<linearGradient id="paint2_linear_482_5350" x1="78.8447" y1="18.3008" x2="78.8447" y2="63.9159" gradientUnits="userSpaceOnUse">
<stop stop-color="#71A623"/>
<stop offset="1" stop-color="#71A623" stop-opacity="0"/>
</linearGradient>
<linearGradient id="paint3_linear_482_5350" x1="113.533" y1="18.3008" x2="113.533" y2="45.3421" gradientUnits="userSpaceOnUse">
<stop stop-color="#71A623"/>
<stop offset="1" stop-color="#71A623" stop-opacity="0"/>
</linearGradient>
<linearGradient id="paint4_linear_482_5350" x1="93.543" y1="45.3418" x2="93.543" y2="81.67" gradientUnits="userSpaceOnUse">
<stop stop-color="#71A623"/>
<stop offset="1" stop-color="#71A623" stop-opacity="0"/>
</linearGradient>
<linearGradient id="paint5_linear_482_5350" x1="124.9" y1="81.9434" x2="124.9" y2="96.9663" gradientUnits="userSpaceOnUse">
<stop stop-color="#71A623"/>
<stop offset="1" stop-color="#71A623" stop-opacity="0"/>
</linearGradient>
<linearGradient id="paint6_linear_482_5350" x1="4.17237" y1="66.9199" x2="4.17237" y2="84.4012" gradientUnits="userSpaceOnUse">
<stop stop-color="#71A623"/>
<stop offset="1" stop-color="#71A623" stop-opacity="0"/>
</linearGradient>
<linearGradient id="paint7_linear_482_5350" x1="95.6986" y1="108.713" x2="95.6986" y2="254.572" gradientUnits="userSpaceOnUse">
<stop stop-color="#71A623"/>
<stop offset="1" stop-color="#71A623" stop-opacity="0"/>
</linearGradient>
<linearGradient id="paint8_linear_482_5350" x1="185.658" y1="108.984" x2="185.658" y2="141.762" gradientUnits="userSpaceOnUse">
<stop stop-color="#71A623"/>
<stop offset="1" stop-color="#71A623" stop-opacity="0"/>
</linearGradient>
<linearGradient id="paint9_linear_482_5350" x1="118.628" y1="142.035" x2="118.628" y2="242.826" gradientUnits="userSpaceOnUse">
<stop stop-color="#71A623"/>
<stop offset="1" stop-color="#71A623" stop-opacity="0"/>
</linearGradient>
<linearGradient id="paint10_linear_482_5350" x1="133.329" y1="213.873" x2="133.329" y2="243.1" gradientUnits="userSpaceOnUse">
<stop stop-color="#71A623"/>
<stop offset="1" stop-color="#71A623" stop-opacity="0"/>
</linearGradient>
<linearGradient id="paint11_linear_482_5350" x1="228.772" y1="213.873" x2="228.772" y2="257.303" gradientUnits="userSpaceOnUse">
<stop stop-color="#71A623"/>
<stop offset="1" stop-color="#71A623" stop-opacity="0"/>
</linearGradient>
<linearGradient id="paint12_linear_482_5350" x1="232.694" y1="240.367" x2="232.694" y2="257.575" gradientUnits="userSpaceOnUse">
<stop stop-color="#71A623"/>
<stop offset="1" stop-color="#71A623" stop-opacity="0"/>
</linearGradient>
<linearGradient id="paint13_linear_482_5350" x1="185.46" y1="67.4668" x2="185.46" y2="240.367" gradientUnits="userSpaceOnUse">
<stop stop-color="#71A623"/>
<stop offset="1" stop-color="#71A623" stop-opacity="0"/>
</linearGradient>
<linearGradient id="paint14_linear_482_5350" x1="191.644" y1="63.6426" x2="191.644" y2="87.4062" gradientUnits="userSpaceOnUse">
<stop stop-color="#71A623"/>
<stop offset="1" stop-color="#71A623" stop-opacity="0"/>
</linearGradient>
<linearGradient id="paint15_linear_482_5350" x1="95.5024" y1="87.6797" x2="95.5024" y2="139.304" gradientUnits="userSpaceOnUse">
<stop stop-color="#71A623"/>
<stop offset="1" stop-color="#71A623" stop-opacity="0"/>
</linearGradient>
<linearGradient id="paint16_linear_482_5350" x1="-1.70663" y1="139.305" x2="-1.70663" y2="207.591" gradientUnits="userSpaceOnUse">
<stop stop-color="#71A623"/>
<stop offset="1" stop-color="#71A623" stop-opacity="0"/>
</linearGradient>
<linearGradient id="paint17_linear_482_5350" x1="41.0185" y1="170.988" x2="41.0185" y2="207.863" gradientUnits="userSpaceOnUse">
<stop stop-color="#71A623"/>
<stop offset="1" stop-color="#71A623" stop-opacity="0"/>
</linearGradient>
<linearGradient id="paint18_linear_482_5350" x1="22.2035" y1="171.262" x2="22.2035" y2="202.4" gradientUnits="userSpaceOnUse">
<stop stop-color="#71A623"/>
<stop offset="1" stop-color="#71A623" stop-opacity="0"/>
</linearGradient>
<linearGradient id="paint19_linear_482_5350" x1="163.118" y1="39.8789" x2="163.118" y2="202.4" gradientUnits="userSpaceOnUse">
<stop stop-color="#71A623"/>
<stop offset="1" stop-color="#71A623" stop-opacity="0"/>
</linearGradient>
<linearGradient id="paint20_linear_482_5350" x1="338.526" y1="40.4258" x2="338.526" y2="84.4021" gradientUnits="userSpaceOnUse">
<stop stop-color="#71A623"/>
<stop offset="1" stop-color="#71A623" stop-opacity="0"/>
</linearGradient>
<linearGradient id="paint21_linear_482_5350" x1="248.373" y1="84.6758" x2="248.373" y2="96.421" gradientUnits="userSpaceOnUse">
<stop stop-color="#71A623"/>
<stop offset="1" stop-color="#71A623" stop-opacity="0"/>
</linearGradient>
<linearGradient id="paint22_linear_482_5350" x1="138.62" y1="63.6426" x2="138.62" y2="137.118" gradientUnits="userSpaceOnUse">
<stop stop-color="#71A623"/>
<stop offset="1" stop-color="#71A623" stop-opacity="0"/>
</linearGradient>
<linearGradient id="paint23_linear_482_5350" x1="189.184" y1="138.211" x2="189.184" y2="245.83" gradientUnits="userSpaceOnUse">
<stop stop-color="#71A623"/>
<stop offset="1" stop-color="#71A623" stop-opacity="0"/>
</linearGradient>
<linearGradient id="paint24_linear_482_5350" x1="334.41" y1="236.545" x2="334.41" y2="245.559" gradientUnits="userSpaceOnUse">
<stop stop-color="#71A623"/>
<stop offset="1" stop-color="#71A623" stop-opacity="0"/>
</linearGradient>
<linearGradient id="paint25_linear_482_5350" x1="347.543" y1="237.09" x2="347.543" y2="251.02" gradientUnits="userSpaceOnUse">
<stop stop-color="#71A623"/>
<stop offset="1" stop-color="#71A623" stop-opacity="0"/>
</linearGradient>
<linearGradient id="paint26_linear_482_5350" x1="410.846" y1="119.637" x2="410.846" y2="251.566" gradientUnits="userSpaceOnUse">
<stop stop-color="#71A623"/>
<stop offset="1" stop-color="#71A623" stop-opacity="0"/>
</linearGradient>
<linearGradient id="paint27_linear_482_5350" x1="480.03" y1="205.951" x2="480.03" y2="260.034" gradientUnits="userSpaceOnUse">
<stop stop-color="#71A623"/>
<stop offset="1" stop-color="#71A623" stop-opacity="0"/>
</linearGradient>
<linearGradient id="paint28_linear_482_5350" x1="440.636" y1="219.336" x2="440.636" y2="235.998" gradientUnits="userSpaceOnUse">
<stop stop-color="#71A623"/>
<stop offset="1" stop-color="#71A623" stop-opacity="0"/>
</linearGradient>
<linearGradient id="paint29_linear_482_5350" x1="482.969" y1="0" x2="482.969" y2="86.86" gradientUnits="userSpaceOnUse">
<stop stop-color="#71A623"/>
<stop offset="1" stop-color="#71A623" stop-opacity="0"/>
</linearGradient>
<linearGradient id="paint30_linear_482_5350" x1="450.24" y1="87.1328" x2="450.24" y2="96.1466" gradientUnits="userSpaceOnUse">
<stop stop-color="#71A623"/>
<stop offset="1" stop-color="#71A623" stop-opacity="0"/>
</linearGradient>
<linearGradient id="paint31_linear_482_5350" x1="401.829" y1="25.9492" x2="401.829" y2="69.3792" gradientUnits="userSpaceOnUse">
<stop stop-color="#71A623"/>
<stop offset="1" stop-color="#71A623" stop-opacity="0"/>
</linearGradient>
<linearGradient id="paint32_linear_482_5350" x1="293.12" y1="27.1203" x2="287.369" y2="126.366" gradientUnits="userSpaceOnUse">
<stop stop-color="#71A623"/>
<stop offset="1" stop-color="#71A623" stop-opacity="0"/>
</linearGradient>
<linearGradient id="paint33_linear_482_5350" x1="484.537" y1="69.1055" x2="484.537" y2="110.077" gradientUnits="userSpaceOnUse">
<stop stop-color="#71A623"/>
<stop offset="1" stop-color="#71A623" stop-opacity="0"/>
</linearGradient>
<linearGradient id="paint34_linear_482_5350" x1="452.984" y1="0.273437" x2="452.984" y2="92.5963" gradientUnits="userSpaceOnUse">
<stop stop-color="#71A623"/>
<stop offset="1" stop-color="#71A623" stop-opacity="0"/>
</linearGradient>
<linearGradient id="paint35_linear_482_5350" x1="102.786" y1="133.164" x2="102.786" y2="-4.58592" gradientUnits="userSpaceOnUse">
<stop stop-color="#B3C583"/>
<stop offset="1" stop-color="#B3C583" stop-opacity="0"/>
</linearGradient>
<linearGradient id="paint36_linear_482_5350" x1="404.873" y1="124.164" x2="404.873" y2="62.4917" gradientUnits="userSpaceOnUse">
<stop stop-color="#B3C583"/>
<stop offset="1" stop-color="#B3C583" stop-opacity="0"/>
</linearGradient>
<linearGradient id="paint37_linear_482_5350" x1="383.28" y1="185.832" x2="383.28" y2="88.1466" gradientUnits="userSpaceOnUse">
<stop stop-color="#B3C583"/>
<stop offset="1" stop-color="#B3C583" stop-opacity="0"/>
</linearGradient>
<linearGradient id="paint38_linear_482_5350" x1="461.742" y1="220.949" x2="461.742" y2="186.287" gradientUnits="userSpaceOnUse">
<stop stop-color="#B3C583"/>
<stop offset="1" stop-color="#B3C583" stop-opacity="0"/>
</linearGradient>
<linearGradient id="paint39_linear_482_5350" x1="288.743" y1="300.178" x2="288.743" y2="216.447" gradientUnits="userSpaceOnUse">
<stop stop-color="#B3C583"/>
<stop offset="1" stop-color="#B3C583" stop-opacity="0"/>
</linearGradient>
<linearGradient id="paint40_linear_482_5350" x1="159.893" y1="265.514" x2="159.893" y2="186.735" gradientUnits="userSpaceOnUse">
<stop stop-color="#B3C583"/>
<stop offset="1" stop-color="#B3C583" stop-opacity="0"/>
</linearGradient>
<linearGradient id="paint41_linear_482_5350" x1="76.1523" y1="185.836" x2="76.1523" y2="134.067" gradientUnits="userSpaceOnUse">
<stop stop-color="#B3C583"/>
<stop offset="1" stop-color="#B3C583" stop-opacity="0"/>
</linearGradient>
<linearGradient id="paint42_linear_482_5350" x1="170.203" y1="-17.2193" x2="463.689" y2="-175.104" gradientUnits="userSpaceOnUse">
<stop stop-color="#B3C583"/>
<stop offset="1" stop-color="#B3C583" stop-opacity="0"/>
</linearGradient>
<linearGradient id="paint43_linear_482_5350" x1="576.915" y1="326.285" x2="576.915" y2="-64.9069" gradientUnits="userSpaceOnUse">
<stop stop-color="#B3C583"/>
<stop offset="1" stop-color="#B3C583" stop-opacity="0"/>
</linearGradient>
<linearGradient id="paint44_linear_482_5350" x1="327.374" y1="330.336" x2="327.374" y2="-97.3193" gradientUnits="userSpaceOnUse">
<stop stop-color="#B3C583"/>
<stop offset="1" stop-color="#B3C583" stop-opacity="0"/>
</linearGradient>
<linearGradient id="paint45_linear_482_5350" x1="388.076" y1="8.01758" x2="388.076" y2="-73.462" gradientUnits="userSpaceOnUse">
<stop stop-color="#B3C583"/>
<stop offset="1" stop-color="#B3C583" stop-opacity="0"/>
</linearGradient>
<linearGradient id="paint46_linear_482_5350" x1="425.511" y1="49.8848" x2="425.511" y2="-83.8138" gradientUnits="userSpaceOnUse">
<stop stop-color="#B3C583"/>
<stop offset="1" stop-color="#B3C583" stop-opacity="0"/>
</linearGradient>
<linearGradient id="paint47_linear_482_5350" x1="353.046" y1="88.5977" x2="353.046" y2="-6.38683" gradientUnits="userSpaceOnUse">
<stop stop-color="#B3C583"/>
<stop offset="1" stop-color="#B3C583" stop-opacity="0"/>
</linearGradient>
<linearGradient id="paint48_linear_482_5350" x1="345.368" y1="62.0391" x2="345.368" y2="-7.28609" gradientUnits="userSpaceOnUse">
<stop stop-color="#B3C583"/>
<stop offset="1" stop-color="#B3C583" stop-opacity="0"/>
</linearGradient>
<linearGradient id="paint49_linear_482_5350" x1="174.548" y1="-71.7953" x2="138.021" y2="-15.0521" gradientUnits="userSpaceOnUse">
<stop stop-color="#B3C583"/>
<stop offset="1" stop-color="#B3C583" stop-opacity="0"/>
</linearGradient>
<linearGradient id="paint50_linear_482_5350" x1="442.308" y1="61.5879" x2="442.308" y2="-69.4097" gradientUnits="userSpaceOnUse">
<stop stop-color="#B3C583"/>
<stop offset="1" stop-color="#B3C583" stop-opacity="0"/>
</linearGradient>
<linearGradient id="paint51_linear_482_5350" x1="157.493" y1="51.6855" x2="157.493" y2="-10.437" gradientUnits="userSpaceOnUse">
<stop stop-color="#B3C583"/>
<stop offset="1" stop-color="#B3C583" stop-opacity="0"/>
</linearGradient>
<radialGradient id="paint52_radial_482_5350" cx="0" cy="0" r="1" gradientUnits="userSpaceOnUse" gradientTransform="translate(230.979 135.336) rotate(-40.4641) scale(132.966)">
<stop stop-color="#749E40"/>
<stop offset="1" stop-color="#749E40" stop-opacity="0"/>
</radialGradient>
<clipPath id="clip0_482_5350">
<rect width="480" height="330" fill="white"/>
</clipPath>
</defs>
</svg>
