<svg width="1152" height="554" viewBox="0 0 1152 554" fill="none" xmlns="http://www.w3.org/2000/svg">
<g opacity="0.25" clip-path="url(#clip0_414_1832)">
<path d="M-12 18.6692C-12 20.8783 -10.2091 22.6692 -8 22.6692C-5.79086 22.6692 -4 20.8783 -4 18.6692C-4 16.4601 -5.79086 14.6692 -8 14.6692C-10.2091 14.6692 -12 16.4601 -12 18.6692ZM2.96618 25.0867C2.96618 27.2958 4.75704 29.0867 6.96618 29.0867C9.17532 29.0867 10.9662 27.2958 10.9662 25.0867C10.9662 22.8775 9.17532 21.0867 6.96618 21.0867C4.75704 21.0867 2.96618 22.8775 2.96618 25.0867ZM-8.29557 19.3585L6.67061 25.776L7.26175 24.3974L-7.70443 17.9799L-8.29557 19.3585Z" fill="url(#paint0_linear_414_1832)"/>
<path d="M28.1726 5.83398C28.1726 8.04312 29.9635 9.83398 32.1726 9.83398C34.3818 9.83398 36.1726 8.04312 36.1726 5.83398C36.1726 3.62485 34.3818 1.83398 32.1726 1.83398C29.9635 1.83398 28.1726 3.62485 28.1726 5.83398ZM6.63369 26.2661L32.6276 6.43022L31.7176 5.23775L5.72373 25.0736L6.63369 26.2661Z" fill="url(#paint1_linear_414_1832)"/>
<path d="M190.212 137C190.212 139.209 192.003 141 194.212 141C196.421 141 198.212 139.209 198.212 137C198.212 134.791 196.421 133 194.212 133C192.003 133 190.212 134.791 190.212 137ZM102.688 48.5362L193.688 137.536L194.736 136.464L103.736 47.4638L102.688 48.5362Z" fill="url(#paint2_linear_414_1832)"/>
<path d="M96.7012 44.9223C96.7012 47.1314 98.4921 48.9223 100.701 48.9223C102.91 48.9223 104.701 47.1314 104.701 44.9223C104.701 42.7131 102.91 40.9223 100.701 40.9223C98.4921 40.9223 96.7012 42.7131 96.7012 44.9223ZM31.8003 6.48546L100.33 45.5738L101.073 44.2708L32.5435 5.18251L31.8003 6.48546Z" fill="url(#paint3_linear_414_1832)"/>
<path d="M287.324 39.0881C287.324 41.2973 289.115 43.0881 291.324 43.0881C293.533 43.0881 295.324 41.2973 295.324 39.0881C295.324 36.879 293.533 35.0881 291.324 35.0881C289.115 35.0881 287.324 36.879 287.324 39.0881ZM194.969 137.046L291.856 39.617L290.792 38.5593L193.906 135.988L194.969 137.046Z" fill="url(#paint4_linear_414_1832)"/>
<path d="M329.86 96.8455C329.86 99.0546 331.651 100.845 333.86 100.845C336.069 100.845 337.86 99.0546 337.86 96.8455C337.86 94.6363 336.069 92.8455 333.86 92.8455C331.651 92.8455 329.86 94.6363 329.86 96.8455ZM290.72 39.5329L333.256 97.2902L334.464 96.4007L291.928 38.6434L290.72 39.5329Z" fill="url(#paint5_linear_414_1832)"/>
<path d="M329.859 96.8457C329.859 99.0548 331.65 100.846 333.859 100.846C336.068 100.846 337.859 99.0548 337.859 96.8457C337.859 94.6366 336.068 92.8457 333.859 92.8457C331.65 92.8457 329.859 94.6366 329.859 96.8457ZM206.979 174.439C206.979 176.648 208.769 178.439 210.979 178.439C213.188 178.439 214.979 176.648 214.979 174.439C214.979 172.23 213.188 170.439 210.979 170.439C208.769 170.439 206.979 172.23 206.979 174.439ZM333.458 96.2116L210.578 173.805L211.379 175.073L334.259 97.4799L333.458 96.2116Z" fill="url(#paint6_linear_414_1832)"/>
<path d="M455.102 207.11C455.102 209.319 456.893 211.11 459.102 211.11C461.312 211.11 463.102 209.319 463.102 207.11C463.102 204.9 461.312 203.11 459.102 203.11C456.893 203.11 455.102 204.9 455.102 207.11ZM211.67 175.766L459.006 207.853L459.199 206.366L211.863 174.278L211.67 175.766Z" fill="url(#paint7_linear_414_1832)"/>
<path d="M150.265 142.935C150.265 145.144 152.056 146.935 154.265 146.935C156.474 146.935 158.265 145.144 158.265 142.935C158.265 140.726 156.474 138.935 154.265 138.935C152.056 138.935 150.265 140.726 150.265 142.935ZM154.047 142.217L31.1667 179.555L31.6028 180.99L154.483 143.652L154.047 142.217Z" fill="url(#paint8_linear_414_1832)"/>
<path d="M27.3851 180.856C27.3851 183.065 29.176 184.856 31.3851 184.856C33.5943 184.856 35.3851 183.065 35.3851 180.856C35.3851 178.647 33.5943 176.856 31.3851 176.856C29.176 176.856 27.3851 178.647 27.3851 180.856ZM12.4189 543.152C12.4189 545.361 14.2098 547.152 16.4189 547.152C18.6281 547.152 20.4189 545.361 20.4189 543.152C20.4189 540.943 18.6281 539.152 16.4189 539.152C14.2098 539.152 12.4189 540.943 12.4189 543.152ZM30.6358 180.825L15.6696 543.121L17.1683 543.183L32.1345 180.887L30.6358 180.825Z" fill="url(#paint9_linear_414_1832)"/>
<path d="M533.085 232.196C533.085 234.405 534.875 236.196 537.085 236.196C539.294 236.196 541.085 234.405 541.085 232.196C541.085 229.987 539.294 228.196 537.085 228.196C534.875 228.196 533.085 229.987 533.085 232.196ZM16.804 544.379L537.47 232.84L536.699 231.553L16.0339 543.092L16.804 544.379Z" fill="url(#paint10_linear_414_1832)"/>
<path d="M533.085 232.779C533.085 234.988 534.876 236.779 537.085 236.779C539.294 236.779 541.085 234.988 541.085 232.779C541.085 230.57 539.294 228.779 537.085 228.779C534.876 228.779 533.085 230.57 533.085 232.779ZM536.783 232.093L377.669 302.102L378.273 303.475L537.387 233.466L536.783 232.093Z" fill="url(#paint11_linear_414_1832)"/>
<path d="M373.97 303.372C373.97 305.581 375.761 307.372 377.97 307.372C380.18 307.372 381.97 305.581 381.97 303.372C381.97 301.163 380.18 299.372 377.97 299.372C375.761 299.372 373.97 301.163 373.97 303.372ZM263.693 518.649C263.693 520.859 265.484 522.649 267.693 522.649C269.902 522.649 271.693 520.859 271.693 518.649C271.693 516.44 269.902 514.649 267.693 514.649C265.484 514.649 263.693 516.44 263.693 518.649ZM377.303 303.03L267.026 518.307L268.361 518.991L378.638 303.714L377.303 303.03Z" fill="url(#paint12_linear_414_1832)"/>
<path d="M432.259 456.808C432.259 459.017 434.05 460.808 436.259 460.808C438.468 460.808 440.259 459.017 440.259 456.808C440.259 454.599 438.468 452.808 436.259 452.808C434.05 452.808 432.259 454.599 432.259 456.808ZM268.742 519.936L436.521 457.511L435.998 456.105L268.219 518.53L268.742 519.936Z" fill="url(#paint13_linear_414_1832)"/>
<path d="M648.088 549.57C648.088 551.779 649.879 553.57 652.088 553.57C654.297 553.57 656.088 551.779 656.088 549.57C656.088 547.361 654.297 545.57 652.088 545.57C649.879 545.57 648.088 547.361 648.088 549.57ZM435.964 457.497L651.792 550.259L652.384 548.881L436.556 456.119L435.964 457.497Z" fill="url(#paint14_linear_414_1832)"/>
<path d="M648.088 550.153C648.088 552.362 649.879 554.153 652.088 554.153C654.297 554.153 656.088 552.362 656.088 550.153C656.088 547.944 654.297 546.153 652.088 546.153C649.879 546.153 648.088 547.944 648.088 550.153ZM652.223 549.415L452.149 512.661L451.878 514.136L651.952 550.891L652.223 549.415Z" fill="url(#paint15_linear_414_1832)"/>
<path d="M448.013 513.398C448.013 515.608 449.804 517.398 452.013 517.398C454.222 517.398 456.013 515.608 456.013 513.398C456.013 511.189 454.222 509.398 452.013 509.398C449.804 509.398 448.013 511.189 448.013 513.398ZM759.214 348.294L759.569 348.955L760.32 348.551L759.824 347.858L759.214 348.294ZM676.506 232.779L677.116 232.343L676.936 232.092L676.632 232.04L676.506 232.779ZM452.368 514.059L759.569 348.955L758.859 347.634L451.658 512.738L452.368 514.059ZM759.824 347.858L677.116 232.343L675.896 233.216L758.604 348.731L759.824 347.858ZM676.632 232.04L155.178 143.362L154.927 144.841L676.38 233.519L676.632 232.04Z" fill="url(#paint16_linear_414_1832)"/>
<path d="M464.555 135.934C464.555 138.143 466.346 139.934 468.555 139.934C470.764 139.934 472.555 138.143 472.555 135.934C472.555 133.725 470.764 131.934 468.555 131.934C466.346 131.934 464.555 133.725 464.555 135.934ZM464.555 186.691C464.555 188.9 466.346 190.691 468.555 190.691C470.764 190.691 472.555 188.9 472.555 186.691C472.555 184.481 470.764 182.691 468.555 182.691C466.346 182.691 464.555 184.481 464.555 186.691ZM467.805 135.934V186.691H469.305V135.934H467.805Z" fill="url(#paint17_linear_414_1832)"/>
<path d="M463.766 187.274C463.766 189.483 465.557 191.274 467.766 191.274C469.976 191.274 471.766 189.483 471.766 187.274C471.766 185.065 469.976 183.274 467.766 183.274C465.557 183.274 463.766 185.065 463.766 187.274ZM467.559 186.553L84.7397 296.817L85.1548 298.258L467.974 187.994L467.559 186.553Z" fill="url(#paint18_linear_414_1832)"/>
<path d="M80.9473 297.538C80.9473 299.747 82.7381 301.538 84.9473 301.538C87.1564 301.538 88.9473 299.747 88.9473 297.538C88.9473 295.328 87.1564 293.538 84.9473 293.538C82.7381 293.538 80.9473 295.328 80.9473 297.538ZM73.0703 443.389C73.0703 445.599 74.8612 447.389 77.0703 447.389C79.2795 447.389 81.0703 445.599 81.0703 443.389C81.0703 441.18 79.2795 439.389 77.0703 439.389C74.8612 439.389 73.0703 441.18 73.0703 443.389ZM84.1983 297.497L76.3214 443.349L77.8192 443.43L85.6962 297.578L84.1983 297.497Z" fill="url(#paint19_linear_414_1832)"/>
<path d="M252.665 365.213C252.665 367.422 254.455 369.213 256.665 369.213C258.874 369.213 260.665 367.422 260.665 365.213C260.665 363.004 258.874 361.213 256.665 361.213C254.455 361.213 252.665 363.004 252.665 365.213ZM77.3715 444.66L256.966 365.9L256.363 364.526L76.7691 443.286L77.3715 444.66Z" fill="url(#paint20_linear_414_1832)"/>
<path d="M257.453 365.796L0.665039 432.305" stroke="url(#paint21_linear_414_1832)" stroke-width="1.5"/>
<path d="M-3.33496 432.305C-3.33496 434.514 -1.5441 436.305 0.665039 436.305C2.87418 436.305 4.66504 434.514 4.66504 432.305C4.66504 430.096 2.87418 428.305 0.665039 428.305C-1.5441 428.305 -3.33496 430.096 -3.33496 432.305ZM819.805 85.1775C819.805 87.3866 821.596 89.1775 823.805 89.1775C826.014 89.1775 827.805 87.3866 827.805 85.1775C827.805 82.9684 826.014 81.1775 823.805 81.1775C821.596 81.1775 819.805 82.9684 819.805 85.1775ZM0.956468 432.996L824.097 85.8686L823.514 84.4864L0.37361 431.614L0.956468 432.996Z" fill="url(#paint22_linear_414_1832)"/>
<path d="M823.017 86.3442L780.482 175.606L706.438 180.273" stroke="url(#paint23_linear_414_1832)" stroke-width="1.5"/>
<path d="M703.227 180.856C703.227 183.065 705.017 184.856 707.227 184.856C709.436 184.856 711.227 183.065 711.227 180.856C711.227 178.647 709.436 176.856 707.227 176.856C705.017 176.856 703.227 178.647 703.227 180.856ZM707.151 180.11L459.815 205.197L459.966 206.689L707.302 181.602L707.151 180.11Z" fill="url(#paint24_linear_414_1832)"/>
<path d="M254.24 292.871C254.24 295.08 256.031 296.871 258.24 296.871C260.449 296.871 262.24 295.08 262.24 292.871C262.24 290.662 260.449 288.871 258.24 288.871C256.031 288.871 254.24 290.662 254.24 292.871ZM258.69 293.471L468.216 136.534L467.317 135.334L257.791 292.27L258.69 293.471Z" fill="url(#paint25_linear_414_1832)"/>
<path d="M663.842 525.067C663.842 527.276 665.632 529.067 667.842 529.067C670.051 529.067 671.842 527.276 671.842 525.067C671.842 522.857 670.051 521.067 667.842 521.067C665.632 521.067 663.842 522.857 663.842 525.067ZM261.022 295.857L667.472 525.719L668.211 524.414L261.761 294.551L261.022 295.857Z" fill="url(#paint26_linear_414_1832)"/>
<path d="M841.073 505.231C841.073 507.44 842.864 509.231 845.073 509.231C847.282 509.231 849.073 507.44 849.073 505.231C849.073 503.022 847.282 501.231 845.073 501.231C842.864 501.231 841.073 503.022 841.073 505.231ZM667.923 525.229L845.154 505.977L844.992 504.485L667.761 523.738L667.923 525.229Z" fill="url(#paint27_linear_414_1832)"/>
<path d="M719.768 536.151C719.768 538.36 721.558 540.151 723.768 540.151C725.977 540.151 727.768 538.36 727.768 536.151C727.768 533.942 725.977 532.151 723.768 532.151C721.558 532.151 719.768 533.942 719.768 536.151ZM841.739 505.67L723.584 535.424L723.951 536.879L842.105 507.125L841.739 505.67Z" fill="url(#paint28_linear_414_1832)"/>
<path d="M1093.13 255.532C1093.13 257.741 1094.92 259.532 1097.13 259.532C1099.34 259.532 1101.13 257.741 1101.13 255.532C1101.13 253.323 1099.34 251.532 1097.13 251.532C1094.92 251.532 1093.13 253.323 1093.13 255.532ZM723.431 537.917L1097.59 256.131L1096.68 254.933L722.528 536.719L723.431 537.917Z" fill="url(#paint29_linear_414_1832)"/>
<path d="M1096.35 256.116L1060.9 439.889" stroke="url(#paint30_linear_414_1832)" stroke-width="1.5"/>
<path d="M1056.11 439.889C1056.11 442.098 1057.9 443.889 1060.11 443.889C1062.32 443.889 1064.11 442.098 1064.11 439.889C1064.11 437.68 1062.32 435.889 1060.11 435.889C1057.9 435.889 1056.11 437.68 1056.11 439.889ZM1034.06 555.404C1034.06 557.613 1035.85 559.404 1038.06 559.404C1040.27 559.404 1042.06 557.613 1042.06 555.404C1042.06 553.195 1040.27 551.404 1038.06 551.404C1035.85 551.404 1034.06 553.195 1034.06 555.404ZM1059.38 439.749L1037.32 555.263L1038.79 555.544L1060.85 440.03L1059.38 439.749Z" fill="url(#paint31_linear_414_1832)"/>
<path d="M1089.98 431.722C1089.98 433.931 1091.77 435.722 1093.98 435.722C1096.19 435.722 1097.98 433.931 1097.98 431.722C1097.98 429.513 1096.19 427.722 1093.98 427.722C1091.77 427.722 1089.98 429.513 1089.98 431.722ZM1089.98 467.893C1089.98 470.102 1091.77 471.893 1093.98 471.893C1096.19 471.893 1097.98 470.102 1097.98 467.893C1097.98 465.684 1096.19 463.893 1093.98 463.893C1091.77 463.893 1089.98 465.684 1089.98 467.893ZM1093.23 431.722V467.893H1094.73V431.722H1093.23Z" fill="url(#paint32_linear_414_1832)"/>
<path d="M1089.2 468.476C1089.2 470.685 1090.99 472.476 1093.2 472.476C1095.4 472.476 1097.2 470.685 1097.2 468.476C1097.2 466.267 1095.4 464.476 1093.2 464.476C1090.99 464.476 1089.2 466.267 1089.2 468.476ZM1093.09 467.734L846.54 503.322L846.755 504.806L1093.3 469.218L1093.09 467.734Z" fill="url(#paint33_linear_414_1832)"/>
<path d="M1077.44 0L1032.54 185.524" stroke="url(#paint34_linear_414_1832)" stroke-width="1.5"/>
<path d="M1029.33 186.107C1029.33 188.316 1031.12 190.107 1033.33 190.107C1035.54 190.107 1037.33 188.316 1037.33 186.107C1037.33 183.898 1035.54 182.107 1033.33 182.107C1031.12 182.107 1029.33 183.898 1029.33 186.107ZM941.109 205.359C941.109 207.569 942.9 209.359 945.109 209.359C947.319 209.359 949.109 207.569 949.109 205.359C949.109 203.15 947.319 201.359 945.109 201.359C942.9 201.359 941.109 203.15 941.109 205.359ZM1033.17 185.374L944.949 204.627L945.269 206.092L1033.49 186.84L1033.17 185.374Z" fill="url(#paint35_linear_414_1832)"/>
<path d="M1138.03 148.186C1138.03 150.395 1139.82 152.186 1142.03 152.186C1144.24 152.186 1146.03 150.395 1146.03 148.186C1146.03 145.976 1144.24 144.186 1142.03 144.186C1139.82 144.186 1138.03 145.976 1138.03 148.186ZM637.848 55.4238C637.848 57.633 639.639 59.4238 641.848 59.4238C644.057 59.4238 645.848 57.633 645.848 55.4238C645.848 53.2147 644.057 51.4238 641.848 51.4238C639.639 51.4238 637.848 53.2147 637.848 55.4238ZM1142.17 147.448L641.984 54.6864L641.711 56.1613L1141.9 148.923L1142.17 147.448Z" fill="url(#paint36_linear_414_1832)"/>
<path d="M687.705 271.492C687.57 273.697 689.247 275.594 691.452 275.73C693.657 275.866 695.554 274.189 695.69 271.984C695.826 269.779 694.149 267.881 691.944 267.745C689.739 267.61 687.841 269.287 687.705 271.492ZM641.481 56.1677L690.967 271.905L692.429 271.57L642.943 55.8323L641.481 56.1677Z" fill="url(#paint37_linear_414_1832)"/>
<path d="M1136.46 147.602C1136.46 149.811 1138.25 151.602 1140.46 151.602C1142.67 151.602 1144.46 149.811 1144.46 147.602C1144.46 145.393 1142.67 143.602 1140.46 143.602C1138.25 143.602 1136.46 145.393 1136.46 147.602ZM971.829 235.113C971.829 237.322 973.62 239.113 975.829 239.113C978.038 239.113 979.829 237.322 979.829 235.113C979.829 232.904 978.038 231.113 975.829 231.113C973.62 231.113 971.829 232.904 971.829 235.113ZM1140.11 146.94L975.477 234.451L976.181 235.775L1140.81 148.264L1140.11 146.94Z" fill="url(#paint38_linear_414_1832)"/>
<path d="M1073.44 0.583252C1073.44 2.79239 1075.23 4.58325 1077.44 4.58325C1079.65 4.58325 1081.44 2.79239 1081.44 0.583252C1081.44 -1.62589 1079.65 -3.41675 1077.44 -3.41675C1075.23 -3.41675 1073.44 -1.62589 1073.44 0.583252ZM908.026 197.775C908.026 199.984 909.817 201.775 912.026 201.775C914.236 201.775 916.026 199.984 916.026 197.775C916.026 195.566 914.236 193.775 912.026 193.775C909.817 193.775 908.026 195.566 908.026 197.775ZM1076.87 0.101243L911.452 197.293L912.601 198.257L1078.02 1.06526L1076.87 0.101243Z" fill="url(#paint39_linear_414_1832)"/>
</g>
<defs>
<linearGradient id="paint0_linear_414_1832" x1="-0.516909" y1="18.6692" x2="-0.516909" y2="25.0867" gradientUnits="userSpaceOnUse">
<stop stop-color="#71A623"/>
<stop offset="1" stop-color="#71A623" stop-opacity="0"/>
</linearGradient>
<linearGradient id="paint1_linear_414_1832" x1="19.1757" y1="5.83398" x2="19.1757" y2="25.6698" gradientUnits="userSpaceOnUse">
<stop stop-color="#71A623"/>
<stop offset="1" stop-color="#71A623" stop-opacity="0"/>
</linearGradient>
<linearGradient id="paint2_linear_414_1832" x1="148.712" y1="48" x2="148.712" y2="137" gradientUnits="userSpaceOnUse">
<stop stop-color="#71A623"/>
<stop offset="1" stop-color="#71A623" stop-opacity="0"/>
</linearGradient>
<linearGradient id="paint3_linear_414_1832" x1="66.4366" y1="5.83398" x2="66.4366" y2="44.9223" gradientUnits="userSpaceOnUse">
<stop stop-color="#71A623"/>
<stop offset="1" stop-color="#71A623" stop-opacity="0.46"/>
</linearGradient>
<linearGradient id="paint4_linear_414_1832" x1="242.881" y1="39.0881" x2="242.881" y2="136.517" gradientUnits="userSpaceOnUse">
<stop stop-color="#71A623"/>
<stop offset="1" stop-color="#71A623" stop-opacity="0"/>
</linearGradient>
<linearGradient id="paint5_linear_414_1832" x1="312.592" y1="39.0881" x2="312.592" y2="96.8455" gradientUnits="userSpaceOnUse">
<stop stop-color="#71A623"/>
<stop offset="1" stop-color="#71A623" stop-opacity="0"/>
</linearGradient>
<linearGradient id="paint6_linear_414_1832" x1="272.419" y1="96.8457" x2="272.419" y2="174.439" gradientUnits="userSpaceOnUse">
<stop stop-color="#71A623"/>
<stop offset="1" stop-color="#71A623" stop-opacity="0"/>
</linearGradient>
<linearGradient id="paint7_linear_414_1832" x1="335.435" y1="175.022" x2="335.435" y2="207.11" gradientUnits="userSpaceOnUse">
<stop stop-color="#71A623"/>
<stop offset="1" stop-color="#71A623" stop-opacity="0"/>
</linearGradient>
<linearGradient id="paint8_linear_414_1832" x1="92.8249" y1="142.935" x2="92.8249" y2="180.273" gradientUnits="userSpaceOnUse">
<stop stop-color="#71A623"/>
<stop offset="1" stop-color="#71A623" stop-opacity="0"/>
</linearGradient>
<linearGradient id="paint9_linear_414_1832" x1="23.902" y1="180.856" x2="23.902" y2="543.152" gradientUnits="userSpaceOnUse">
<stop stop-color="#71A623"/>
<stop offset="1" stop-color="#71A623" stop-opacity="0"/>
</linearGradient>
<linearGradient id="paint10_linear_414_1832" x1="276.752" y1="232.196" x2="276.752" y2="543.736" gradientUnits="userSpaceOnUse">
<stop stop-color="#71A623"/>
<stop offset="1" stop-color="#71A623" stop-opacity="0"/>
</linearGradient>
<linearGradient id="paint11_linear_414_1832" x1="457.528" y1="232.779" x2="457.528" y2="302.788" gradientUnits="userSpaceOnUse">
<stop stop-color="#71A623"/>
<stop offset="1" stop-color="#71A623" stop-opacity="0"/>
</linearGradient>
<linearGradient id="paint12_linear_414_1832" x1="322.832" y1="303.372" x2="322.832" y2="518.649" gradientUnits="userSpaceOnUse">
<stop stop-color="#71A623"/>
<stop offset="1" stop-color="#71A623" stop-opacity="0"/>
</linearGradient>
<linearGradient id="paint13_linear_414_1832" x1="352.37" y1="456.808" x2="352.37" y2="519.233" gradientUnits="userSpaceOnUse">
<stop stop-color="#71A623"/>
<stop offset="1" stop-color="#71A623" stop-opacity="0"/>
</linearGradient>
<linearGradient id="paint14_linear_414_1832" x1="544.174" y1="456.808" x2="544.174" y2="549.57" gradientUnits="userSpaceOnUse">
<stop stop-color="#71A623"/>
<stop offset="1" stop-color="#71A623" stop-opacity="0"/>
</linearGradient>
<linearGradient id="paint15_linear_414_1832" x1="552.051" y1="513.398" x2="552.051" y2="550.153" gradientUnits="userSpaceOnUse">
<stop stop-color="#71A623"/>
<stop offset="1" stop-color="#71A623" stop-opacity="0"/>
</linearGradient>
<linearGradient id="paint16_linear_414_1832" x1="457.133" y1="144.102" x2="457.133" y2="513.398" gradientUnits="userSpaceOnUse">
<stop stop-color="#71A623"/>
<stop offset="1" stop-color="#71A623" stop-opacity="0"/>
</linearGradient>
<linearGradient id="paint17_linear_414_1832" x1="469.055" y1="135.934" x2="469.055" y2="186.691" gradientUnits="userSpaceOnUse">
<stop stop-color="#71A623"/>
<stop offset="1" stop-color="#71A623" stop-opacity="0"/>
</linearGradient>
<linearGradient id="paint18_linear_414_1832" x1="276.357" y1="187.274" x2="276.357" y2="297.538" gradientUnits="userSpaceOnUse">
<stop stop-color="#71A623"/>
<stop offset="1" stop-color="#71A623" stop-opacity="0"/>
</linearGradient>
<linearGradient id="paint19_linear_414_1832" x1="81.0088" y1="297.538" x2="81.0088" y2="443.389" gradientUnits="userSpaceOnUse">
<stop stop-color="#71A623"/>
<stop offset="1" stop-color="#71A623" stop-opacity="0"/>
</linearGradient>
<linearGradient id="paint20_linear_414_1832" x1="166.867" y1="365.213" x2="166.867" y2="443.973" gradientUnits="userSpaceOnUse">
<stop stop-color="#71A623"/>
<stop offset="1" stop-color="#71A623" stop-opacity="0"/>
</linearGradient>
<linearGradient id="paint21_linear_414_1832" x1="129.059" y1="365.796" x2="129.059" y2="432.305" gradientUnits="userSpaceOnUse">
<stop stop-color="#71A623"/>
<stop offset="1" stop-color="#71A623" stop-opacity="0"/>
</linearGradient>
<linearGradient id="paint22_linear_414_1832" x1="412.235" y1="85.1775" x2="412.235" y2="432.305" gradientUnits="userSpaceOnUse">
<stop stop-color="#71A623"/>
<stop offset="1" stop-color="#71A623" stop-opacity="0"/>
</linearGradient>
<linearGradient id="paint23_linear_414_1832" x1="764.728" y1="86.3442" x2="764.728" y2="180.273" gradientUnits="userSpaceOnUse">
<stop stop-color="#71A623"/>
<stop offset="1" stop-color="#71A623" stop-opacity="0"/>
</linearGradient>
<linearGradient id="paint24_linear_414_1832" x1="583.559" y1="180.856" x2="583.559" y2="205.943" gradientUnits="userSpaceOnUse">
<stop stop-color="#71A623"/>
<stop offset="1" stop-color="#71A623" stop-opacity="0"/>
</linearGradient>
<linearGradient id="paint25_linear_414_1832" x1="363.004" y1="135.934" x2="363.004" y2="292.871" gradientUnits="userSpaceOnUse">
<stop stop-color="#71A623"/>
<stop offset="1" stop-color="#71A623" stop-opacity="0"/>
</linearGradient>
<linearGradient id="paint26_linear_414_1832" x1="464.617" y1="295.204" x2="464.617" y2="525.067" gradientUnits="userSpaceOnUse">
<stop stop-color="#71A623"/>
<stop offset="1" stop-color="#71A623" stop-opacity="0"/>
</linearGradient>
<linearGradient id="paint27_linear_414_1832" x1="756.457" y1="505.231" x2="756.457" y2="524.483" gradientUnits="userSpaceOnUse">
<stop stop-color="#71A623"/>
<stop offset="1" stop-color="#71A623" stop-opacity="0"/>
</linearGradient>
<linearGradient id="paint28_linear_414_1832" x1="782.845" y1="506.397" x2="782.845" y2="536.151" gradientUnits="userSpaceOnUse">
<stop stop-color="#71A623"/>
<stop offset="1" stop-color="#71A623" stop-opacity="0"/>
</linearGradient>
<linearGradient id="paint29_linear_414_1832" x1="910.057" y1="255.532" x2="910.057" y2="537.318" gradientUnits="userSpaceOnUse">
<stop stop-color="#71A623"/>
<stop offset="1" stop-color="#71A623" stop-opacity="0"/>
</linearGradient>
<linearGradient id="paint30_linear_414_1832" x1="1078.62" y1="256.116" x2="1078.62" y2="439.889" gradientUnits="userSpaceOnUse">
<stop stop-color="#71A623"/>
<stop offset="1" stop-color="#71A623" stop-opacity="0"/>
</linearGradient>
<linearGradient id="paint31_linear_414_1832" x1="1049.08" y1="439.889" x2="1049.08" y2="555.404" gradientUnits="userSpaceOnUse">
<stop stop-color="#71A623"/>
<stop offset="1" stop-color="#71A623" stop-opacity="0"/>
</linearGradient>
<linearGradient id="paint32_linear_414_1832" x1="1094.48" y1="431.722" x2="1094.48" y2="467.893" gradientUnits="userSpaceOnUse">
<stop stop-color="#71A623"/>
<stop offset="1" stop-color="#71A623" stop-opacity="0"/>
</linearGradient>
<linearGradient id="paint33_linear_414_1832" x1="969.922" y1="468.476" x2="969.922" y2="504.064" gradientUnits="userSpaceOnUse">
<stop stop-color="#71A623"/>
<stop offset="1" stop-color="#71A623" stop-opacity="0"/>
</linearGradient>
<linearGradient id="paint34_linear_414_1832" x1="1054.99" y1="0" x2="1054.99" y2="185.524" gradientUnits="userSpaceOnUse">
<stop stop-color="#71A623"/>
<stop offset="1" stop-color="#71A623" stop-opacity="0"/>
</linearGradient>
<linearGradient id="paint35_linear_414_1832" x1="989.22" y1="186.107" x2="989.22" y2="205.359" gradientUnits="userSpaceOnUse">
<stop stop-color="#71A623"/>
<stop offset="1" stop-color="#71A623" stop-opacity="0"/>
</linearGradient>
<linearGradient id="paint36_linear_414_1832" x1="891.94" y1="55.4238" x2="891.94" y2="148.186" gradientUnits="userSpaceOnUse">
<stop stop-color="#71A623"/>
<stop offset="1" stop-color="#71A623" stop-opacity="0"/>
</linearGradient>
<linearGradient id="paint37_linear_414_1832" x1="673.479" y1="57.9257" x2="660.43" y2="269.812" gradientUnits="userSpaceOnUse">
<stop stop-color="#71A623"/>
<stop offset="1" stop-color="#71A623" stop-opacity="0"/>
</linearGradient>
<linearGradient id="paint38_linear_414_1832" x1="1058.14" y1="147.602" x2="1058.14" y2="235.113" gradientUnits="userSpaceOnUse">
<stop stop-color="#71A623"/>
<stop offset="1" stop-color="#71A623" stop-opacity="0"/>
</linearGradient>
<linearGradient id="paint39_linear_414_1832" x1="994.734" y1="0.583252" x2="994.734" y2="197.775" gradientUnits="userSpaceOnUse">
<stop stop-color="#71A623"/>
<stop offset="1" stop-color="#71A623" stop-opacity="0"/>
</linearGradient>
<clipPath id="clip0_414_1832">
<rect width="1160" height="554" fill="white" transform="translate(-8)"/>
</clipPath>
</defs>
</svg>
